<?xml version="1.0" standalone="no"?>
<!DOCTYPE svg PUBLIC "-//W3C//DTD SVG 1.1//EN" "http://www.w3.org/Graphics/SVG/1.1/DTD/svg11.dtd" >
<svg>
<metadata>
Created by FontForge 20090914 at Thu Oct  8 12:16:23 2020
 By www-data
http://lachit.org
</metadata>
<defs>
<font id="Rangmon" horiz-adv-x="1023" >
  <font-face 
    font-family="Rangmon"
    font-weight="400"
    font-stretch="normal"
    units-per-em="2048"
    panose-1="2 11 3 2 4 2 4 2 2 3"
    ascent="1638"
    descent="-410"
    x-height="969.999"
    cap-height="1333"
    bbox="-1172.15 -890.845 5302 2270"
    underline-thickness="50"
    underline-position="-425"
    unicode-range="U+0020-U+2E3B"
  />
<missing-glyph horiz-adv-x="1393" 
d="M189 15v1765h1015v-1765h-1015zM333 159h726v1477h-726v-1477z" />
    <glyph glyph-name=".notdef" horiz-adv-x="1393" 
d="M189 15v1765h1015v-1765h-1015zM333 159h726v1477h-726v-1477z" />
    <glyph glyph-name="space" unicode=" " horiz-adv-x="1164" 
 />
    <glyph glyph-name="exclam" unicode="!" horiz-adv-x="564" 
d="M149.5 159c1 30.667 12.001 57.332 33.001 79.999s46.5 34 76.5 34c29.333 0 53.666 -11 72.999 -33s29 -49.167 29 -81.5s-10.5 -59.333 -31.5 -81s-45.833 -32.5 -74.5 -32.5c-30.667 0 -56.167 11.333 -76.5 34s-30 49.334 -29 80.001zM235.001 385.998l-40.999 697
c-7.33301 120 20 180 82 180c59.333 0 84.666 -60 75.999 -180l-78 -736z" />
    <glyph glyph-name="quotedbl" unicode="&#x22;" horiz-adv-x="801" 
d="M619 885c0 -4 -0.835938 -7.83301 -2.50293 -11.5s-4.66699 -6.5 -9 -8.5s-9.66602 -3.66699 -15.999 -5s-13.833 -2 -22.5 -2c-10 0 -18.167 0.666992 -24.5 2s-11.5 3 -15.5 5s-6.83301 4.83301 -8.5 8.5s-2.5 7.5 -2.5 11.5l-24 497c0 4 1.5 7.83301 4.5 11.5
s7.5 6.66699 13.5 9s13.833 4 23.5 5s20.834 1.5 33.501 1.5s23.834 -0.5 33.501 -1.5s17.5 -2.66699 23.5 -5s10.167 -5.33301 12.5 -9s3.5 -7.5 3.5 -11.5zM260.997 885c0 -4 -0.835938 -7.83203 -2.50293 -11.499s-4.66699 -6.5 -9 -8.5s-9.66602 -3.66699 -15.999 -5
s-14.166 -2 -23.499 -2s-17.166 0.666992 -23.499 2s-11.5 3 -15.5 5s-6.83301 4.83301 -8.5 8.5s-2.5 7.5 -2.5 11.5l-24 497c0 4 1.5 7.83301 4.5 11.5s7.5 6.66699 13.5 9s13.833 4 23.5 5s20.5 1.5 32.5 1.5c27.333 0 46.5 -2.33301 57.5 -7s16.5 -11.334 16.5 -20.001z
" />
    <glyph glyph-name="numbersign" unicode="#" horiz-adv-x="1251" 
d="M1101 898c0 -9.33301 -0.829102 -17.334 -2.49609 -24.001s-3.83398 -12.167 -6.50098 -16.5s-6.16699 -7.66602 -10.5 -9.99902s-8.83301 -3.5 -13.5 -3.5h-146l-46 -374h132c10 0 18 -4.66699 24 -14s9 -23 9 -41c0 -9.33301 -1 -17.333 -3 -24
s-4.33301 -12.167 -7 -16.5s-6 -7.66602 -10 -9.99902s-8.33301 -3.5 -13 -3.5h-148l-46 -375c-0.666992 -4.66699 -1.83398 -8.5 -3.50098 -11.5s-4.5 -5.66699 -8.5 -8s-9.83301 -3.83301 -17.5 -4.5s-18.167 -1 -31.5 -1s-24.333 0.333008 -33 1s-15.5 2.16699 -20.5 4.5
s-8.5 5 -10.5 8s-2.66699 6.83301 -2 11.5l47 375h-323l-48 -375c-0.666992 -4.66699 -1.66699 -8.5 -3 -11.5s-4 -5.66699 -8 -8s-9.83301 -3.83301 -17.5 -4.5s-18 -1 -31 -1s-24 0.333008 -33 1s-15.833 2.16699 -20.5 4.5s-8.16699 5 -10.5 8
s-3.16602 6.83301 -2.49902 11.5l47 375h-135c-10 0 -17.833 4.5 -23.5 13.5s-8.5 22.5 -8.5 40.5c0 9.33301 0.833008 17.333 2.5 24s3.83398 12.167 6.50098 16.5s6 7.83301 10 10.5s8.33301 4 13 4h150l47 374h-138c-10 0 -18.167 4.66699 -24.5 14
s-9.5 22.666 -9.5 39.999c0 18 3.16699 31.667 9.5 41s14.5 14 24.5 14h152l46 354c0 4.66699 1.16699 8.5 3.5 11.5s5.83301 5.66699 10.5 8s11.334 4 20.001 5s19.5 1.5 32.5 1.5s23.667 -0.5 32 -1.5s14.5 -2.66699 18.5 -5s6.66699 -5 8 -8s2 -6.83301 2 -11.5l-47 -354
h324l44 354c0.666992 4.66699 2 8.5 4 11.5s5.33301 5.66699 10 8s11.167 4 19.5 5s19.166 1.5 32.499 1.5s24.166 -0.5 32.499 -1.5s14.666 -2.66699 18.999 -5s7.16602 -5 8.49902 -8s1.66602 -6.83301 0.999023 -11.5l-45 -354h132c10 0 18 -4.66699 24 -14s9 -23 9 -41z
M472.004 843.999l-46 -374h323l47 374h-324z" />
    <glyph glyph-name="dollar" unicode="$" horiz-adv-x="1140" 
d="M985 338c0 -54 -10.5059 -103.337 -31.5059 -148.004s-51 -83 -90 -115s-87.167 -57.333 -144.5 -76s-122.333 -29 -195 -31l-23 -230c-0.666992 -4 -1.66699 -7.83301 -3 -11.5s-3.83301 -6.5 -7.5 -8.5s-9.16699 -3.66699 -16.5 -5s-17 -2 -29 -2
c-12.667 0 -22.667 0.666992 -30 2s-13.166 3 -17.499 5s-7.16602 4.83301 -8.49902 8.5s-1.66602 7.5 -0.999023 11.5l25 234c-35.333 4.66699 -68 10.334 -98 17.001s-56.333 13.834 -79 21.501s-41.667 15.5 -57 23.5s-26.5 15.5 -33.5 22.5s-11.667 15.5 -14 25.5
s-3.5 23 -3.5 39c0 10.667 0.5 19.667 1.5 27s2.83301 13.666 5.5 18.999s6.16699 9.16602 10.5 11.499s9.16602 3.5 14.499 3.5c9.33301 0 22.166 -5 38.499 -15s38.333 -21.167 66 -33.5s61.834 -23.5 102.501 -33.5s89.667 -15 147 -15c110 0 193.667 21.833 251 65.5
s86 103.5 86 179.5c0 46.667 -9.83301 85.334 -29.5 116.001s-45.667 56.834 -78 78.501s-69.166 40 -110.499 55l-126.5 45c-43 15 -85 31.667 -126 50s-77.833 41.333 -110.5 69s-58.834 61.667 -78.501 102s-29.5 89.833 -29.5 148.5c0 44 7.66699 85.5 23 124.5
s39 73.333 71 103s72.667 53.834 122 72.501s108 29.667 176 33l21 212c0.666992 4 1.66699 7.83301 3 11.5s4 6.66699 8 9s9.5 4 16.5 5s16.833 1.5 29.5 1.5c11.333 0 21 -0.5 29 -1.5s14 -2.66699 18 -5s6.5 -5.33301 7.5 -9s1.5 -7.5 1.5 -11.5l-24 -216
c22 -2.66699 44.5 -6.5 67.5 -11.5s44.833 -10.833 65.5 -17.5s39.167 -14.167 55.5 -22.5s27.5 -15.333 33.5 -21s10 -10.667 12 -15s3.83301 -9 5.5 -14s2.83398 -10.5 3.50098 -16.5s1 -12.667 1 -20c0 -9.33301 -0.333008 -17.666 -1 -24.999s-2.16699 -13.333 -4.5 -18
s-5 -8.5 -8 -11.5s-6.83301 -4.5 -11.5 -4.5c-7.33301 0 -19.166 4.66699 -35.499 14s-37.333 19.166 -63 29.499s-55.5 20 -89.5 29s-72 13.5 -114 13.5c-52.667 0 -97.5 -5.16699 -134.5 -15.5s-67 -24.833 -90 -43.5s-39.833 -41 -50.5 -67s-16 -54.333 -16 -85
c0 -46.667 10 -85.667 30 -117s46.333 -57.666 79 -78.999s69.667 -39.333 111 -54l128 -44c43.333 -15.333 85.833 -31.833 127.5 -49.5s78.834 -40.334 111.501 -68.001s58.834 -61.667 78.501 -102s29.5 -90.166 29.5 -149.499z" />
    <glyph glyph-name="percent" unicode="%" horiz-adv-x="1587" 
d="M366 -50c-2.66699 -4.66699 -6.00293 -8.16895 -10.0029 -10.502s-8.66699 -4.33301 -14 -6s-11.666 -2.83398 -18.999 -3.50098s-16.333 -1 -27 -1c-11.333 0 -20.5 1.16699 -27.5 3.5s-11.833 5.83301 -14.5 10.5s-3.66699 10 -3 16s3.33398 12.667 8.00098 20
l932 1368c3.33301 4.66699 6.83301 8.33398 10.5 11.001s8.33398 4.83398 14.001 6.50098s12.167 2.83398 19.5 3.50098s16.333 1 27 1c11.333 0 20.5 -1.16699 27.5 -3.5s12 -5.83301 15 -10.5s4 -10.167 3 -16.5s-4.16699 -12.833 -9.5 -19.5zM1460 309.998
c0 -54 -6 -102.833 -18 -146.5s-29.667 -81 -53 -112s-52.833 -55 -88.5 -72s-77.167 -25.5 -124.5 -25.5s-88.333 7.5 -123 22.5s-63.334 37.333 -86.001 67s-39.5 66.667 -50.5 111s-16.5 95.5 -16.5 153.5c0 50 5.5 96.5 16.5 139.5s28 80.333 51 112
s52.5 56.5 88.5 74.5s78 27 126 27c52 0 95.833 -9.33301 131.5 -28s64.334 -44 86.001 -76s37.167 -69.333 46.5 -112s14 -87.667 14 -135zM1346 304.998c0 40.667 -3.16895 77 -9.50195 109s-16.166 59 -29.499 81s-30.666 38.833 -51.999 50.5s-47 17.5 -77 17.5
c-28 0 -52.333 -5.5 -73 -16.5s-37.667 -27.167 -51 -48.5s-23.166 -47.333 -29.499 -78s-9.5 -66 -9.5 -106c0 -50.667 3.66699 -92.834 11 -126.501s18.166 -60.5 32.499 -80.5s32 -34.167 53 -42.5s45.167 -12.5 72.5 -12.5c32 0 58.333 6 79 18s37.167 29.333 49.5 52
s21 49.334 26 80.001s7.5 65 7.5 103zM667.995 988.998c0 -54 -5.83105 -102.83 -17.498 -146.497s-29.334 -80.834 -53.001 -111.501s-53.334 -54.667 -89.001 -72s-77.167 -26 -124.5 -26c-46.667 0 -87.334 7.5 -122.001 22.5s-63.5 37.5 -86.5 67.5s-40 67 -51 111
s-16.5 95 -16.5 153c0 50.667 5.5 97.5 16.5 140.5s28.167 80.167 51.5 111.5s52.833 56 88.5 74s77.5 27 125.5 27c52 0 95.833 -9.33301 131.5 -28s64.334 -43.834 86.001 -75.501s37.167 -68.834 46.5 -111.501s14 -88 14 -136zM553.997 984.001
c0 40.667 -3.16992 77.002 -9.50293 109.002s-16.166 59.167 -29.499 81.5s-30.666 39.166 -51.999 50.499s-47 17 -77 17c-28 0 -52.333 -5.33301 -73 -16s-37.667 -26.667 -51 -48s-23.166 -47.5 -29.499 -78.5s-9.5 -66.5 -9.5 -106.5c0 -50 3.66699 -92 11 -126
s18.166 -61 32.499 -81s32 -34.167 53 -42.5s45.167 -12.5 72.5 -12.5c32.667 0 59.334 6.16699 80.001 18.5s37 29.666 49 51.999s20.5 48.833 25.5 79.5s7.5 65 7.5 103z" />
    <glyph glyph-name="ampersand" unicode="&#x26;" horiz-adv-x="1452" 
d="M93 313c0 38 4.8291 74.4971 14.4961 109.497s25.834 69.167 48.501 102.5s52.5 65.833 89.5 97.5s82.5 63.834 136.5 96.501c-29.333 40.667 -54.333 77.167 -75 109.5s-37.5 62.166 -50.5 89.499s-22.333 53.166 -28 77.499s-8.5 49.166 -8.5 74.499
c0 40.667 6.66699 79.834 20 117.501s34.833 71.334 64.5 101.001s68.5 53.334 116.5 71.001s106.333 26.5 175 26.5c54.667 0 102.5 -6.66699 143.5 -20s75.167 -31.833 102.5 -55.5s48 -52.167 62 -85.5s21 -70 21 -110c0 -40.667 -6.5 -77.834 -19.5 -111.501
s-34.167 -66.667 -63.5 -99s-67.666 -65 -114.999 -98s-105.333 -68.167 -174 -105.5c26 -32.667 54.333 -66.5 85 -101.5l96.5 -105.5l103 -105c35 -34.667 70.167 -67.667 105.5 -99c16.667 22 31.667 46.5 45 73.5s24.833 55.833 34.5 86.5s17.167 62 22.5 94
s8 64.667 8 98v41c0 6 0.833008 11.167 2.5 15.5s4.66699 7.83301 9 10.5s10.5 4.5 18.5 5.5s18.333 1.5 31 1.5c10 0 19.167 -0.166992 27.5 -0.5s15 -1.5 20 -3.5s9 -5.5 12 -10.5s4.5 -11.833 4.5 -20.5v-21c0 -42 -3.66699 -83.167 -11 -123.5s-17.5 -79.5 -30.5 -117.5
s-29 -74 -48 -108s-40.167 -66 -63.5 -96c36 -28.667 67.167 -52.5 93.5 -71.5s48.833 -34.5 67.5 -46.5s34 -20.5 46 -25.5s22 -7.5 30 -7.5c6.66699 0 13 0.333008 19 1s11 0.166992 15 -1.5s7 -5.5 9 -11.5s3 -15.667 3 -29s-0.166992 -24.166 -0.5 -32.499
s-1.16602 -14.5 -2.49902 -18.5s-3.83301 -7.5 -7.5 -10.5s-10.167 -5.5 -19.5 -7.5s-23 -3 -41 -3c-13.333 0 -28.5 2.66699 -45.5 8s-36.833 14.5 -59.5 27.5s-49.167 30.833 -79.5 53.5s-65.833 51.334 -106.5 86.001c-28 -25.333 -57.667 -48.666 -89 -69.999
s-64.833 -39.833 -100.5 -55.5s-73.667 -27.834 -114 -36.501s-83.833 -13 -130.5 -13c-43.333 0 -83.666 3.83301 -120.999 11.5s-71.666 18.834 -102.999 33.501s-59 32.667 -83 54s-44.333 45.333 -61 72s-29.334 56 -38.001 88s-13 66.333 -13 103zM351.996 1084
c0 -21.333 2.83008 -42.832 8.49707 -64.499s14.334 -44.334 26.001 -68.001s26.167 -49.334 43.5 -77.001s38 -58.5 62 -92.5c56.667 32.667 104.334 62.334 143.001 89.001s69.667 52.5 93 77.5s40.166 50 50.499 75s15.5 51.833 15.5 80.5c0 22 -4 43.333 -12 64
s-20.667 39.167 -38 55.5s-39.666 29.333 -66.999 39s-60.333 14.5 -99 14.5c-41.333 0 -76.166 -5.5 -104.499 -16.5s-51.5 -25.5 -69.5 -43.5s-31.167 -38.5 -39.5 -61.5s-12.5 -46.833 -12.5 -71.5zM226.993 332.998c0 -40 6.49902 -76.502 19.499 -109.502
s32.333 -61.5 58 -85.5s57.5 -42.667 95.5 -56s82 -20 132 -20c33.333 0 65.333 3.5 96 10.5s60 16.667 88 29s54.167 26.833 78.5 43.5s47.166 35 68.499 55c-39.333 34 -78.166 69.333 -116.499 106s-75.333 73.834 -111 111.501l-102.5 112
c-32.667 37 -63 73.5 -91 109.5c-41.333 -26 -75.666 -51.5 -102.999 -76.5s-49.333 -50 -66 -75s-28.5 -50.167 -35.5 -75.5s-10.5 -51.666 -10.5 -78.999zM-35.0078 1325z" />
    <glyph glyph-name="quotesingle" unicode="'" horiz-adv-x="423" 
d="M269 885c0 -4 -0.832031 -7.83301 -2.49902 -11.5s-4.5 -6.5 -8.5 -8.5s-9.16699 -3.66699 -15.5 -5s-14.166 -2 -23.499 -2c-10 0 -18.167 0.666992 -24.5 2s-11.333 3 -15 5s-6.33398 4.83301 -8.00098 8.5s-2.5 7.5 -2.5 11.5l-25 497c0 4 1.66699 7.83301 5 11.5
s8 6.66699 14 9s13.667 4 23 5s20.333 1.5 33 1.5c13.333 0 24.666 -0.5 33.999 -1.5s17 -2.66699 23 -5s10.333 -5.33301 13 -9s4 -7.5 4 -11.5z" />
    <glyph glyph-name="parenleft" unicode="(" horiz-adv-x="833" 
d="M583 -286c-142 111.333 -255.501 249.333 -340.501 414s-126 329.334 -123 494.001s50 329.334 141 494.001s209.833 302.667 356.5 414h55c-258.667 -258.667 -390.667 -561.334 -396 -908.001c-2 -111.333 7.5 -215.333 28.5 -312s59.333 -196.334 115 -299.001
s128.834 -201.667 219.501 -297h-56z" />
    <glyph glyph-name="parenright" unicode=")" horiz-adv-x="853" 
d="M191 1536c142 -111.333 255.166 -249.332 339.499 -413.999s125.333 -329.334 123 -494.001s-49 -329.334 -140 -494.001s-209.5 -302.667 -355.5 -414h-58c258.667 259.333 391.334 562 398.001 908c2 111.333 -7.5 215.333 -28.5 312s-59.333 196.334 -115 299.001
s-128.5 201.667 -218.5 297h55z" />
    <glyph glyph-name="asterisk" unicode="*" horiz-adv-x="1049" 
d="M847 927c8 -4 11.833 -10.833 11.5 -20.5s-7.5 -26.167 -21.5 -49.5c-14 -24 -25 -38.333 -33 -43s-15.667 -4.66699 -23 0l-232 159l23 -280c1.33301 -9.33301 -2.5 -16.166 -11.5 -20.499s-27.167 -6.5 -54.5 -6.5s-45.5 2.16699 -54.5 6.5
s-12.833 11.166 -11.5 20.499l23 280l-231 -159c-7.33301 -4.66699 -15.166 -4.66699 -23.499 0s-19.5 19 -33.5 43c-14 23.333 -21 39.833 -21 49.5s4 16.5 12 20.5l255 121l-255 120c-8 4 -12 10.833 -12 20.5s7 26.167 21 49.5c14 24 25.167 38.333 33.5 43
s16.166 4.66699 23.499 0l231 -159l-23 280c-1.33301 9.33301 2.5 16.166 11.5 20.499s27.167 6.5 54.5 6.5s45.5 -2.16699 54.5 -6.5s12.833 -11.166 11.5 -20.499l-23 -280l232 159c7.33301 4.66699 15 4.66699 23 0s19 -19 33 -43c14 -23.333 21.167 -39.833 21.5 -49.5
s-3.5 -16.5 -11.5 -20.5l-255 -120z" />
    <glyph glyph-name="plus" unicode="+" horiz-adv-x="1260" 
d="M1066 577c0 -10.667 -1 -19.667 -3 -27s-4.66699 -13.666 -8 -18.999s-7.33301 -9.16602 -12 -11.499s-9.33398 -3.5 -14.001 -3.5h-355v-397c0 -4 -1 -7.66699 -3 -11s-5.5 -6.16602 -10.5 -8.49902s-11.167 -4.16602 -18.5 -5.49902s-16.666 -2 -27.999 -2
c-10.667 0 -19.834 0.666992 -27.501 2s-14 3.16602 -19 5.49902s-8.66699 5.16602 -11 8.49902s-3.5 7 -3.5 11v397h-354c-5.33301 0 -10.166 1.16699 -14.499 3.5s-8.16602 6.16602 -11.499 11.499s-6 11.666 -8 18.999s-3 16.333 -3 27c0 9.33301 1 17.666 3 24.999
s4.66699 13.333 8 18s7.16602 8.33398 11.499 11.001s9.16602 4 14.499 4h354v397c0 4.66699 1.16699 9 3.5 13s6 7.33301 11 10s11.333 4.66699 19 6s16.834 2 27.501 2c11.333 0 20.666 -0.666992 27.999 -2s13.5 -3.33301 18.5 -6s8.5 -6 10.5 -10s3 -8.33301 3 -13v-397
h355c4.66699 0 9.33398 -1.33301 14.001 -4s8.66699 -6.33398 12 -11.001s6 -10.667 8 -18s3 -15.666 3 -24.999z" />
    <glyph glyph-name="comma" unicode="," horiz-adv-x="574" 
d="M104.849 -276.713c69.2988 38.499 123.024 81.0225 161.174 127.572s57.9238 87.3242 59.3232 122.323c0 28 -9.09961 56.7002 -27.2998 86.0996c-18.8994 -21 -41.6494 -31.5 -68.249 -31.5c-27.999 0 -52.8486 10.5 -74.5488 31.5
c-21.7002 20.999 -32.5498 48.2988 -32.5498 81.8984c0.700195 39.8994 13.2998 69.8242 37.7998 89.7744c24.499 19.9502 52.499 29.9248 83.999 29.9248c41.999 0 82.7734 -21.875 122.323 -65.625c39.5498 -43.749 58.2744 -101.323 56.1748 -172.723
c-1.40039 -65.0986 -28 -129.147 -79.7998 -192.146c-51.7988 -62.999 -112.698 -106.398 -182.697 -130.198z" />
    <glyph glyph-name="hyphen" unicode="-" horiz-adv-x="696" 
d="M590 506c0 -20 -2.83203 -33.667 -8.49902 -41s-12.834 -11 -21.501 -11h-440c-9.33301 0 -17 3.83301 -23 11.5s-9 21.167 -9 40.5s3 32.833 9 40.5s13.667 11.5 23 11.5h440c4 0 7.83301 -0.833008 11.5 -2.5s7 -4.5 10 -8.5s5.16699 -9.33301 6.5 -16s2 -15 2 -25z
" />
    <glyph glyph-name="hyphen" unicode="&#xad;" horiz-adv-x="696" 
d="M590 506c0 -20 -2.83203 -33.667 -8.49902 -41s-12.834 -11 -21.501 -11h-440c-9.33301 0 -17 3.83301 -23 11.5s-9 21.167 -9 40.5s3 32.833 9 40.5s13.667 11.5 23 11.5h440c4 0 7.83301 -0.833008 11.5 -2.5s7 -4.5 10 -8.5s5.16699 -9.33301 6.5 -16s2 -15 2 -25z
" />
    <glyph glyph-name="period" unicode="." horiz-adv-x="699" 
d="M499 140c0 -19.333 -3.66699 -38 -11 -56s-18 -33.833 -32 -47.5s-29.833 -24.334 -47.5 -32.001s-36.5 -11.5 -56.5 -11.5c-19.333 0 -38.166 3.83301 -56.499 11.5s-34.166 18.334 -47.499 32.001s-23.833 29.5 -31.5 47.5s-11.5 36.667 -11.5 56
c0 20 3.83301 38.833 11.5 56.5s18.167 33.334 31.5 47.001s29.166 24.334 47.499 32.001s37.166 11.5 56.499 11.5c20 0 38.833 -3.83301 56.5 -11.5s33.5 -18.334 47.5 -32.001s24.667 -29.334 32 -47.001s11 -36.5 11 -56.5z" />
    <glyph glyph-name="slash" unicode="/" horiz-adv-x="814" 
d="M152 -273c-3.33301 -8.66699 -6.83203 -15.5 -10.499 -20.5s-8.16699 -8.83301 -13.5 -11.5s-11.666 -4.5 -18.999 -5.5s-16.166 -1.5 -26.499 -1.5s-19.666 1 -27.999 3s-14.833 5 -19.5 9s-7.5 8.83301 -8.5 14.5s0.166992 12.5 3.5 20.5l640 1730
c3.33301 8.66699 6.66602 15.5 9.99902 20.5s7.66602 8.83301 12.999 11.5s11.833 4.5 19.5 5.5s16.667 1.5 27 1.5s19.5 -1 27.5 -3s14.167 -5 18.5 -9s7.16602 -8.83301 8.49902 -14.5s0.666016 -12.5 -2.00098 -20.5z" />
    <glyph glyph-name="zero" unicode="0" horiz-adv-x="1056" 
d="M981 649c0 -102 -7.99902 -195.667 -23.999 -281s-42.833 -159 -80.5 -221s-86.667 -110.333 -147 -145s-135.166 -52 -224.499 -52c-82 0 -151.5 14.833 -208.5 44.5s-103.167 73.834 -138.5 132.501s-60.833 131.334 -76.5 218.001s-23.5 186.667 -23.5 300
c0 101.333 8 194.833 24 280.5s42.667 159.5 80 221.5s86.166 110.333 146.499 145s135.166 52 224.499 52c81.333 0 150.666 -14.833 207.999 -44.5s103.833 -73.834 139.5 -132.501s61.334 -131.334 77.001 -218.001s23.5 -186.667 23.5 -300zM847.001 638
c0 69.333 -2.66504 132.165 -7.99805 188.498s-13.666 106.5 -24.999 150.5s-25.5 82.167 -42.5 114.5s-37.667 59.333 -62 81s-51.833 37.5 -82.5 47.5s-65.334 15 -104.001 15c-69.333 0 -125.5 -16.333 -168.5 -49s-76.5 -75.834 -100.5 -129.501
s-40.333 -115.167 -49 -184.5s-13 -141.333 -13 -216c0 -103.333 6 -192.666 18 -267.999s31 -137.333 57 -186s59.333 -84.667 100 -108s90 -35 148 -35c46 0 86.167 7.33301 120.5 22s63.666 35.334 87.999 62.001s44.666 58.167 60.999 94.5s29 75.833 38 118.5
s15.333 87.834 19 135.501s5.5 96.5 5.5 146.5z" />
    <glyph glyph-name="one" unicode="1" horiz-adv-x="804" 
d="M513 -33l-129 0.00292969v1167l-100 -121c-5.33301 -5.33301 -14.666 -9.33301 -27.999 -12c-5.33301 -0.666992 -11 0.666016 -17 3.99902c-11.333 7.33301 -20 16 -26 26l-12 20c0 9.33301 0.333008 17 1 23c1.33301 11.333 2.66602 17.333 3.99902 18
c5.33301 2.66699 9 7.66699 11 15l9 8l167 209l8 4c3.33301 1.33301 7.5 2.66602 12.5 3.99902s10.333 2.16602 16 2.49902s12.167 0.5 19.5 0.5c12 0 22.167 -0.833008 30.5 -2.5s15 -3.5 20 -5.5s8.5 -4.66699 10.5 -8s3 -7.33301 3 -12v-1340z" />
    <glyph glyph-name="two" unicode="2" horiz-adv-x="1140" 
d="M926 26c0 -8.66699 -0.830078 -16.666 -2.49707 -23.999s-4 -13.5 -7 -18.5s-7 -9 -12 -12s-10.5 -4.5 -16.5 -4.5h-734c-6.66699 0 -12.834 1.16699 -18.501 3.5s-10.5 5.66602 -14.5 9.99902s-7 10.333 -9 18s-3 16.834 -3 27.501c0 9.33301 0.333008 17.5 1 24.5
s2 13.167 4 18.5s4.66699 10.833 8 16.5s8 11.834 14 18.501l278 294c69.333 72.667 124.5 137.667 165.5 195s72.333 109.166 94 155.499s35.834 88.333 42.501 126s10 73.334 10 107.001s-5.5 65.667 -16.5 96s-27 57 -48 80s-47 41.167 -78 54.5s-66.833 20 -107.5 20
c-44 0 -83.5 -6 -118.5 -18s-65.667 -25.5 -92 -40.5s-48.166 -28.667 -65.499 -41s-30.333 -18.5 -39 -18.5c-4 0 -7.83301 1 -11.5 3s-6.66699 5.33301 -9 10s-4 10.5 -5 17.5s-1.5 14.833 -1.5 23.5s0.333008 15.834 1 21.501s1.66699 10.667 3 15
s3.16602 8.66602 5.49902 12.999s7.66602 10 15.999 17s22 16.5 41 28.5s43.167 24.167 72.5 36.5s62 22.833 98 31.5s73 13 111 13c64 0 119.667 -9.5 167 -28.5s86.666 -44.667 117.999 -77s54.666 -69.666 69.999 -111.999s23 -86.833 23 -133.5
c0 -43.333 -3.66699 -86.5 -11 -129.5s-23 -89.833 -47 -140.5s-59 -106.834 -105 -168.501s-107 -132.834 -183 -213.501l-248 -259h622c5.33301 0 10.5 -1.33301 15.5 -4s9.16699 -6.33398 12.5 -11.001s5.83301 -10.5 7.5 -17.5s2.5 -14.833 2.5 -23.5z" />
    <glyph glyph-name="three" unicode="3" horiz-adv-x="1096" 
d="M914 351c0 -58.667 -9.66699 -112.495 -29 -161.495s-48 -91.333 -86 -127s-85.333 -63.334 -142 -83.001s-122 -29.5 -196 -29.5c-44.667 0 -86.667 3.83301 -126 11.5s-74.166 16.667 -104.499 27s-55.666 21.166 -75.999 32.499s-33 19.166 -38 23.499
s-8.66699 8.5 -11 12.5s-4.33301 8.66699 -6 14s-3.16699 12 -4.5 20s-2 17.667 -2 29c0 20.667 2.33301 34.834 7 42.501s11 11.5 19 11.5c6 0 18.667 -5.83301 38 -17.5s44.166 -24.5 74.499 -38.5s65.666 -27 105.999 -39s84.833 -18 133.5 -18
c50.667 0 94.834 6.66699 132.501 20s69.5 32 95.5 56s45.5 52.667 58.5 86s19.5 69.666 19.5 108.999c0 42 -8.33301 80 -25 114s-40.834 63.167 -72.501 87.5s-70.167 43.166 -115.5 56.499s-96.333 20 -153 20h-135c-4 0 -8.33301 1.16699 -13 3.5
s-8.83398 5.66602 -12.501 9.99902s-6.83398 10 -9.50098 17s-4 15.833 -4 26.5c0 9.33301 1.16699 17.333 3.5 24s5.16602 12.167 8.49902 16.5s7.33301 7.5 12 9.5s9.66699 3 15 3h119c48.667 0 92.834 6.66699 132.501 20s73.5 32.5 101.5 57.5s49.5 54.833 64.5 89.5
s22.5 73.334 22.5 116.001c0 31.333 -5 61 -15 89s-25 52.5 -45 73.5s-45.333 37.5 -76 49.5s-66 18 -106 18c-42.667 0 -81.5 -6.33301 -116.5 -19s-66 -26.5 -93 -41.5s-49.167 -28.833 -66.5 -41.5s-29.333 -19 -36 -19c-4.66699 0 -8.66699 0.666992 -12 2
s-6.16602 4.16602 -8.49902 8.49902s-4.16602 10.166 -5.49902 17.499s-2 17 -2 29c0 7.33301 0.5 14 1.5 20s2.5 11.5 4.5 16.5s4.33301 9.83301 7 14.5s7.16699 10.167 13.5 16.5s19.333 15.666 39 27.999s43.667 24.5 72 36.5s60.666 22.167 96.999 30.5
s75.166 12.5 116.499 12.5c62.667 0 116.834 -8.33301 162.501 -25s83.5 -39.667 113.5 -69s52.5 -64.166 67.5 -104.499s22.5 -84.166 22.5 -131.499c0 -43.333 -5.83301 -83.666 -17.5 -120.999s-28.667 -70.5 -51 -99.5s-49.833 -53.333 -82.5 -73
s-70 -32.834 -112 -39.501v-3c46.667 -4 89.834 -15 129.501 -33s74 -41.333 103 -70s51.833 -62.167 68.5 -100.5s25 -79.5 25 -123.5z" />
    <glyph glyph-name="four" unicode="4" horiz-adv-x="1076" 
d="M993 351c0 -16 -3.33301 -29.1689 -10 -39.502s-16.334 -15.5 -29.001 -15.5h-172v-307c0 -4.66699 -1 -8.66699 -3 -12s-5.5 -6 -10.5 -8s-11.5 -3.83301 -19.5 -5.5s-18.333 -2.5 -31 -2.5c-12 0 -22 0.833008 -30 2.5s-14.5 3.5 -19.5 5.5s-8.33301 4.66699 -10 8
s-2.5 7.33301 -2.5 12v307h-584c-6 0 -11.5 1 -16.5 3s-9.5 5 -13.5 9s-6.83301 9.5 -8.5 16.5s-2.5 15.833 -2.5 26.5c0 9.33301 0.333008 17.5 1 24.5s1.83398 13.5 3.50098 19.5s4.16699 12 7.5 18l11 20l526 870c4 5.33301 8.5 9.83301 13.5 13.5
s11.5 6.83398 19.5 9.50098s17.667 4.5 29 5.5s24.333 1.5 39 1.5c16 0 30.333 -0.833008 43 -2.5s23.167 -3.66699 31.5 -6s14.833 -5.66602 19.5 -9.99902s7 -8.83301 7 -13.5v-895h172c12 0 21.5 -4.66699 28.5 -14s10.5 -23 10.5 -41zM656 1217h-2l-488 -811h490v811z
" />
    <glyph glyph-name="five" unicode="5" horiz-adv-x="1038" 
d="M923 402c0 -72 -11.8311 -135.999 -35.498 -191.999s-57.334 -103.333 -101.001 -142s-95.667 -68 -156 -88s-126.833 -30 -199.5 -30c-42 0 -82 3.33301 -120 10s-71.667 14.334 -101 23.001s-53.333 17.5 -72 26.5s-30.334 15.667 -35.001 20s-8 8.16602 -10 11.499
s-3.66699 7.16602 -5 11.499s-2.33301 9.83301 -3 16.5s-1 14.667 -1 24c0 8.66699 0.5 16.5 1.5 23.5s2.83301 12.833 5.5 17.5s5.66699 8.33398 9 11.001s7 4 11 4c7.33301 0 18.5 -4.66699 33.5 -14s35.5 -19.333 61.5 -30s58 -20.5 96 -29.5s83.333 -13.5 136 -13.5
c49.333 0 95.5 6 138.5 18s80.167 31.333 111.5 58s56 60.5 74 101.5s27 90.5 27 148.5c0 49.333 -7.83301 92.333 -23.5 129s-39.167 67.167 -70.5 91.5s-71 42.5 -119 54.5s-104.333 18 -169 18c-44 0 -80.833 -2.33301 -110.5 -7s-57.167 -7 -82.5 -7
c-18 0 -31.167 4.5 -39.5 13.5s-12.5 25.833 -12.5 50.5v534c0 19.333 5.33301 34.5 16 45.5s25.334 16.5 44.001 16.5h578c6 0 11.333 -1.33301 16 -4s8.83398 -6.33398 12.501 -11.001s6.33398 -10.5 8.00098 -17.5s2.5 -15.167 2.5 -24.5c0 -16 -3.33301 -29.667 -10 -41
s-16.334 -17 -29.001 -17h-520v-430c24.667 3.33301 50.167 5.33301 76.5 6s58.166 1 95.499 1c79.333 0 148.666 -9.66699 207.999 -29s108.333 -46 147 -80s67.667 -74.833 87 -122.5s29 -99.5 29 -155.5z" />
    <glyph glyph-name="six" unicode="6" horiz-adv-x="1074" 
d="M968 400c0 -54.667 -8.49902 -108.84 -25.499 -162.507s-43.667 -101.667 -80 -144s-83 -76.833 -140 -103.5s-125.833 -40 -206.5 -40c-53.333 0 -100.666 6.83301 -141.999 20.5s-77.5 33.167 -108.5 58.5s-57 56.833 -78 94.5s-38.167 80.667 -51.5 129
s-23 101.333 -29 159s-9 120.167 -9 187.5c0 60 3.5 120.333 10.5 181s19 118.5 36 173.5s39.333 106.167 67 153.5s62.167 88.333 103.5 123s90 62 146 82s120.667 30 194 30c26 0 51.833 -1.5 77.5 -4.5s49.667 -7 72 -12s41 -10.667 56 -17s24.833 -11.333 29.5 -15
s8.16699 -7.5 10.5 -11.5s4.16602 -8.16699 5.49902 -12.5s2.33301 -9 3 -14s1 -11.167 1 -18.5s-0.166992 -14.166 -0.5 -20.499s-1.33301 -11.666 -3 -15.999s-4.33398 -7.66602 -8.00098 -9.99902s-8.16699 -3.5 -13.5 -3.5c-8 0 -18.5 2.33301 -31.5 7l-48 16.5
c-19 6.33301 -42.167 12 -69.5 17s-59.666 7.5 -96.999 7.5c-70.667 0 -131.334 -14.667 -182.001 -44s-92.5 -68.833 -125.5 -118.5s-57.5 -107.167 -73.5 -172.5s-25 -133.666 -27 -204.999c19.333 11.333 41 22.666 65 33.999s50.5 21.333 79.5 30
s59.5 15.834 91.5 21.501s66 8.5 102 8.5c76 0 139.5 -10.167 190.5 -30.5s92 -48.166 123 -83.499s53 -76.666 66 -123.999s19.5 -97.666 19.5 -150.999zM833.001 387.994c0 44 -4.5 84.167 -13.5 120.5s-24.333 67.5 -46 93.5s-50.5 46.167 -86.5 60.5
s-80.667 21.5 -134 21.5c-29.333 0 -58.833 -2.66699 -88.5 -8s-58.334 -12.5 -86.001 -21.5s-54 -19.667 -79 -32s-47.167 -25.5 -66.5 -39.5c0 -98 6.5 -180.5 19.5 -247.5s32 -120.833 57 -161.5s56.333 -70 94 -88s81.167 -27 130.5 -27c52 0 96.833 10 134.5 30
s68.834 45.833 93.501 77.5s42.667 67 54 106s17 77.5 17 115.5z" />
    <glyph glyph-name="seven" unicode="7" horiz-adv-x="1080" 
d="M957 1270c0 -8.66699 -0.329102 -16.6699 -0.996094 -24.0029s-1.83398 -14.666 -3.50098 -21.999s-3.66699 -14.666 -6 -21.999s-5.16602 -15.333 -8.49902 -24l-513 -1177c-3.33301 -8 -7 -14.667 -11 -20s-9.16699 -9.33301 -15.5 -12s-14.166 -4.5 -23.499 -5.5
s-20.666 -1.5 -33.999 -1.5c-16 0 -28.333 1 -37 3s-14.834 5 -18.501 9s-4.83398 8.83301 -3.50098 14.5s3.66602 12.5 6.99902 20.5l533 1203h-696c-12.667 0 -22.334 5.66699 -29.001 17s-10 25 -10 41c0 8.66699 1 16.5 3 23.5s4.66699 13 8 18s7.33301 8.66699 12 11
s10 3.5 16 3.5h782c9.33301 0 17.166 -1 23.499 -3s11.166 -5.33301 14.499 -10s6 -10.667 8 -18s3 -15.666 3 -24.999z" />
    <glyph glyph-name="eight" unicode="8" horiz-adv-x="1080" 
d="M963 308c0 -57.333 -10.3281 -108.34 -30.9951 -153.007s-50.334 -82.167 -89.001 -112.5s-86 -53.333 -142 -69s-119.667 -23.5 -191 -23.5c-66.667 0 -127 7.16699 -181 21.5s-100 35.5 -138 63.5s-67.333 62.5 -88 103.5s-31 88.167 -31 141.5
c0 44.667 7.66699 85.334 23 122.001s37.166 70.334 65.499 101.001s63 59.167 104 85.5s87.167 51.833 138.5 76.5c-46 22 -86.333 45.667 -121 71s-63.667 52.333 -87 81s-41 59.334 -53 92.001s-18 67.334 -18 104.001c0 44.667 8.16699 86.834 24.5 126.501
s40.833 74.834 73.5 105.501s74.667 54.834 126 72.501s111.666 26.5 180.999 26.5c64.667 0 121 -8.16699 169 -24.5s87.833 -38.5 119.5 -66.5s55.167 -60.5 70.5 -97.5s23 -75.833 23 -116.5c0 -38 -6.33301 -74 -19 -108s-30.834 -66 -54.501 -96
s-52.834 -58.167 -87.501 -84.5s-74.667 -51.166 -120 -74.499c54 -25.333 101.833 -51.166 143.5 -77.499s76.5 -54.333 104.5 -84s49.167 -61.334 63.5 -95.001s21.5 -70.834 21.5 -111.501zM778.005 1024.99c0 32 -5.66797 61.168 -17.001 87.501
s-28.166 48.833 -50.499 67.5s-49.833 32.834 -82.5 42.501s-69.667 14.5 -111 14.5c-84.667 0 -149.167 -19 -193.5 -57s-66.5 -90.333 -66.5 -157c0 -30 5.33301 -58 16 -84s27 -50.667 49 -74s50 -46 84 -68s74.333 -44.667 121 -68
c80.667 39.333 142.667 83.666 186 132.999s65 103.666 65 162.999zM829.004 288.994c0 35.333 -6.66797 67.5 -20.001 96.5s-33.5 55.833 -60.5 80.5s-60.833 48.834 -101.5 72.501s-88 48.167 -142 73.5c-50 -24 -94 -47.833 -132 -71.5s-69.167 -48 -93.5 -73
s-42.666 -51.5 -54.999 -79.5s-18.5 -59.333 -18.5 -94c0 -74.667 26.5 -132.834 79.5 -174.501s131.5 -62.5 235.5 -62.5c100.667 0 177.167 20.833 229.5 62.5s78.5 98.167 78.5 169.5z" />
    <glyph glyph-name="nine" unicode="9" horiz-adv-x="1072" 
d="M941 695c0 -60 -3.83008 -120.334 -11.4971 -181.001s-20.334 -118.667 -38.001 -174s-40.834 -106.666 -69.501 -153.999s-64.167 -88.5 -106.5 -123.5s-92.166 -62.5 -149.499 -82.5s-123.333 -30 -198 -30c-30.667 0 -59.834 1.83301 -87.501 5.5
s-52.334 8.16699 -74.001 13.5s-39.667 11 -54 17s-24.666 11.833 -30.999 17.5s-11 13 -14 22s-4.5 20.833 -4.5 35.5c0 10.667 0.333008 19.167 1 25.5s2 11.333 4 15s4.66699 6.33398 8 8.00098s7.33301 2.5 12 2.5c7.33301 0 17.666 -2.83301 30.999 -8.5
s30.5 -11.667 51.5 -18s46 -12.333 75 -18s61.5 -8.5 97.5 -8.5c73.333 0 136.5 14.5 189.5 43.5s96.5 67.833 130.5 116.5s59.5 105.167 76.5 169.5s26.5 132.166 28.5 203.499c-39.333 -22 -86.666 -42 -141.999 -60s-119 -27 -191 -27c-78 0 -142.833 10.667 -194.5 32
s-93.167 50 -124.5 86s-53.5 78 -66.5 126s-19.5 99 -19.5 153c0 56 8.16699 110.5 24.5 163.5s42.166 100.167 77.499 141.5s81.166 74.5 137.499 99.5s124.5 37.5 204.5 37.5c53.333 0 100.833 -7.16699 142.5 -21.5s78.334 -34.833 110.001 -61.5s58.667 -59 81 -97
s40.333 -81.167 54 -129.5s23.667 -101 30 -158s9.5 -117.5 9.5 -181.5zM806.003 705.999c0 97.333 -6.82812 179.667 -20.4951 247s-33.5 122 -59.5 164s-58.333 72.5 -97 91.5s-82.667 28.5 -132 28.5c-52.667 0 -97.334 -9.66699 -134.001 -29
s-66.834 -44.5 -90.501 -75.5s-40.834 -65.833 -51.501 -104.5s-16 -76.667 -16 -114c0 -44 4.83301 -84.833 14.5 -122.5s25.667 -69.834 48 -96.501s51.666 -47.5 87.999 -62.5s81.166 -22.5 134.499 -22.5c60 0 117.667 8.83301 173 26.5s103 40.834 143 69.501z" />
    <glyph glyph-name="colon" unicode=":" horiz-adv-x="699" 
d="M499 732c0 -19.333 -3.66699 -37.833 -11 -55.5s-18 -33.167 -32 -46.5s-29.833 -24 -47.5 -32s-36.5 -12 -56.5 -12c-19.333 0 -38.166 4 -56.499 12s-34.166 18.667 -47.499 32s-23.833 28.833 -31.5 46.5s-11.5 36.167 -11.5 55.5c0 20.667 3.83301 39.667 11.5 57
s18.167 32.833 31.5 46.5s29.166 24.334 47.499 32.001s37.166 11.5 56.499 11.5c20 0 38.833 -3.83301 56.5 -11.5s33.5 -18.334 47.5 -32.001s24.667 -29.167 32 -46.5s11 -36.333 11 -57zM499 126c0 -20 -3.66699 -38.833 -11 -56.5s-18 -33.334 -32 -47.001
s-29.833 -24.334 -47.5 -32.001s-36.5 -11.5 -56.5 -11.5c-19.333 0 -38.166 3.83301 -56.499 11.5s-34.166 18.334 -47.499 32.001s-23.833 29.334 -31.5 47.001s-11.5 36.5 -11.5 56.5s3.83301 38.667 11.5 56s18.167 32.833 31.5 46.5s29.166 24.5 47.499 32.5
s37.166 12 56.499 12c20 0 38.833 -4 56.5 -12s33.5 -18.833 47.5 -32.5s24.667 -29.167 32 -46.5s11 -36 11 -56z" />
    <glyph glyph-name="semicolon" unicode=";" horiz-adv-x="699" 
d="M479 741c0 -20 -3.83301 -38.832 -11.5 -56.499s-18 -33.167 -31 -46.5s-28.5 -23.833 -46.5 -31.5s-37 -11.5 -57 -11.5s-39 3.83301 -57 11.5s-33.667 18.167 -47 31.5s-23.833 28.833 -31.5 46.5s-11.5 36.5 -11.5 56.5s3.83301 39 11.5 57s18.167 33.667 31.5 47
s29 23.833 47 31.5s37 11.5 57 11.5c41.333 0 76 -13.833 104 -41.5s42 -62.834 42 -105.501zM518 -37.999c0 -75.333 -21.5 -141.503 -64.5 -198.503s-99.167 -99.167 -168.5 -126.5l-35 77c123.333 52.667 185 133.334 185 242.001c0 28 -6.33301 59.333 -19 94
c-19.333 -42 -58 -63 -116 -63c-20 0 -39 3.83301 -57 11.5s-33.667 18.167 -47 31.5s-23.833 29 -31.5 47s-11.5 37 -11.5 57s3.83301 38.833 11.5 56.5s18.167 33.334 31.5 47.001s29 24.334 47 32.001s37 11.5 57 11.5c28.667 0 56.167 -9.5 82.5 -28.5
s49.5 -44 69.5 -75s36 -65.5 48 -103.5s18 -75.333 18 -112z" />
    <glyph glyph-name="less" unicode="&#x3c;" horiz-adv-x="1014" 
d="M942 135c0 -14 -0.499023 -25.167 -1.49902 -33.5s-2.83301 -14.333 -5.5 -18s-6.16699 -5.16699 -10.5 -4.5s-9.83301 3 -16.5 7l-839 426c-6 3.33301 -11 10.5 -15 21.5s-6 25.5 -6 43.5c0 8.66699 0.666992 16.667 2 24s3 13.5 5 18.5s4.66699 9.5 8 13.5
s6.66602 6.66699 9.99902 8l835 424c14 7.33301 23.167 8.16602 27.5 2.49902s6.5 -22.5 6.5 -50.5c0 -15.333 -0.333008 -27.666 -1 -36.999s-2.16699 -17 -4.5 -23s-5.83301 -10.833 -10.5 -14.5s-10.667 -7.5 -18 -11.5l-716 -358l716 -353
c7.33301 -4 13.333 -7.83301 18 -11.5s8.16699 -8.5 10.5 -14.5s3.83301 -13.667 4.5 -23s1 -21.333 1 -36z" />
    <glyph glyph-name="equal" unicode="=" horiz-adv-x="1046" 
d="M940 775c0 -22 -4 -37.167 -12 -45.5s-15.667 -12.5 -23 -12.5h-791c-7.33301 0 -14.833 4.16699 -22.5 12.5s-11.5 23.5 -11.5 45.5c0 20.667 3.16699 35.834 9.5 45.501s14.5 14.5 24.5 14.5h791c10 0 18.333 -4.83301 25 -14.5s10 -24.834 10 -45.501zM940 376
c0 -22 -4 -37.167 -12 -45.5s-15.667 -12.5 -23 -12.5h-791c-7.33301 0 -14.833 4.16699 -22.5 12.5s-11.5 23.5 -11.5 45.5c0 20.667 3.16699 35.834 9.5 45.501s14.5 14.5 24.5 14.5h791c10 0 18.333 -4.83301 25 -14.5s10 -24.834 10 -45.501z" />
    <glyph glyph-name="greater" unicode="&#x3e;" horiz-adv-x="1014" 
d="M98 135c0 -14 0.499023 -25.167 1.49902 -33.5s2.83301 -14.333 5.5 -18s6.16699 -5.16699 10.5 -4.5s9.83301 3 16.5 7l839 426c6 3.33301 11 10.5 15 21.5s6 25.5 6 43.5c0 8.66699 -0.666992 16.667 -2 24s-3 13.5 -5 18.5s-4.66699 9.5 -8 13.5
s-6.66602 6.66699 -9.99902 8l-835 424c-14 7.33301 -23.167 8.16602 -27.5 2.49902s-6.5 -22.5 -6.5 -50.5c0 -15.333 0.333008 -27.666 1 -36.999s2.16699 -17 4.5 -23s5.83301 -10.833 10.5 -14.5s10.667 -7.5 18 -11.5l716 -358l-716 -353
c-7.33301 -4 -13.333 -7.83301 -18 -11.5s-8.16699 -8.5 -10.5 -14.5s-3.83301 -13.667 -4.5 -23s-1 -21.333 -1 -36z" />
    <glyph glyph-name="question" unicode="?" horiz-adv-x="888" 
d="M223 75c2.66699 39.333 16.665 73.5 41.998 102.5s54 43.5 86 43.5c30.667 0 55.834 -14 75.501 -42s28.167 -62.667 25.5 -104s-16.5 -76 -41.5 -104s-52.5 -42 -82.5 -42c-32 0 -58.167 14.5 -78.5 43.5s-29.166 63.167 -26.499 102.5zM272.998 366
c-40.667 78 -58.6641 145 -53.9971 201c2.66699 54 19.334 101.667 50.001 143s100 107.333 208 198c52.667 44 94 91.833 124 143.5s47.333 99.167 52 142.5c3.33301 59.333 -9.83398 107.166 -39.501 143.499s-71.5 54.5 -125.5 54.5c-96 0 -157.667 -50.667 -185 -152
c76.667 0 112.667 -39 108 -117c-3.33301 -37.333 -17.833 -70 -43.5 -98s-51.5 -42 -77.5 -42c-42 0 -74.167 17.5 -96.5 52.5s-30.833 83.5 -25.5 145.5c6 91.333 37.167 165.833 93.5 223.5s126.166 86.5 209.499 86.5c87.333 0 154.166 -35.167 200.499 -105.5
s65.166 -156.833 56.499 -259.5c-5.33301 -75.333 -21.333 -140.166 -48 -194.499s-71.667 -111.833 -135 -172.5c-146 -140.667 -221.333 -231.667 -226 -273c0 -12 1 -23.667 3 -35l3 -28c0.666992 -6.66699 4.33398 -16.334 11.001 -29.001s11.667 -21.667 15 -27
s9.66602 -16.166 18.999 -32.499l20 -34.5z" />
    <glyph glyph-name="at" unicode="@" horiz-adv-x="1850" 
d="M1662 779c0 -44.667 -2.67188 -91.333 -8.00488 -140s-14.166 -96 -26.499 -142s-28.5 -89.833 -48.5 -131.5s-44.833 -78.334 -74.5 -110.001s-64.5 -56.5 -104.5 -74.5s-85.667 -27 -137 -27c-25.333 0 -49.333 3.33301 -72 10s-43 16.334 -61 29.001
s-33.167 29 -45.5 49s-20.5 43.333 -24.5 70c-28 -28.667 -55.167 -53 -81.5 -73s-52 -36.333 -77 -49s-49.333 -21.834 -73 -27.501s-46.167 -8.5 -67.5 -8.5c-28 0 -53.167 2.5 -75.5 7.5s-42.333 12.667 -60 23s-32.834 23.166 -45.501 38.499s-23.167 33.333 -31.5 54
s-14.333 43.834 -18 69.501s-5.5 53.834 -5.5 84.501c0 28.667 2.16699 62 6.5 100s12 77.5 23 118.5s25.833 81.333 44.5 121s42.5 75 71.5 106s63.167 56.167 102.5 75.5s85.666 29 138.999 29c22.667 0 44.334 -2.83301 65.001 -8.5s40.334 -14.167 59.001 -25.5
s36.834 -25.5 54.501 -42.5s34.834 -36.5 51.501 -58.5l19 98c2 9.33301 6.83301 15.833 14.5 19.5s21.834 5.5 42.501 5.5c9.33301 0 17.333 -0.5 24 -1.5s12 -2.5 16 -4.5s6.66699 -4.5 8 -7.5s1.66602 -6.83301 0.999023 -11.5l-96 -490
c-12.667 -66 -9.33398 -114.833 9.99902 -146.5s55 -47.5 107 -47.5c30.667 0 58.5 7.5 83.5 22.5s46.667 35.167 65 60.5s34 55 47 89s23.5 70.167 31.5 108.5s14 77.5 18 117.5s6 79 6 117c0 63.333 -8.66699 123.666 -26 180.999s-46 107.833 -86 151.5
s-93.667 78.667 -161 105s-151.333 39.5 -252 39.5c-90.667 0 -170.167 -10.333 -238.5 -31s-128.166 -48.334 -179.499 -83.001s-94.666 -74.5 -129.999 -119.5s-64.5 -92.333 -87.5 -142s-41 -99.667 -54 -150s-22.5 -97.666 -28.5 -141.999s-9.66699 -84.333 -11 -120
s-2 -63.5 -2 -83.5c0 -78 9.33301 -150.5 28 -217.5s50.667 -125.167 96 -174.5s106.666 -88 183.999 -116s174.666 -42 291.999 -42c49.333 0 93.833 2.83301 133.5 8.5s74 11.667 103 18s52.5 12.333 70.5 18s30 8.5 36 8.5c4 0 7.5 -1.16699 10.5 -3.5
s5.16699 -5.5 6.5 -9.5s2.33301 -9.16699 3 -15.5s1 -13.833 1 -22.5c0 -6 -0.166992 -11.167 -0.5 -15.5s-1 -8.33301 -2 -12s-2.66699 -7.5 -5 -11.5s-5.5 -7.5 -9.5 -10.5s-15.5 -7.83301 -34.5 -14.5s-44.5 -13.334 -76.5 -20.001s-70 -12.5 -114 -17.5
s-91.667 -7.5 -143 -7.5c-130.667 0 -240.334 15.667 -329.001 47s-160.667 75.5 -216 132.5s-95.166 125.333 -119.499 205s-36.5 168.167 -36.5 265.5c0 24.667 1 57.5 3 98.5s6.83301 86.833 14.5 137.5s19.334 104.167 35.001 160.5s37.334 112.166 65.001 167.499
s62.5 108.333 104.5 159s93.167 95.334 153.5 134.001s130.833 69.334 211.5 92.001s174 34 280 34c106.667 0 199.834 -13.5 279.501 -40.5s145.667 -65.333 198 -115s91.5 -110.167 117.5 -181.5s39 -151.666 39 -240.999zM1105 726.001
c-29.333 48.667 -59.3379 85.833 -90.0049 111.5s-65.667 38.5 -105 38.5c-32.667 0 -62 -7.66699 -88 -23s-48.667 -35.5 -68 -60.5s-35.666 -53.167 -48.999 -84.5s-24.166 -63.333 -32.499 -96s-14.166 -64.334 -17.499 -95.001s-5 -57.667 -5 -81
c0 -56.667 10.167 -100 30.5 -130s54.833 -45 103.5 -45c18 0 36.667 3.16699 56 9.5s39.833 16.333 61.5 30s44.834 31.334 69.501 53.001s51.334 47.5 80.001 77.5zM-46.0098 1332z" />
    <glyph glyph-name="A" unicode="A" horiz-adv-x="1161" 
d="M1135 11c4 -10.667 6.00293 -19.666 6.00293 -26.999c-0.666992 -2.66699 -1.5 -5.16699 -2.5 -7.5s-3.16699 -4.5 -6.5 -6.5c-4 -4 -10.667 -6.5 -20 -7.5s-21.333 -1.5 -36 -1.5s-26.5 0.5 -35.5 1.5s-15.833 2.66699 -20.5 5s-8.33398 5.16602 -11.001 8.49902
s-5 7.66602 -7 12.999l-130 362h-596l-125 -360c-1.33301 -5.33301 -3.5 -9.66602 -6.5 -12.999s-7 -6.16602 -12 -8.49902s-11.833 -4.33301 -20.5 -6s-19.667 -2.5 -33 -2.5c-14.667 0 -26.834 0.833008 -36.501 2.5s-16.834 4.16699 -21.501 7.5
s-7.16699 8.16602 -7.5 14.499s1.5 14.833 5.5 25.5l476 1292c2 6 5.16699 10.833 9.5 14.5s9.83301 6.66699 16.5 9s14.667 4 24 5s20 1.5 32 1.5c12.667 0 23.667 -0.5 33 -1.5s17.333 -2.66699 24 -5s12 -5.33301 16 -9s7 -8.5 9 -14.5zM571.003 1189h-1l-257 -731h520z
" />
    <glyph glyph-name="B" unicode="B" horiz-adv-x="1173" 
d="M1016 348c0 -40 -4.66699 -77.168 -14 -111.501s-22.833 -65.5 -40.5 -93.5s-39 -52.833 -64 -74.5s-53.5 -40 -85.5 -55s-66.5 -26.333 -103.5 -34s-80.167 -11.5 -129.5 -11.5h-351c-12.667 0 -25.667 4.66699 -39 14s-20 26.666 -20 51.999v1226
c0 25.333 6.66699 42.666 20 51.999s26.333 14 39 14h292c78.667 0 142.5 -8 191.5 -24s89.5 -38.833 121.5 -68.5s55.833 -65.667 71.5 -108s23.5 -89.5 23.5 -141.5c0 -32 -3.66699 -62.667 -11 -92s-18.333 -56.666 -33 -81.999s-33 -48.166 -55 -68.499
s-48 -37.5 -78 -51.5c36 -6.66699 70.167 -19.667 102.5 -39s60.5 -43.666 84.5 -72.999s43 -63.5 57 -102.5s21 -81.5 21 -127.5zM791 975.999c0 35.333 -4.83301 67.501 -14.5 96.501s-25.167 53.833 -46.5 74.5s-49.166 36.667 -83.499 48s-80.166 17 -137.499 17h-212
v-487h233c51.333 0 92.666 6.83301 123.999 20.5s57.166 32 77.499 55s35.333 49.667 45 80s14.5 62.166 14.5 95.499zM880 337c0 44.667 -7.16504 84.168 -21.498 118.501s-35.333 63.166 -63 86.499s-61.834 40.833 -102.501 52.5s-91 17.5 -151 17.5h-245v-530h296
c43.333 0 81.666 5.5 114.999 16.5s62.833 27.167 88.5 48.5s46 47.833 61 79.5s22.5 68.5 22.5 110.5z" />
    <glyph glyph-name="C" unicode="C" horiz-adv-x="1225" 
d="M1059 152c0 -7.33301 -0.335938 -14.1641 -1.00293 -20.4971s-1.66699 -12 -3 -17s-3.16602 -9.5 -5.49902 -13.5s-6.83301 -9.33301 -13.5 -16s-21.334 -17.5 -44.001 -32.5s-50.834 -29.833 -84.501 -44.5s-72.667 -27.334 -117 -38.001s-93.166 -16 -146.499 -16
c-85.333 0 -162.666 14.833 -231.999 44.5s-128.166 73.167 -176.499 130.5s-85.666 128 -111.999 212s-39.5 180 -39.5 288c0 110.667 14 210 42 298s67.333 162.5 118 223.5s111.5 107.833 182.5 140.5s149.5 49 235.5 49c40.667 0 80.167 -3.83301 118.5 -11.5
s73.5 -17.5 105.5 -29.5s60.833 -25.667 86.5 -41s43.167 -27.666 52.5 -36.999s15.333 -16.166 18 -20.499s4.66699 -9.16602 6 -14.499s2.33301 -11.333 3 -18s1 -14 1 -22c0 -10 -0.5 -18.667 -1.5 -26s-2.83301 -13.666 -5.5 -18.999s-5.66699 -9.33301 -9 -12
s-7.33301 -4 -12 -4c-10 0 -24 7.16699 -42 21.5s-41.5 30.166 -70.5 47.499s-64.5 33.166 -106.5 47.499s-92 21.5 -150 21.5c-64 0 -122.5 -12.667 -175.5 -38s-98.667 -62.833 -137 -112.5s-68.166 -111 -89.499 -184s-32 -156.5 -32 -250.5
c0 -90.667 9.83301 -171 29.5 -241s48 -129 85 -177s82.833 -84.5 137.5 -109.5s116.667 -37.5 186 -37.5c56.667 0 106.167 7.16699 148.5 21.5s78.666 30.166 108.999 47.499s55 33.166 74 47.499s33.833 21.5 44.5 21.5c4 0 7.5 -0.833008 10.5 -2.5
s5.33301 -4.83398 7 -9.50098s3 -10.834 4 -18.501s1.5 -17.167 1.5 -28.5z" />
    <glyph glyph-name="D" unicode="D" horiz-adv-x="1327" 
d="M1164 667c0 -114 -14.332 -214.665 -42.999 -301.998s-71 -160.333 -127 -219s-125.167 -103 -207.5 -133s-180.5 -45 -294.5 -45h-268c-12.667 0 -25.667 4.66699 -39 14s-20 26.666 -20 51.999v1226c0 25.333 6.66699 42.666 20 51.999s26.333 14 39 14h286
c115.333 0 212.666 -15.667 291.999 -47s145.833 -75.833 199.5 -133.5s94.167 -127 121.5 -208s41 -171.167 41 -270.5zM1026 661.002c0 78.667 -9.99805 151.832 -29.998 219.499s-50.833 126 -92.5 175s-94.334 87.333 -158.001 115s-144.834 41.5 -243.501 41.5h-209
v-1130h210c92.667 0 171 11.333 235 34s117.333 57.834 160 105.501s74.667 107.667 96 180s32 158.833 32 259.5z" />
    <glyph glyph-name="E" unicode="E" horiz-adv-x="1089" 
d="M900 24c0 -8.66699 -0.666992 -16.498 -2 -23.498s-3.5 -13 -6.5 -18s-6.66699 -8.66699 -11 -11s-8.83301 -3.5 -13.5 -3.5h-637c-12 0 -24.667 4.66699 -38 14s-20 26.666 -20 51.999v1226c0 25.333 6.66699 42.666 20 51.999s26 14 38 14h627
c5.33301 0 10 -1.16699 14 -3.5s7.5 -6 10.5 -11s5.16699 -11.167 6.5 -18.5s2 -15.666 2 -24.999s-0.666992 -17.5 -2 -24.5s-3.5 -12.833 -6.5 -17.5s-6.5 -8.16699 -10.5 -10.5s-8.66699 -3.5 -14 -3.5h-557v-478h481c5.33301 0 10.166 -1.16699 14.499 -3.5
s7.83301 -5.83301 10.5 -10.5s4.66699 -10.667 6 -18s2 -16 2 -26c0 -8.66699 -0.666992 -16.334 -2 -23.001s-3.33301 -12.167 -6 -16.5s-6.16699 -7.5 -10.5 -9.5s-9.16602 -3 -14.499 -3h-481v-542h567c4.66699 0 9.16699 -1.16699 13.5 -3.5s8 -5.83301 11 -10.5
s5.16699 -10.667 6.5 -18s2 -16 2 -26z" />
    <glyph glyph-name="F" unicode="F" horiz-adv-x="1045" 
d="M860 1268c0 -9.33301 -0.666992 -17.5 -2 -24.5s-3.5 -12.833 -6.5 -17.5s-6.66699 -8.16699 -11 -10.5s-8.83301 -3.5 -13.5 -3.5h-526v-514h498c5.33301 0 10 -1 14 -3s7.66699 -5 11 -9s5.66602 -9.5 6.99902 -16.5s2 -15.833 2 -26.5
c0 -9.33301 -0.666992 -17.5 -2 -24.5s-3.66602 -12.667 -6.99902 -17s-7 -7.83301 -11 -10.5s-8.66699 -4 -14 -4h-498v-598c0 -4.66699 -1.16699 -8.66699 -3.5 -12s-5.83301 -6 -10.5 -8s-11 -3.66699 -19 -5s-18.333 -2 -31 -2c-12 0 -22.167 0.666992 -30.5 2
s-15 3 -20 5s-8.5 4.66699 -10.5 8s-3 7.33301 -3 12v1271c0 25.333 6.66699 42.666 20 51.999s26 14 38 14h596c4.66699 0 9.16699 -1.16699 13.5 -3.5s8 -6 11 -11s5.16699 -11.167 6.5 -18.5s2 -15.666 2 -24.999z" />
    <glyph glyph-name="G" unicode="G" horiz-adv-x="1329" 
d="M1151 1155c0 -8.66699 -0.832031 -16.9971 -2.49902 -24.9971s-3.66699 -14.5 -6 -19.5s-5.33301 -9 -9 -12s-7.83398 -4.5 -12.501 -4.5c-8 0 -21.667 7 -41 21s-45.166 29.333 -77.499 46s-71.333 32 -117 46s-100.167 21 -163.5 21c-80.667 0 -152.5 -15 -215.5 -45
s-116.167 -70.833 -159.5 -122.5s-76.333 -113 -99 -184s-34 -147.5 -34 -229.5c0 -92 13 -173.833 39 -245.5s61.833 -132.167 107.5 -181.5s100.167 -87 163.5 -113s132.666 -39 207.999 -39c48 0 96.833 6 146.5 18s96.167 30.333 139.5 55v440h-346
c-11.333 0 -19.833 4.83301 -25.5 14.5s-8.5 23.834 -8.5 42.501c0 9.33301 0.666992 17.666 2 24.999s3.5 13.333 6.5 18s6.5 8.16699 10.5 10.5s9 3.5 15 3.5h416c6 0 12.5 -1 19.5 -3s13.5 -5.5 19.5 -10.5s10.667 -11.833 14 -20.5s5 -19.334 5 -32.001v-505
c0 -16.667 -2.5 -31 -7.5 -43s-17 -23.333 -36 -34s-44.333 -22.5 -76 -35.5s-64.167 -23.833 -97.5 -32.5s-67 -15.334 -101 -20.001s-67.667 -7 -101 -7c-102.667 0 -194.334 16.667 -275.001 50s-148.834 80.166 -204.501 140.499s-98.334 132.333 -128.001 216
s-44.5 175.834 -44.5 276.501c0 106 16 202.5 48 289.5s76.833 161.333 134.5 223s126.834 109.5 207.501 143.5s169.667 51 267 51c48.667 0 94.834 -4.5 138.501 -13.5s83 -20 118 -33s64.833 -27 89.5 -42s41.334 -26.833 50.001 -35.5s14.667 -17.334 18 -26.001
s5 -21 5 -37z" />
    <glyph glyph-name="H" unicode="H" horiz-adv-x="1327" 
d="M1101 -11c0 -4.66699 -1 -8.66699 -3 -12s-5.5 -6 -10.5 -8s-11.667 -3.83301 -20 -5.5s-18.5 -2.5 -30.5 -2.5c-12.667 0 -23 0.833008 -31 2.5s-14.5 3.5 -19.5 5.5s-8.5 4.66699 -10.5 8s-3 7.33301 -3 12v633h-678v-633c0 -4.66699 -1 -8.66699 -3 -12
s-5.5 -6 -10.5 -8s-11.5 -3.83301 -19.5 -5.5s-18.333 -2.5 -31 -2.5c-12 0 -22.167 0.833008 -30.5 2.5s-15 3.5 -20 5.5s-8.5 4.66699 -10.5 8s-3 7.33301 -3 12v1316c0 4.66699 1 8.66699 3 12s5.5 6 10.5 8s11.667 3.83301 20 5.5s18.5 2.5 30.5 2.5
c12.667 0 23 -0.833008 31 -2.5s14.5 -3.5 19.5 -5.5s8.5 -4.66699 10.5 -8s3 -7.33301 3 -12v-569h678v569c0 4.66699 1 8.66699 3 12s5.5 6 10.5 8s11.5 3.83301 19.5 5.5s18.333 2.5 31 2.5c12 0 22.167 -0.833008 30.5 -2.5s15 -3.5 20 -5.5s8.5 -4.66699 10.5 -8
s3 -7.33301 3 -12v-1316z" />
    <glyph glyph-name="I" unicode="I" horiz-adv-x="511" 
d="M314 -11c0 -4.66699 -0.999023 -8.66699 -2.99902 -12s-5.5 -6 -10.5 -8s-11.5 -3.83301 -19.5 -5.5s-18.333 -2.5 -31 -2.5c-12 0 -22.167 0.833008 -30.5 2.5s-15 3.5 -20 5.5s-8.5 4.66699 -10.5 8s-3 7.33301 -3 12v1316c0 4.66699 1.16699 8.66699 3.5 12
s6.16602 6 11.499 8s12 3.83301 20 5.5s17.667 2.5 29 2.5c12.667 0 23 -0.833008 31 -2.5s14.5 -3.5 19.5 -5.5s8.5 -4.66699 10.5 -8s3 -7.33301 3 -12v-1316z" />
    <glyph glyph-name="J" unicode="J" horiz-adv-x="703" 
d="M465 291c0 -50 -4.3291 -95.999 -12.9961 -137.999s-23.834 -78.167 -45.501 -108.5s-50.334 -53.666 -86.001 -69.999s-80.167 -24.5 -133.5 -24.5c-18.667 0 -37.167 1.83301 -55.5 5.5s-35.166 8 -50.499 13s-28.833 10.5 -40.5 16.5s-19.334 11.167 -23.001 15.5
s-6.66699 8.16602 -9 11.499s-4.33301 7.5 -6 12.5s-2.83398 11 -3.50098 18s-1 15.5 -1 25.5s0.666992 18.5 2 25.5s3.16602 12.5 5.49902 16.5s5.33301 6.83301 9 8.5s7.83398 2.5 12.501 2.5c6 0 13.5 -3 22.5 -9s20 -12.333 33 -19s28.167 -12.834 45.5 -18.501
s37.666 -8.5 60.999 -8.5c26 0 48.167 3 66.5 9s33.5 18.167 45.5 36.5s21 43.5 27 75.5s9 73.667 9 125v994c0 4 1 7.66699 3 11s5.5 6.16602 10.5 8.49902s11.667 4.16602 20 5.49902s18.5 2 30.5 2s22.167 -0.666992 30.5 -2s15 -3.16602 20 -5.49902
s8.5 -5.16602 10.5 -8.49902s3 -7 3 -11v-1015z" />
    <glyph glyph-name="K" unicode="K" horiz-adv-x="1185" 
d="M997 -9c0 -5.33301 -0.833984 -9.66602 -2.50098 -12.999s-4.83398 -6.16602 -9.50098 -8.49902s-11.167 -4.33301 -19.5 -6s-19.166 -2.5 -32.499 -2.5c-12.667 0 -25.5 0.833008 -38.5 2.5s-23 4.66699 -30 9s-12.833 9.83301 -17.5 16.5l-550 697v-697
c0 -4.66699 -1 -8.66699 -3 -12s-5.5 -6 -10.5 -8s-11.5 -3.83301 -19.5 -5.5s-18.333 -2.5 -31 -2.5c-11.333 0 -21.333 0.833008 -30 2.5s-15.334 3.5 -20.001 5.5s-8.16699 4.66699 -10.5 8s-3.5 7.33301 -3.5 12v1316c0 4.66699 1.16699 8.66699 3.5 12
s5.83301 6 10.5 8s11.334 3.83301 20.001 5.5s18.667 2.5 30 2.5c12.667 0 23 -0.833008 31 -2.5s14.5 -3.5 19.5 -5.5s8.5 -4.66699 10.5 -8s3 -7.33301 3 -12v-617l526 617c4.66699 5.33301 9.33398 9.66602 14.001 12.999s10.167 6.16602 16.5 8.49902s13.833 4 22.5 5
s19.167 1.5 31.5 1.5s22.333 -0.833008 30 -2.5s13.834 -3.66699 18.501 -6s7.66699 -5 9 -8s2 -6.83301 2 -11.5c0 -7.33301 -1.83301 -14.5 -5.5 -21.5s-10.167 -15.5 -19.5 -25.5l-494 -566l528 -662c9.33301 -12.667 15.166 -21.5 17.499 -26.5s3.5 -9.16699 3.5 -12.5z
" />
    <glyph glyph-name="L" unicode="L" horiz-adv-x="879" 
d="M854 26.5c0 -9.66699 -0.666992 -18 -2 -25s-3.33301 -13.167 -6 -18.5s-6.16699 -9.16602 -10.5 -11.499s-9.16602 -3.5 -14.499 -3.5h-589c-12.667 0 -25.667 4.66699 -39 14s-20 26.666 -20 51.999v1271c0 4.66699 1 8.66699 3 12s5.5 6 10.5 8s11.667 3.66699 20 5
s18.5 2 30.5 2c12.667 0 23 -0.666992 31 -2s14.5 -3 19.5 -5s8.5 -4.66699 10.5 -8s3 -7.33301 3 -12v-1221h520c5.33301 0 10.166 -1.16699 14.499 -3.5s7.83301 -5.83301 10.5 -10.5s4.66699 -10.667 6 -18s2 -15.833 2 -25.5z" />
    <glyph glyph-name="M" unicode="M" horiz-adv-x="1791" 
d="M1575 -11c0 -4.66699 -1.16504 -8.66797 -3.49805 -12.001s-6 -6 -11 -8s-11.5 -3.66699 -19.5 -5s-18.333 -2 -31 -2c-11.333 0 -21.166 0.666992 -29.499 2s-15 3 -20 5s-8.5 4.66699 -10.5 8s-3 7.33301 -3 12v1225h-2l-535 -1233
c-1.33301 -2.66699 -3.33301 -5.16699 -6 -7.5s-6.5 -4.33301 -11.5 -6s-10.833 -3 -17.5 -4s-14.667 -1.5 -24 -1.5s-17.5 0.5 -24.5 1.5s-12.833 2.33301 -17.5 4s-8.33398 3.66699 -11.001 6s-4.33398 4.83301 -5.00098 7.5l-509 1233h-1v-1225
c0 -4.66699 -1 -8.66699 -3 -12s-5.66699 -6 -11 -8s-12 -3.66699 -20 -5s-18.667 -2 -32 -2c-12 0 -22 0.666992 -30 2s-14.5 3 -19.5 5s-8.33301 4.66699 -10 8s-2.5 7.33301 -2.5 12v1271c0 25.333 6.66699 42.666 20 51.999s26.333 14 39 14h69
c18 0 33.5 -1.83301 46.5 -5.5s24.667 -9.16699 35 -16.5s19 -16.333 26 -27s13.167 -22.667 18.5 -36l449 -1079h5l467 1075c7.33301 16.667 15 30.834 23 42.501s16.333 21 25 28s18.167 11.833 28.5 14.5s21.166 4 32.499 4h77c6 0 12.5 -1 19.5 -3
s13.333 -5.66699 19 -11s10.5 -12.166 14.5 -20.499s6 -18.833 6 -31.5v-1271z" />
    <glyph glyph-name="N" unicode="N" horiz-adv-x="1327" 
d="M1141 30c0 -12.667 -1.83203 -23.168 -5.49902 -31.501s-8.5 -15.166 -14.5 -20.499s-12.667 -9 -20 -11s-14.333 -3 -21 -3h-26c-14 0 -26.833 1.66699 -38.5 5s-22.834 9.33301 -33.501 18s-21.5 20.334 -32.5 35.001s-23.167 33.667 -36.5 57l-478 848l-72.5 128
l-68.5 128h-1c0.666992 -51.333 1 -103.666 1 -156.999v-157v-880c0 -4.66699 -1 -8.66699 -3 -12s-5.5 -6 -10.5 -8s-11.5 -3.83301 -19.5 -5.5s-18.333 -2.5 -31 -2.5c-12 0 -22.167 0.833008 -30.5 2.5s-15 3.5 -20 5.5s-8.5 4.66699 -10.5 8s-3 7.33301 -3 12v1271
c0 25.333 6.66699 42.666 20 51.999s26.333 14 39 14h52c16.667 0 30.667 -1.33301 42 -4s21.5 -7.33398 30.5 -14.001s17.833 -16.167 26.5 -28.5s18.334 -27.833 29.001 -46.5l367 -650l65 -117l60.5 -110l58.5 -106.5l57 -106.5h1c-0.666992 58.667 -1 120 -1 184v184
v790c0 4.66699 1 8.66699 3 12s5.5 6.16602 10.5 8.49902s11.5 4.16602 19.5 5.49902s18.333 2 31 2c11.333 0 21.166 -0.666992 29.499 -2s15 -3.16602 20 -5.49902s8.66699 -5.16602 11 -8.49902s3.5 -7.33301 3.5 -12v-1271z" />
    <glyph glyph-name="O" unicode="O" horiz-adv-x="1431" 
d="M1258 663c0 -108.667 -12.5 -206.997 -37.5 -294.997s-62.333 -162.833 -112 -224.5s-112.167 -109.334 -187.5 -143.001s-163.5 -50.5 -264.5 -50.5s-187.667 15.833 -260 47.5s-131.833 77.167 -178.5 136.5s-81 131.666 -103 216.999s-33 181.666 -33 288.999
c0 106 12.333 202.5 37 289.5s62 161 112 222s112.5 108.333 187.5 142s163.5 50.5 265.5 50.5c98.667 0 184 -15.667 256 -47s131.667 -76.5 179 -135.5s82.333 -130.5 105 -214.5s34 -178.667 34 -284zM1122 651.003c0 80.667 -7.66797 156.167 -23.001 226.5
s-40.333 131.5 -75 183.5s-80.667 93 -138 123s-128.333 45 -213 45c-84 0 -154.833 -15.667 -212.5 -47s-104.5 -73.166 -140.5 -125.499s-62 -113.5 -78 -183.5s-24 -144 -24 -222c0 -82.667 7.33301 -159.5 22 -230.5s39 -132.667 73 -185s79.833 -93.5 137.5 -123.5
s129.5 -45 215.5 -45c85.333 0 157 16 215 48s104.833 74.833 140.5 128.5s61.334 115.667 77.001 186s23.5 144.166 23.5 221.499z" />
    <glyph glyph-name="P" unicode="P" horiz-adv-x="1083" 
d="M953 937c0 -63.333 -10.667 -121.166 -32 -173.499s-52 -97.333 -92 -135s-88.667 -67 -146 -88s-126.666 -31.5 -207.999 -31.5h-177v-520c0 -4.66699 -1 -8.66699 -3 -12s-5.5 -6 -10.5 -8s-11.5 -3.66699 -19.5 -5s-18.333 -2 -31 -2
c-11.333 0 -21.333 0.666992 -30 2s-15.334 3 -20.001 5s-8.16699 4.66699 -10.5 8s-3.5 7.33301 -3.5 12v1271c0 25.333 6.66699 42.666 20 51.999s26.333 14 39 14h276c27.333 0 54 -1.16699 80 -3.5s56.333 -7.5 91 -15.5s70 -23 106 -45s66.667 -49 92 -81
s44.833 -68.5 58.5 -109.5s20.5 -85.833 20.5 -134.5zM817 925c0 59.333 -11.499 109.333 -34.499 150s-51.167 71 -84.5 91s-68 32.667 -104 38s-70 8 -102 8h-194v-590h185c60 0 109.833 7.5 149.5 22.5s73.167 35.833 100.5 62.5s48.166 58.667 62.499 96
s21.5 78 21.5 122z" />
    <glyph glyph-name="Q" unicode="Q" horiz-adv-x="1431" 
d="M1441 -143c0 -11.333 -0.830078 -20.998 -2.49707 -28.998s-4 -14.5 -7 -19.5s-6.33301 -8.5 -10 -10.5s-7.5 -3 -11.5 -3c-8.66699 0 -26.834 5.66699 -54.501 17s-61 27.5 -100 48.5s-81.833 46.667 -128.5 77s-93 65.833 -139 106.5
c-36 -24.667 -82 -45.834 -138 -63.501s-122 -26.5 -198 -26.5c-100.667 0 -187.334 15.833 -260.001 47.5s-132.167 77.167 -178.5 136.5s-80.5 131.666 -102.5 216.999s-33 181.333 -33 288s12.167 203.334 36.5 290.001s61.5 160.667 111.5 222
s112.667 108.833 188 142.5s163.666 50.5 264.999 50.5c95.333 0 178.833 -15.833 250.5 -47.5s131.5 -76.834 179.5 -135.501s84.167 -130 108.5 -214s36.5 -178.667 36.5 -284c0 -54 -3.16699 -106.667 -9.5 -158s-16.333 -100 -30 -146s-31.167 -89.167 -52.5 -129.5
s-46.666 -76.5 -75.999 -108.5c54 -46 101.667 -81.5 143 -106.5s75.333 -44.167 102 -57.5s47.167 -22.833 61.5 -28.5s24.666 -11.667 30.999 -18s10.833 -14 13.5 -23s4 -20.5 4 -34.5zM1117 655.002c0 80.667 -7.49707 156.169 -22.4971 226.502
s-39.833 131.5 -74.5 183.5s-80.667 92.833 -138 122.5s-128.333 44.5 -213 44.5c-84 0 -155 -15.5 -213 -46.5s-105 -72.667 -141 -125s-61.833 -113.5 -77.5 -183.5s-23.5 -144 -23.5 -222c0 -82.667 7.16699 -159.5 21.5 -230.5s38.666 -132.833 72.999 -185.5
s80.166 -93.834 137.499 -123.501s129 -44.5 215 -44.5c85.333 0 157.166 16 215.499 48s105.333 74.667 141 128s61.167 115.166 76.5 185.499s23 144.5 23 222.5z" />
    <glyph glyph-name="R" unicode="R" horiz-adv-x="1165" 
d="M1019 -9c0 -4.66699 -0.831055 -8.83496 -2.49805 -12.502s-5 -6.66699 -10 -9s-11.833 -4.16602 -20.5 -5.49902s-19.667 -2 -33 -2c-12 0 -22 0.5 -30 1.5s-14.833 3 -20.5 6s-10.167 7.16699 -13.5 12.5s-6.33301 12 -9 20l-127 330
c-15.333 37.333 -31.333 72.333 -48 105s-36.834 61.167 -60.501 85.5s-52.334 43.5 -86.001 57.5s-73.834 21 -120.501 21h-141v-612c0 -4.66699 -1 -8.66699 -3 -12s-5.5 -6 -10.5 -8s-11.5 -3.66699 -19.5 -5s-18.333 -2 -31 -2c-12 0 -22.167 0.666992 -30.5 2
s-15 3 -20 5s-8.5 4.66699 -10.5 8s-3 7.33301 -3 12v1271c0 25.333 6.66699 42.666 20 51.999s26.333 14 39 14h255c33.333 0 61 -0.833008 83 -2.5s42.333 -3.83398 61 -6.50098c51.333 -9.33301 96.333 -24.166 135 -44.499s70.5 -45.333 95.5 -75
s43.667 -63.167 56 -100.5s18.5 -77.666 18.5 -120.999c0 -44.667 -6.33301 -84.667 -19 -120s-30.5 -66.5 -53.5 -93.5s-50.667 -50.333 -83 -70s-67.5 -36.167 -105.5 -49.5c22.667 -10.667 43.334 -23.667 62.001 -39s35.834 -33.833 51.501 -55.5s30.5 -46.667 44.5 -75
s28 -60.166 42 -95.499l127 -317c9.33301 -24.667 15.166 -41.5 17.499 -50.5s3.5 -15.5 3.5 -19.5zM794.002 961.999c0 58 -13 107.169 -39 147.502s-69.667 69.166 -131 86.499c-20 6 -41.833 10.167 -65.5 12.5s-54.834 3.5 -93.501 3.5h-168v-499h195
c52.667 0 97.834 6.5 135.501 19.5s69 30.667 94 53s43.333 48.666 55 78.999s17.5 62.833 17.5 97.5z" />
    <glyph glyph-name="S" unicode="S" horiz-adv-x="909" 
d="M863 335c0 -60 -10.8359 -113.838 -32.5029 -161.505s-52.167 -88.167 -91.5 -121.5s-85.833 -58.666 -139.5 -75.999s-112.5 -26 -176.5 -26c-43.333 0 -84.166 4 -122.499 12s-72.666 17.667 -102.999 29s-55.833 22.666 -76.5 33.999s-34.834 21 -42.501 29
s-13.167 17.5 -16.5 28.5s-5 24.5 -5 40.5c0 12 0.666992 21.833 2 29.5s3.16602 14 5.49902 19s5.5 8.33301 9.5 10s8 2.5 12 2.5c10 0 23.833 -6.16699 41.5 -18.5s40.834 -25.666 69.501 -39.999s62.667 -27.666 102 -39.999s85.333 -18.5 138 -18.5
c42.667 0 81.834 5.83301 117.501 17.5s66.5 28.334 92.5 50.001s46.167 48.5 60.5 80.5s21.5 68.333 21.5 109c0 42 -9.16699 78 -27.5 108s-42.333 56.333 -72 79s-63.334 43.334 -101.001 62.001l-116 55.5c-39.667 18.333 -78.334 38.5 -116.001 60.5
s-71.5 47.5 -101.5 76.5s-54 63 -72 102s-27 85.5 -27 139.5c0 52.667 9.33301 99.834 28 141.501s45.167 77 79.5 106s75.5 51.167 123.5 66.5s100.667 23 158 23c28.667 0 57.667 -2.83301 87 -8.5s57.166 -12.834 83.499 -21.501s49.833 -18.334 70.5 -29.001
s34.334 -19.334 41.001 -26.001s10.834 -11.667 12.501 -15s3.33398 -7.5 5.00098 -12.5s2.83398 -10.667 3.50098 -17s1 -14.5 1 -24.5c0 -9.33301 -0.5 -17.666 -1.5 -24.999s-2.66699 -13.666 -5 -18.999s-5 -9.33301 -8 -12s-6.83301 -4 -11.5 -4
c-7.33301 0 -18.833 5 -34.5 15s-35.5 21.333 -59.5 34s-52.333 24.167 -85 34.5s-70 15.5 -112 15.5c-41.333 0 -77.5 -5.66699 -108.5 -17s-56.667 -26.666 -77 -45.999s-35.5 -41.833 -45.5 -67.5s-15 -52.834 -15 -81.501c0 -42 9 -78.167 27 -108.5
s42.167 -57 72.5 -80s64.5 -43.833 102.5 -62.5l116.5 -55.5c39.667 -18.333 78.5 -38.166 116.5 -59.499s72.167 -46.5 102.5 -75.5s54.5 -63 72.5 -102s27 -85.167 27 -138.5z" />
    <glyph glyph-name="T" unicode="T" horiz-adv-x="1021" 
d="M997 1268c0 -9.33301 -0.666992 -17.5 -2 -24.5s-3.5 -12.833 -6.5 -17.5s-6.5 -8.16699 -10.5 -10.5s-8.66699 -3.5 -14 -3.5h-405v-1223c0 -4.66699 -1 -8.66699 -3 -12s-5.5 -6 -10.5 -8s-11.667 -3.66699 -20 -5s-18.5 -2 -30.5 -2s-22.167 0.666992 -30.5 2
s-15 3 -20 5s-8.5 4.66699 -10.5 8s-3 7.33301 -3 12v1223h-405c-6 0 -10.833 1.16699 -14.5 3.5s-7 5.83301 -10 10.5s-5.16699 10.5 -6.5 17.5s-2 15.167 -2 24.5s0.666992 17.666 2 24.999s3.5 13.5 6.5 18.5s6.33301 8.66699 10 11s8.5 3.5 14.5 3.5h938
c5.33301 0 10 -1.16699 14 -3.5s7.5 -6 10.5 -11s5.16699 -11.167 6.5 -18.5s2 -15.666 2 -24.999z" />
    <glyph glyph-name="U" unicode="U" horiz-adv-x="1327" 
d="M1139 468c0 -82.667 -11.666 -156.168 -34.999 -220.501s-56.666 -118.666 -99.999 -162.999s-95.833 -77.833 -157.5 -100.5s-130.834 -34 -207.501 -34c-68.667 0 -132.334 10.833 -191.001 32.5s-109.167 53.667 -151.5 96s-75.166 94.833 -98.499 157.5
s-35 135 -35 217v853c0 4 1 7.66699 3 11s5.66699 6.16602 11 8.49902s11.833 4.16602 19.5 5.49902s17.834 2 30.501 2c12 0 22.167 -0.666992 30.5 -2s15 -3.16602 20 -5.49902s8.5 -5.16602 10.5 -8.49902s3 -7 3 -11v-832c0 -68 8.16699 -127.5 24.5 -178.5
s40.166 -93.5 71.499 -127.5s69.166 -59.5 113.499 -76.5s94.5 -25.5 150.5 -25.5c56.667 0 107.167 8.16699 151.5 24.5s82 41.333 113 75s54.667 75.5 71 125.5s24.5 108.667 24.5 176v839c0 4 1 7.66699 3 11s5.5 6.16602 10.5 8.49902s11.667 4.16602 20 5.49902
s18.5 2 30.5 2s22.167 -0.666992 30.5 -2s15 -3.16602 20 -5.49902s8.5 -5.16602 10.5 -8.49902s3 -7 3 -11v-838z" />
    <glyph glyph-name="V" unicode="V" horiz-adv-x="1143" 
d="M649 -9c-2 -6 -5.16992 -10.835 -9.50293 -14.502s-9.83301 -6.66699 -16.5 -9s-14.667 -4 -24 -5s-20 -1.5 -32 -1.5c-8.66699 0 -16.5 0.166992 -23.5 0.5s-13.167 1.16602 -18.5 2.49902s-10.166 2.66602 -14.499 3.99902s-8.33301 3 -12 5s-6.5 4.33301 -8.5 7
s-3.66699 6.33398 -5 11.001l-465 1292c-4 10.667 -5.83301 19.334 -5.5 26.001s2.83301 11.834 7.5 15.501s12 6 22 7s23 1.5 39 1.5c13.333 0 24 -0.5 32 -1.5s14.333 -2.66699 19 -5s8.16699 -5.16602 10.5 -8.49902s4.5 -7.66602 6.5 -12.999l422 -1196h1l410 1196
c1.33301 5.33301 3 9.66602 5 12.999s5.66699 6.16602 11 8.49902s12.5 4 21.5 5s20.833 1.5 35.5 1.5c16 0 28.833 -0.833008 38.5 -2.5s16.334 -4.16699 20.001 -7.5s5.33398 -8.16602 5.00098 -14.499s-2.5 -14.833 -6.5 -25.5z" />
    <glyph glyph-name="W" unicode="W" horiz-adv-x="1801" 
d="M1384 -9c-2 -6 -5.3291 -10.833 -9.99609 -14.5s-10.667 -6.66699 -18 -9s-15.666 -4 -24.999 -5s-20.333 -1.5 -33 -1.5s-23.834 0.5 -33.501 1.5s-18.167 2.66699 -25.5 5s-13.333 5.33301 -18 9s-8 8.5 -10 14.5l-322 1116h-2l-294 -1116
c-1.33301 -6 -3.83301 -10.833 -7.5 -14.5s-8.83398 -6.66699 -15.501 -9s-14.834 -4 -24.501 -5s-21.167 -1.5 -34.5 -1.5c-14 0 -26 0.5 -36 1.5s-18.833 2.66699 -26.5 5s-13.834 5.33301 -18.501 9s-8 8.5 -10 14.5l-385 1292c-4 11.333 -6 20.166 -6 26.499
s2.33301 11.333 7 15s11.667 6 21 7s21.833 1.5 37.5 1.5s28 -0.5 37 -1.5s16 -2.66699 21 -5s8.33301 -5.16602 10 -8.49902s3.16699 -7.66602 4.5 -12.999l341 -1191h1l314 1191c1.33301 5.33301 3.16602 9.66602 5.49902 12.999s6 6.16602 11 8.49902s12.333 4 22 5
s22.167 1.5 37.5 1.5c12 0 21.667 -0.5 29 -1.5s13.166 -2.66699 17.499 -5s7.83301 -5.16602 10.5 -8.49902s4.66699 -7.66602 6 -12.999l342 -1191h2l333 1191c1.33301 5.33301 2.83301 9.66602 4.5 12.999s5 6.16602 10 8.49902s11.667 4 20 5s19.833 1.5 34.5 1.5
c16 0 28.5 -0.833008 37.5 -2.5s15.667 -4.16699 20 -7.5s6.83301 -8.16602 7.5 -14.499s-0.666016 -14.833 -3.99902 -25.5z" />
    <glyph glyph-name="X" unicode="X" horiz-adv-x="1041" 
d="M982 11c6.66699 -10 10.3301 -18.167 10.9971 -24.5s-1.5 -11.333 -6.5 -15s-12.5 -6.33398 -22.5 -8.00098s-23.167 -2.5 -39.5 -2.5s-29 0.5 -38 1.5s-16.333 2.66699 -22 5s-10 5.16602 -13 8.49902s-5.83301 7.66602 -8.5 12.999l-328 567l-334 -567
c-3.33301 -5.33301 -6.83301 -9.66602 -10.5 -12.999s-8.16699 -6.16602 -13.5 -8.49902s-12.666 -4 -21.999 -5s-21.333 -1.5 -36 -1.5c-16 0 -28.833 0.833008 -38.5 2.5s-16.667 4.33398 -21 8.00098s-6.16602 8.66699 -5.49902 15s4.33398 14.5 11.001 24.5l394 642
l-381 630c-6 10 -9.5 18.167 -10.5 24.5s0.5 11.333 4.5 15s10.833 6.33398 20.5 8.00098s22.5 2.5 38.5 2.5c15.333 0 27.666 -0.5 36.999 -1.5s17 -2.66699 23 -5s10.667 -5.16602 14 -8.49902s6.66602 -7.66602 9.99902 -12.999l322 -539l321 539
c3.33301 5.33301 6.33301 9.66602 9 12.999s6.5 6.16602 11.5 8.49902s11.667 4 20 5s19.833 1.5 34.5 1.5s27.167 -0.833008 37.5 -2.5s17.833 -4.33398 22.5 -8.00098s6.83398 -8.66699 6.50098 -15s-3.16602 -14.5 -8.49902 -24.5l-381 -624z" />
    <glyph glyph-name="Y" unicode="Y" horiz-adv-x="963" 
d="M545 503l0.00195312 -513.998c0 -4.66699 -1 -8.66699 -3 -12s-5.5 -6 -10.5 -8s-11.667 -3.83301 -20 -5.5s-18.5 -2.5 -30.5 -2.5c-12.667 0 -23 0.833008 -31 2.5s-14.667 3.5 -20 5.5s-9 4.66699 -11 8s-3 7.33301 -3 12v514l-391 780
c-4.66699 10.667 -7.33398 19.167 -8.00098 25.5s0.833008 11.166 4.5 14.499s10.167 5.83301 19.5 7.5s21 2.5 35 2.5c15.333 0 27.666 -0.5 36.999 -1.5s17 -2.66699 23 -5s10.333 -5.16602 13 -8.49902s5.66699 -7.66602 9 -12.999l208 -423l58 -124l58 -129h2l55.5 125
l58.5 125l210 426c2 5.33301 4.33301 9.66602 7 12.999s6.5 6.16602 11.5 8.49902s11.5 4 19.5 5s18 1.5 30 1.5c16.667 0 30.334 -0.833008 41.001 -2.5s18 -4.33398 22 -8.00098s5.66699 -8.66699 5 -15s-3.33398 -14.5 -8.00098 -24.5z" />
    <glyph glyph-name="Z" unicode="Z" horiz-adv-x="985" 
d="M926 24c0 -8.66699 -0.666992 -16.498 -2 -23.498s-3.5 -13 -6.5 -18s-6.5 -8.66699 -10.5 -11s-9 -3.5 -15 -3.5h-803c-13.333 0 -24.5 4.33301 -33.5 13s-13.5 23 -13.5 43v35c0 6 0.5 12 1.5 18s3 12.5 6 19.5s7 15.167 12 24.5s11.5 19.666 19.5 30.999l681 1060
h-673c-5.33301 0 -10.166 1.16699 -14.499 3.5s-7.83301 5.83301 -10.5 10.5s-4.66699 10.5 -6 17.5s-2 15.167 -2 24.5s0.666992 17.666 2 24.999s3.33301 13.5 6 18.5s6.16699 8.66699 10.5 11s9.16602 3.5 14.499 3.5h760c13.333 0 24.666 -4.33301 33.999 -13
s14 -23 14 -43v-35c0 -7.33301 -0.5 -14 -1.5 -20s-3 -12.5 -6 -19.5s-7.16699 -15 -12.5 -24s-11.666 -18.833 -18.999 -29.5l-682 -1060h716c11.333 0 19.833 -4.66699 25.5 -14s8.5 -24 8.5 -44z" />
    <glyph glyph-name="bracketleft" unicode="[" horiz-adv-x="723" 
d="M525 -307c0 -16 -2.33301 -27.833 -7 -35.5s-11.667 -11.5 -21 -11.5h-237c-6 0 -12.333 1.16699 -19 3.5s-13 5.83301 -19 10.5s-10.833 11.5 -14.5 20.5s-5.5 19.833 -5.5 32.5v1653c0 12.667 1.83301 23.5 5.5 32.5s8.5 15.833 14.5 20.5s12.333 8.16699 19 10.5
s13 3.5 19 3.5h237c4.66699 0 8.66699 -1 12 -3s6.33301 -5 9 -9s4.5 -9 5.5 -15s1.5 -13.333 1.5 -22c0 -16 -2.33301 -27.667 -7 -35s-11.667 -11 -21 -11h-176v-1597h176c4.66699 0 8.66699 -0.833008 12 -2.5s6.33301 -4.66699 9 -9s4.5 -9.5 5.5 -15.5s1.5 -13 1.5 -21
z" />
    <glyph glyph-name="backslash" unicode="\" horiz-adv-x="879" 
d="M816 -267c3.33301 -8.66699 4.66895 -15.665 4.00195 -20.998s-3 -9.16602 -7 -11.499s-10 -4 -18 -5s-18.333 -1.5 -31 -1.5s-23 0.333008 -31 1s-14.667 1.66699 -20 3s-9.33301 3.66602 -12 6.99902s-5.33398 7.33301 -8.00098 12l-645 1746
c-4 8.66699 -5.66699 15.667 -5 21s3 9.16602 7 11.499s10.167 4 18.5 5s18.833 1.5 31.5 1.5s23 -0.333008 31 -1s14.667 -1.83398 20 -3.50098s9.16602 -4 11.499 -7s4.83301 -6.83301 7.5 -11.5z" />
    <glyph glyph-name="bracketright" unicode="]" horiz-adv-x="623" 
d="M447 -287c0 -12.667 -2 -23.5 -6 -32.5s-8.83301 -15.833 -14.5 -20.5s-12 -8.16699 -19 -10.5s-13.5 -3.5 -19.5 -3.5h-237c-9.33301 0 -16.333 3.83301 -21 11.5s-7 19.5 -7 35.5c0 8 0.5 15 1.5 21s2.83301 11.167 5.5 15.5s5.66699 7.33301 9 9s7.33301 2.5 12 2.5
h177v1597h-177c-9.33301 0 -16.333 3.66699 -21 11s-7 19 -7 35c0 8.66699 0.5 16 1.5 22s2.83301 11 5.5 15s5.66699 7 9 9s7.33301 3 12 3h237c6 0 12.5 -1.16699 19.5 -3.5s13.333 -5.83301 19 -10.5s10.5 -11.5 14.5 -20.5s6 -19.833 6 -32.5v-1653z" />
    <glyph glyph-name="asciicircum" unicode="^" horiz-adv-x="1081" 
d="M880 624c4 -9.33301 5.99902 -17.001 5.99902 -23.001s-2.33301 -10.667 -7 -14s-11.667 -5.5 -21 -6.5s-21 -1.5 -35 -1.5s-25.333 0.5 -34 1.5s-15.834 2.66699 -21.501 5s-9.83398 5 -12.501 8s-5.33398 6.5 -8.00098 10.5l-251 584l-2 -3l-233 -581
c-2 -4 -4.33301 -7.5 -7 -10.5s-6.66699 -5.66699 -12 -8s-12.166 -4 -20.499 -5s-19.166 -1.5 -32.499 -1.5c-14 0 -25.333 0.5 -34 1.5s-15.167 3.33301 -19.5 7s-6.66602 8.33398 -6.99902 14.001s1.5 13.167 5.5 22.5l294 676c2 4.66699 5 8.66699 9 12s9 6 15 8
s13 3.33301 21 4s17.667 1 29 1c12 0 22.167 -0.333008 30.5 -1s15.333 -2 21 -4s10.334 -4.66699 14.001 -8s6.5 -7.33301 8.5 -12z" />
    <glyph glyph-name="underscore" unicode="_" horiz-adv-x="1038" 
d="M1049 -313c0 -18 -2.66699 -31.667 -8 -41s-13 -14 -23 -14h-1018c-10 0 -17.833 4.33301 -23.5 13s-8.5 22 -8.5 40s2.83301 32 8.5 42s13.5 15 23.5 15h1018c9.33301 0 16.833 -4.66699 22.5 -14s8.5 -23 8.5 -41z" />
    <glyph glyph-name="grave" unicode="`" horiz-adv-x="613" 
d="M437 1127c4 -6 6.50293 -11.501 7.50293 -16.501s0.333008 -9 -2 -12s-6.66602 -5.5 -12.999 -7.5s-14.666 -3 -24.999 -3s-19 0.333008 -26 1s-13.167 2.16699 -18.5 4.5s-10.166 5.33301 -14.499 9s-8.83301 9.16699 -13.5 16.5l-183 246
c-4.66699 6 -7.33398 11.667 -8.00098 17s0.666016 9.83301 3.99902 13.5s9.16602 6.66699 17.499 9s19.166 3.5 32.499 3.5s24.666 -0.666992 33.999 -2s17.166 -3.16602 23.499 -5.49902s11.833 -6 16.5 -11s9.66699 -10.833 15 -17.5z" />
    <glyph glyph-name="a" unicode="a" horiz-adv-x="973" 
d="M818 -3c0 -6.66699 -2.16992 -12.002 -6.50293 -16.002s-10.166 -6.83301 -17.499 -8.5s-17.333 -2.5 -30 -2.5c-12 0 -22.167 0.833008 -30.5 2.5s-14.833 4.5 -19.5 8.5s-7 9.33301 -7 16v106c-42.667 -46 -89.667 -81.5 -141 -106.5s-104.666 -37.5 -159.999 -37.5
c-50 0 -94.667 6.33301 -134 19s-72.666 31.167 -99.999 55.5s-48.333 53.666 -63 87.999s-22 72.833 -22 115.5c0 52.667 10.833 98.334 32.5 137.001s52.334 71 92.001 97s87.5 45.5 143.5 58.5s118.333 19.5 187 19.5h151v82c0 40 -4.16699 75.667 -12.5 107
s-21.833 57.5 -40.5 78.5s-43.167 36.667 -73.5 47s-67.166 15.5 -110.499 15.5c-42 0 -79.833 -5 -113.5 -15s-63 -21.333 -88 -34s-45.833 -24 -62.5 -34s-28.334 -15 -35.001 -15c-4 0 -7.83301 0.666992 -11.5 2s-6.66699 3.83301 -9 7.5s-4 8.5 -5 14.5
s-1.5 13.333 -1.5 22c0 14.667 1 26.334 3 35.001s7.33301 17.334 16 26.001s24.167 19 46.5 31s48.166 23.167 77.499 33.5s60.666 18.5 93.999 24.5s67 9 101 9c64.667 0 119.5 -7.83301 164.5 -23.5s81.333 -38.167 109 -67.5s47.334 -65.5 59.001 -108.5
s17.5 -91.833 17.5 -146.5v-643zM692.997 445.998h-173.001c-50 0 -94 -4.66699 -132 -14s-69.5 -22.666 -94.5 -39.999s-43.667 -38.333 -56 -63s-18.5 -52.667 -18.5 -84c0 -54.667 17.333 -98.167 52 -130.5s83.334 -48.5 146.001 -48.5c50 0 96.5 12.667 139.5 38
s88.5 64.666 136.5 117.999v224z" />
    <glyph glyph-name="b" unicode="b" horiz-adv-x="1128" 
d="M977 474c0 -81.333 -8.83008 -154.328 -26.4971 -218.995s-43.834 -119.834 -78.501 -165.501s-77.334 -80.667 -128.001 -105s-109 -36.5 -175 -36.5c-29.333 0 -56.333 3 -81 9s-49 15.5 -73 28.5s-48.333 29.667 -73 50s-51.334 44.833 -80.001 73.5v-122
c0 -5.33301 -1.16699 -9.66602 -3.5 -12.999s-5.83301 -6.16602 -10.5 -8.49902s-10.5 -4 -17.5 -5s-15.833 -1.5 -26.5 -1.5s-19.667 0.5 -27 1.5s-13.333 2.66699 -18 5s-7.83398 5.16602 -9.50098 8.49902s-2.5 7.66602 -2.5 12.999v1415c0 4 0.833008 7.83301 2.5 11.5
s5 6.66699 10 9s11.5 4 19.5 5s18 1.5 30 1.5c12.667 0 23 -0.5 31 -1.5s14.333 -2.66699 19 -5s8 -5.33301 10 -9s3 -7.5 3 -11.5v-593c30 31.333 58.667 57.666 86 78.999s54 38.5 80 51.5s51.833 22.333 77.5 28s52.167 8.5 79.5 8.5c68 0 126.333 -13.333 175 -40
s88.334 -62.834 119.001 -108.501s53 -98.834 67 -159.501s21 -125.334 21 -194.001zM846.003 454.005c0 53.333 -4.33594 104.832 -13.0029 154.499s-23.167 93.667 -43.5 132s-47.166 69.333 -80.499 93s-75.333 35.5 -126 35.5c-24.667 0 -49 -3.5 -73 -10.5
s-48.667 -18.667 -74 -35s-51.5 -37.166 -78.5 -62.499s-55.5 -57 -85.5 -95v-414c52.667 -63.333 103.334 -112 152.001 -146s99.334 -51 152.001 -51c48 0 89.167 11.667 123.5 35s62.333 54 84 92s37.5 80.667 47.5 128s15 95.333 15 144z" />
    <glyph glyph-name="c" unicode="c" horiz-adv-x="919" 
d="M816 138c0 -8.66699 -0.339844 -16.168 -1.00684 -22.501s-1.66699 -12 -3 -17s-3.16602 -9.5 -5.49902 -13.5s-8 -10.5 -17 -19.5s-24.333 -20.5 -46 -34.5s-45.667 -26.333 -72 -37s-55 -19.167 -86 -25.5s-62.833 -9.5 -95.5 -9.5c-66 0 -124.333 11 -175 33
s-93.167 54.5 -127.5 97.5s-60.333 95.833 -78 158.5s-26.5 135 -26.5 217c0 92 11 171 33 237s52.167 120 90.5 162s83.333 72.833 135 92.5s106.834 29.5 165.501 29.5c31.333 0 61.333 -2.83301 90 -8.5s55.167 -13.5 79.5 -23.5s45.833 -21.333 64.5 -34
s32.334 -23.334 41.001 -32.001s14.667 -15.167 18 -19.5s5.83301 -9.33301 7.5 -15s2.83398 -11.834 3.50098 -18.501s1 -14.667 1 -24c0 -20 -3 -34 -9 -42s-12.333 -12 -19 -12c-10 0 -22.167 6.16699 -36.5 18.5s-32.666 26 -54.999 41s-49.5 28.833 -81.5 41.5
s-70 19 -114 19c-90.667 0 -160.667 -35 -210 -105s-74 -171 -74 -303c0 -66.667 6.66699 -125 20 -175s32.333 -91.667 57 -125s54.834 -58.166 90.501 -74.499s75.834 -24.5 120.501 -24.5c42 0 79.167 6.66699 111.5 20s60.333 28 84 44s43.5 30.667 59.5 44
s27.667 20 35 20c4.66699 0 8.5 -1.16699 11.5 -3.5s5.5 -6.16602 7.5 -11.499s3.5 -11.666 4.5 -18.999s1.5 -16 1.5 -26z" />
    <glyph glyph-name="d" unicode="d" horiz-adv-x="1053" 
d="M917 -13c0 -5.33301 -0.831055 -9.66602 -2.49805 -12.999s-4.83398 -6 -9.50098 -8s-10.5 -3.66699 -17.5 -5s-15.833 -2 -26.5 -2c-11.333 0 -20.666 0.666992 -27.999 2s-13.166 3 -17.499 5s-7.83301 4.66699 -10.5 8s-4 7.66602 -4 12.999v136
c-50 -54.667 -102 -97.5 -156 -128.5s-113 -46.5 -177 -46.5c-68 0 -126.167 13.333 -174.5 40s-87.833 62.667 -118.5 108s-53 98.666 -67 159.999s-21 126.333 -21 195c0 80.667 8.83301 153.334 26.5 218.001s43.667 119.667 78 165s76.666 80.333 126.999 105
s108.833 37 175.5 37c57.333 0 109.666 -12.833 156.999 -38.5s94.333 -63.167 141 -112.5v572c0 4 0.833008 7.83301 2.5 11.5s5 6.5 10 8.5s11.5 3.66699 19.5 5s18 2 30 2c12.667 0 23 -0.666992 31 -2s14.167 -3 18.5 -5s7.66602 -4.83301 9.99902 -8.5
s3.5 -7.5 3.5 -11.5v-1410zM792.002 672c-52.667 64 -103.332 112.836 -151.999 146.503s-99.667 50.5 -153 50.5c-48 0 -89.167 -11.667 -123.5 -35s-62.333 -53.833 -84 -91.5s-37.5 -80.334 -47.5 -128.001s-15 -95.834 -15 -144.501
c0 -52.667 4.33301 -103.834 13 -153.501s23.167 -94 43.5 -133s47.166 -70.167 80.499 -93.5s75.333 -35 126 -35c25.333 0 49.833 3.5 73.5 10.5s48.167 18.5 73.5 34.5s51.5 36.833 78.5 62.5s55.833 57.5 86.5 95.5v414z" />
    <glyph glyph-name="e" unicode="e" 
d="M925 521c0 -24.667 -6.66602 -41.8311 -19.999 -51.498s-26.333 -14.5 -39 -14.5h-648c0 -58.667 5.83301 -111.834 17.5 -159.501s30.834 -88.5 57.501 -122.5s61.334 -60 104.001 -78s95 -27 157 -27c44.667 0 84.5 3.83301 119.5 11.5s65.167 16.167 90.5 25.5
s46.333 17.833 63 25.5s28.334 11.5 35.001 11.5c4 0 7.83301 -1 11.5 -3s6.5 -5.33301 8.5 -10s3.5 -10.5 4.5 -17.5s1.5 -15.5 1.5 -25.5c0 -5.33301 -0.333008 -10.166 -1 -14.499s-1.5 -8.5 -2.5 -12.5s-2.5 -7.66699 -4.5 -11s-4.83301 -6.83301 -8.5 -10.5
s-14.5 -9.83398 -32.5 -18.501s-41.833 -17.334 -71.5 -26.001s-63.834 -16.5 -102.501 -23.5s-80.334 -10.5 -125.001 -10.5c-74 0 -139.333 11 -196 33s-104.167 54.5 -142.5 97.5s-67.5 96.333 -87.5 160s-30 137.5 -30 221.5c0 80.667 10.333 152.834 31 216.501
s50.167 117.667 88.5 162s84.666 78.166 138.999 101.499s114.833 35 181.5 35c71.333 0 132.166 -11.833 182.499 -35.5s91.833 -55.667 124.5 -96s56.5 -87 71.5 -140s22.5 -108.833 22.5 -167.5v-26zM796.001 558.003c2 100.667 -21.167 179.333 -69.5 236
s-118.5 85 -210.5 85c-48 0 -90 -8.83301 -126 -26.5s-66.5 -41.167 -91.5 -70.5s-44 -63.5 -57 -102.5s-20.833 -79.5 -23.5 -121.5h578z" />
    <glyph glyph-name="f" unicode="f" horiz-adv-x="686" 
d="M651 1342c0 -10 -0.50293 -17.9971 -1.50293 -23.9971s-2.5 -10.667 -4.5 -14s-4.16699 -5.83301 -6.5 -7.5s-5.16602 -2.5 -8.49902 -2.5c-6 0 -12.833 1.83301 -20.5 5.5s-17.167 7.66699 -28.5 12s-25 8.16602 -41 11.499s-34.333 5 -55 5
c-29.333 0 -54.166 -4.66699 -74.499 -14s-36.833 -24.333 -49.5 -45s-21.667 -47.334 -27 -80.001s-8 -72 -8 -118v-113h233c5.33301 0 9.66602 -1 12.999 -3s6.5 -5.33301 9.5 -10s5.16699 -10.167 6.5 -16.5s2 -14.166 2 -23.499c0 -17.333 -2.83301 -30.5 -8.5 -39.5
s-13.167 -13.5 -22.5 -13.5h-233v-866c0 -4 -1 -7.83301 -3 -11.5s-5.33301 -6.5 -10 -8.5s-11.167 -3.66699 -19.5 -5s-18.333 -2 -30 -2s-21.667 0.666992 -30 2s-14.833 3 -19.5 5s-8 4.83301 -10 8.5s-3 7.5 -3 11.5v866h-142c-10 0 -17.667 4.5 -23 13.5
s-8 22.167 -8 39.5c0 9.33301 0.666992 17.166 2 23.499s3.33301 11.833 6 16.5s5.83398 8 9.50098 10s8.16699 3 13.5 3h142v109c0 66 6 122.5 18 169.5s30.167 85.167 54.5 114.5s54.666 50.666 90.999 63.999s78.5 20 126.5 20c24 0 47.333 -2 70 -6
c22 -4.66699 38.833 -9.66699 50.5 -15s19.334 -10 23.001 -14s6.83398 -8.83301 9.50098 -14.5s4.5 -12.167 5.5 -19.5s1.5 -15.333 1.5 -24z" />
    <glyph glyph-name="g" unicode="g" 
d="M913 925c0 -20 -3.16699 -33.8379 -9.5 -41.5049s-14.5 -11.5 -24.5 -11.5h-150c29.333 -30 49.833 -62.667 61.5 -98s17.5 -72.666 17.5 -111.999c0 -54 -8.66699 -102 -26 -144s-41.666 -77.5 -72.999 -106.5s-68.833 -51.167 -112.5 -66.5s-91.5 -23 -143.5 -23
c-42.667 0 -83.334 6 -122.001 18s-68.667 26.667 -90 44c-14 -14 -25.667 -30.167 -35 -48.5s-14 -39.166 -14 -62.499c0 -26.667 12.833 -49.167 38.5 -67.5s58.834 -28.166 99.501 -29.499l257 -10c43.333 -1.33301 84.166 -7.33301 122.499 -18
s71.833 -26.334 100.5 -47.001s51.334 -46 68.001 -76s25 -65.333 25 -106c0 -42 -8.5 -82.333 -25.5 -121s-43.5 -72.5 -79.5 -101.5s-82 -52 -138 -69s-123 -25.5 -201 -25.5c-74 0 -137.167 6.5 -189.5 19.5s-95 30.833 -128 53.5s-57.167 49.334 -72.5 80.001
s-23 64 -23 100c0 24.667 2.83301 47.834 8.5 69.501s14.334 42.334 26.001 62.001s26 38.5 43 56.5s36.833 36.333 59.5 55c-36 18.667 -62.333 40.834 -79 66.501s-25 53.5 -25 83.5c0 43.333 8.33301 81.5 25 114.5s37 62.833 61 89.5
c-20 26.667 -35.667 55.834 -47 87.501s-17 69.5 -17 113.5c0 53.333 8.66699 101.166 26 143.499s41.666 78.166 72.999 107.499s68.666 51.833 111.999 67.5s91 23.5 143 23.5c27.333 0 53 -1.5 77 -4.5s46.333 -7.16699 67 -12.5h280c12 0 20.667 -4.5 26 -13.5
s8 -22.167 8 -39.5zM678 659.995c0 72 -19.667 128.336 -59 169.003s-95.333 61 -168 61c-37.333 0 -70 -6.33301 -98 -19s-51.167 -29.834 -69.5 -51.501s-32 -46.834 -41 -75.501s-13.5 -59 -13.5 -91c0 -70 19.833 -125.167 59.5 -165.5s95.167 -60.5 166.5 -60.5
c38 0 71.167 6.33301 99.5 19s51.5 29.667 69.5 51s31.5 46.166 40.5 74.499s13.5 57.833 13.5 88.5zM778 -88.002c0 46 -18.667 81.166 -56 105.499s-87.666 37.833 -150.999 40.5l-276 9c-25.333 -19.333 -46 -37.833 -62 -55.5s-28.667 -34.667 -38 -51
s-15.833 -32.5 -19.5 -48.5s-5.5 -32 -5.5 -48c0 -51.333 26.167 -90.333 78.5 -117s124.833 -40 217.5 -40c59.333 0 108.666 5.66699 147.999 17s71.333 26.5 96 45.5s42.167 40.833 52.5 65.5s15.5 50.334 15.5 77.001z" />
    <glyph glyph-name="h" unicode="h" 
d="M919 -14c0 -4 -1.00293 -7.66504 -3.00293 -10.998s-5.33301 -6.16602 -10 -8.49902s-11 -4.16602 -19 -5.49902s-18 -2 -30 -2c-12.667 0 -23 0.666992 -31 2s-14.167 3.16602 -18.5 5.49902s-7.66602 5.16602 -9.99902 8.49902s-3.5 7 -3.5 11v564
c0 58.667 -4.5 106.5 -13.5 143.5s-22.667 68.5 -41 94.5s-41.666 46.167 -69.999 60.5s-61.166 21.5 -98.499 21.5c-48.667 0 -97.167 -17 -145.5 -51s-98.833 -84.333 -151.5 -151v-682c0 -4 -1.16699 -7.66699 -3.5 -11s-5.66602 -6.16602 -9.99902 -8.49902
s-10.5 -4.16602 -18.5 -5.49902s-18.333 -2 -31 -2c-12 0 -22 0.666992 -30 2s-14.5 3.16602 -19.5 5.49902s-8.33301 5.16602 -10 8.49902s-2.5 7 -2.5 11v1416c0 4 0.833008 7.66699 2.5 11s5 6.33301 10 9s11.5 4.5 19.5 5.5s18 1.5 30 1.5c12.667 0 23 -0.5 31 -1.5
s14.167 -2.83301 18.5 -5.5s7.66602 -5.66699 9.99902 -9s3.5 -7 3.5 -11v-594c51.333 58 103 100.333 155 127s103.667 40 155 40c62.667 0 115.334 -10.5 158.001 -31.5s77.167 -49.333 103.5 -85s45.166 -77.334 56.499 -125.001s17 -104.834 17 -171.501v-576z" />
    <glyph glyph-name="i" unicode="i" horiz-adv-x="419" 
d="M289 -12c0 -4 -1 -7.66699 -3 -11s-5.33301 -6.16602 -10 -8.49902s-11 -4.16602 -19 -5.49902s-18.333 -2 -31 -2c-12 0 -22 0.666992 -30 2s-14.5 3.16602 -19.5 5.49902s-8.33301 5.16602 -10 8.49902s-2.5 7 -2.5 11v951c0 4 0.833008 7.66699 2.5 11s5 6.33301 10 9
s11.5 4.5 19.5 5.5s18 1.5 30 1.5c12.667 0 23 -0.5 31 -1.5s14.333 -2.83301 19 -5.5s8 -5.66699 10 -9s3 -7 3 -11v-951zM308 1258.5c0 -33.667 -6 -56.332 -18 -67.999s-33.667 -17.5 -65 -17.5c-30.667 0 -51.834 5.66699 -63.501 17s-17.5 33.833 -17.5 67.5
s6 56.5 18 68.5s33.667 18 65 18c30.667 0 51.834 -5.83301 63.501 -17.5s17.5 -34.334 17.5 -68.001z" />
    <glyph glyph-name="j" unicode="j" horiz-adv-x="419" 
d="M312 -51c0 -68 -4.66602 -122.666 -13.999 -163.999s-24.333 -76.333 -45 -105s-47.667 -50.334 -81 -65.001s-74 -22 -122 -22c-18.667 0 -34.667 1.16699 -48 3.5s-24 5 -32 8s-13.5 6.33301 -16.5 10s-5 7.83398 -6 12.501s-1.66699 9.16699 -2 13.5
s-0.5 9.16602 -0.5 14.499c0 9.33301 0.5 17.333 1.5 24s2.5 12 4.5 16s4.66699 7.16699 8 9.5s7 3.5 11 3.5s12.5 -1 25.5 -3s28.833 -3 47.5 -3c26 0 48.167 3.83301 66.5 11.5s33.333 20.5 45 38.5s20 41.333 25 70s7.5 71 7.5 127v999c0 4 1.16699 7.66699 3.5 11
s5.66602 6.33301 9.99902 9s10.5 4.5 18.5 5.5s18.333 1.5 31 1.5c12 0 22 -0.5 30 -1.5s14.333 -2.83301 19 -5.5s8 -5.66699 10 -9s3 -7 3 -11v-999zM332.001 1267.5c0 -33.667 -5.83105 -56.332 -17.498 -67.999s-33.5 -17.5 -65.5 -17.5
c-30.667 0 -51.834 5.66699 -63.501 17s-17.5 33.833 -17.5 67.5s6 56.5 18 68.5s33.667 18 65 18s52.666 -5.83301 63.999 -17.5s17 -34.334 17 -68.001z" />
    <glyph glyph-name="k" unicode="k" horiz-adv-x="919" 
d="M874 -12c0 -4.66699 -1.00098 -8.66895 -3.00098 -12.002s-5.5 -6.33301 -10.5 -9s-11.667 -4.66699 -20 -6s-19.166 -2 -32.499 -2c-14 0 -25.5 0.5 -34.5 1.5s-16.833 2.5 -23.5 4.5s-12.334 4.83301 -17.001 8.5s-9 7.83398 -13 12.501l-445 540v-540
c0 -4 -1.16699 -7.66699 -3.5 -11s-5.66602 -6.16602 -9.99902 -8.49902s-10.5 -4.16602 -18.5 -5.49902s-18.333 -2 -31 -2c-12 0 -22 0.666992 -30 2s-14.5 3.16602 -19.5 5.49902s-8.33301 5.16602 -10 8.49902s-2.5 7 -2.5 11v1416c0 4 0.833008 7.66699 2.5 11
s5 6.33301 10 9s11.5 4.5 19.5 5.5s18 1.5 30 1.5c12.667 0 23 -0.5 31 -1.5s14.167 -2.83301 18.5 -5.5s7.66602 -5.66699 9.99902 -9s3.5 -7 3.5 -11v-874l400 404c5.33301 6.66699 11 11.834 17 15.501s12.5 6.83398 19.5 9.50098s15 4.5 24 5.5s19.5 1.5 31.5 1.5
s22.333 -0.333008 31 -1s15.834 -2.16699 21.501 -4.5s9.83398 -5 12.501 -8s4 -6.83301 4 -11.5c0 -7.33301 -2 -14.333 -6 -21s-11.333 -15.334 -22 -26.001l-380 -359l422 -504c9.33301 -10 15.666 -17.833 18.999 -23.5s5 -11.5 5 -17.5z" />
    <glyph glyph-name="l" unicode="l" horiz-adv-x="419" 
d="M289 -14c0 -4 -1 -7.66699 -3 -11s-5.33301 -6.16602 -10 -8.49902s-11 -4.16602 -19 -5.49902s-18.333 -2 -31 -2c-12 0 -22 0.666992 -30 2s-14.5 3.16602 -19.5 5.49902s-8.33301 5.16602 -10 8.49902s-2.5 7 -2.5 11v1416c0 4 0.833008 7.66699 2.5 11
s5 6.33301 10 9s11.5 4.5 19.5 5.5s18 1.5 30 1.5c12.667 0 23 -0.5 31 -1.5s14.333 -2.83301 19 -5.5s8 -5.66699 10 -9s3 -7 3 -11v-1416z" />
    <glyph glyph-name="m" unicode="m" horiz-adv-x="1533" 
d="M1489 -3c0 -4 -1.00098 -7.83203 -3.00098 -11.499s-5.33301 -6.5 -10 -8.5s-11 -3.66699 -19 -5s-18 -2 -30 -2c-12.667 0 -23 0.666992 -31 2s-14.333 3 -19 5s-8 4.83301 -10 8.5s-3 7.5 -3 11.5v585c0 44.667 -4 85.334 -12 122.001s-20.5 68.167 -37.5 94.5
s-38.667 46.666 -65 60.999s-57.5 21.5 -93.5 21.5c-44 0 -88.5 -17.167 -133.5 -51.5s-94.5 -84.5 -148.5 -150.5v-682c0 -4 -1 -7.83301 -3 -11.5s-5.33301 -6.5 -10 -8.5s-11 -3.66699 -19 -5s-18 -2 -30 -2s-22 0.666992 -30 2s-14.5 3 -19.5 5
s-8.33301 4.83301 -10 8.5s-2.5 7.5 -2.5 11.5v585c0 44.667 -4.16699 85.334 -12.5 122.001s-21.166 68.167 -38.499 94.5s-39 46.666 -65 60.999s-57 21.5 -93 21.5c-44 0 -88.5 -17.167 -133.5 -51.5s-94.167 -84.5 -147.5 -150.5v-682
c0 -4 -1.16699 -7.83301 -3.5 -11.5s-5.66602 -6.5 -9.99902 -8.5s-10.5 -3.66699 -18.5 -5s-18.333 -2 -31 -2c-12 0 -22 0.666992 -30 2s-14.5 3 -19.5 5s-8.33301 4.83301 -10 8.5s-2.5 7.5 -2.5 11.5v950c0 4.66699 0.833008 8.66699 2.5 12s5 6.33301 10 9
s11.167 4.5 18.5 5.5s16.833 1.5 28.5 1.5s21.5 -0.5 29.5 -1.5s14 -2.83301 18 -5.5s6.83301 -5.66699 8.5 -9s2.5 -7.33301 2.5 -12v-134c54.667 60.667 106.5 104.667 155.5 132s97.833 41 146.5 41c40 0 75.5 -4.66699 106.5 -14s58.333 -22.666 82 -39.999
s44 -37.833 61 -61.5s30.833 -49.834 41.5 -78.501c32.667 36.667 63.5 67.334 92.5 92.001s56.667 44.5 83 59.5s51.666 25.833 75.999 32.5s48.5 10 72.5 10c59.333 0 109.5 -10.5 150.5 -31.5s74 -49.333 99 -85s42.833 -77.334 53.5 -125.001s16 -97.834 16 -150.501
v-597z" />
    <glyph glyph-name="n" unicode="n" 
d="M919 -3c0 -4 -1.00586 -7.83203 -3.00586 -11.499s-5.33301 -6.5 -10 -8.5s-11 -3.66699 -19 -5s-18 -2 -30 -2c-12.667 0 -23 0.666992 -31 2s-14.167 3 -18.5 5s-7.66602 4.83301 -9.99902 8.5s-3.5 7.5 -3.5 11.5v564c0 58.667 -4.5 106.334 -13.5 143.001
s-22.667 68.167 -41 94.5s-41.666 46.666 -69.999 60.999s-61.166 21.5 -98.499 21.5c-48.667 0 -97.167 -17.167 -145.5 -51.5s-98.833 -84.5 -151.5 -150.5v-682c0 -4 -1.16699 -7.83301 -3.5 -11.5s-5.66602 -6.5 -9.99902 -8.5s-10.5 -3.66699 -18.5 -5
s-18.333 -2 -31 -2c-12 0 -22 0.666992 -30 2s-14.5 3 -19.5 5s-8.33301 4.83301 -10 8.5s-2.5 7.5 -2.5 11.5v950c0 4.66699 0.833008 8.66699 2.5 12s5 6.33301 10 9s11.167 4.5 18.5 5.5s16.833 1.5 28.5 1.5s21.334 -0.5 29.001 -1.5s13.667 -2.83301 18 -5.5
s7.33301 -5.66699 9 -9s2.5 -7.33301 2.5 -12v-134c54.667 60.667 108.334 104.667 161.001 132s104.667 41 156 41c62.667 0 115.334 -10.5 158.001 -31.5s77.167 -49.333 103.5 -85s45.166 -77.334 56.499 -125.001s17 -105.167 17 -172.5v-575z" />
    <glyph glyph-name="o" unicode="o" 
d="M990 482c0 -75.333 -9.83301 -144.835 -29.5 -208.502s-49 -119 -88 -166s-87.5 -83.5 -145.5 -109.5s-125.333 -39 -202 -39c-74.667 0 -139.834 11.667 -195.501 35s-102.167 56.833 -139.5 100.5s-65.333 96.667 -84 159s-28 132.833 -28 211.5
c0 75.333 9.66699 144.833 29 208.5s48.5 118.834 87.5 165.501s87.5 82.834 145.5 108.501s125.667 38.5 203 38.5c74.667 0 139.834 -11.5 195.501 -34.5s102 -56.333 139 -100s65 -96.667 84 -159s28.5 -132.5 28.5 -210.5zM857 470.998c0 54 -5.16699 105.5 -15.5 154.5
s-27.833 92.167 -52.5 129.5s-57.667 67 -99 89s-92.666 33 -153.999 33c-56.667 0 -105.667 -10.167 -147 -30.5s-75.166 -48.5 -101.499 -84.5s-45.666 -78.5 -57.999 -127.5s-18.5 -101.833 -18.5 -158.5c0 -54.667 5.16699 -106.667 15.5 -156s27.833 -92.5 52.5 -129.5
s57.667 -66.333 99 -88s92.666 -32.5 153.999 -32.5c56.667 0 105.667 10.167 147 30.5s75.166 48.333 101.499 84s45.666 78 57.999 127s18.5 102.167 18.5 159.5z" />
    <glyph glyph-name="p" unicode="p" 
d="M977 495c0 -80.667 -9.00195 -153.668 -27.002 -219.001s-44.333 -120.666 -79 -165.999s-77.5 -80.5 -128.5 -105.5s-109.5 -37.5 -175.5 -37.5c-28 0 -54.167 3 -78.5 9s-48.333 15.333 -72 28s-47.167 28.5 -70.5 47.5s-48 41.5 -74 67.5v-490
c0 -4 -1 -7.83301 -3 -11.5s-5.33301 -6.66699 -10 -9s-11 -4 -19 -5s-18.333 -1.5 -31 -1.5c-12 0 -22 0.5 -30 1.5s-14.5 2.66699 -19.5 5s-8.33301 5.33301 -10 9s-2.5 7.5 -2.5 11.5v1327c0 5.33301 0.833008 9.66602 2.5 12.999s4.83398 6 9.50098 8
s10.667 3.66699 18 5s16.333 2 27 2s19.5 -0.666992 26.5 -2s12.833 -3 17.5 -5s8.16699 -4.66699 10.5 -8s3.5 -7.66602 3.5 -12.999v-137c29.333 30 57.333 56 84 78s53.167 40.333 79.5 55s53.5 25.5 81.5 32.5s58 10.5 90 10.5c68.667 0 127 -13.167 175 -39.5
s87.333 -62.166 118 -107.499s52.834 -98.333 66.501 -159s20.5 -125.334 20.5 -194.001zM845.998 474.999c0 53.333 -4.33496 104.667 -13.002 154s-23 93.333 -43 132s-46.5 69.5 -79.5 92.5s-74.833 34.5 -125.5 34.5c-25.333 0 -50 -3.5 -74 -10.5
s-48.667 -18.5 -74 -34.5s-51.666 -36.833 -78.999 -62.5s-56 -57.5 -86 -95.5v-413c52.667 -64 103 -113 151 -147s98.333 -51 151 -51c48 0 89.333 11.833 124 35.5s62.834 54.5 84.501 92.5s37.667 81 48 129s15.5 96 15.5 144z" />
    <glyph glyph-name="q" unicode="q" 
d="M917 -371c0 -4 -1.16504 -7.83691 -3.49805 -11.5039s-5.66602 -6.66699 -9.99902 -9s-10.5 -4 -18.5 -5s-18 -1.5 -30 -1.5c-12.667 0 -23 0.5 -31 1.5s-14.5 2.66699 -19.5 5s-8.33301 5.33301 -10 9s-2.5 7.5 -2.5 11.5v506
c-30.667 -31.333 -59.667 -57.833 -87 -79.5s-54 -39 -80 -52s-51.833 -22.333 -77.5 -28s-52.167 -8.5 -79.5 -8.5c-68 0 -126.167 13.333 -174.5 40s-87.833 62.834 -118.5 108.501s-53 99 -67 160s-21 125.833 -21 194.5c0 80.667 8.83301 153.334 26.5 218.001
s43.667 119.834 78 165.501s76.666 80.667 126.999 105s108.833 36.5 175.5 36.5c29.333 0 56.333 -3 81 -9s49.167 -15.5 73.5 -28.5s48.666 -29.667 72.999 -50s50.833 -45.166 79.5 -74.499v123c0 5.33301 1.33301 9.66602 4 12.999s6.16699 6 10.5 8
s10.166 3.66699 17.499 5s16.666 2 27.999 2c10.667 0 19.5 -0.666992 26.5 -2s12.833 -3 17.5 -5s7.83398 -4.66699 9.50098 -8s2.5 -7.66602 2.5 -12.999v-1327zM792.002 691.996c-52.667 63.333 -103.332 111.833 -151.999 145.5s-99.667 50.5 -153 50.5
c-48 0 -89.167 -11.5 -123.5 -34.5s-62.333 -53.5 -84 -91.5s-37.5 -80.667 -47.5 -128s-15 -95.666 -15 -144.999c0 -53.333 4.33301 -104.833 13 -154.5s23.167 -93.667 43.5 -132s47.166 -69.333 80.499 -93s75.333 -35.5 126 -35.5c25.333 0 49.833 3.5 73.5 10.5
s48.167 18.667 73.5 35s51.5 37.166 78.5 62.499s55.833 57 86.5 95v415z" />
    <glyph glyph-name="r" unicode="r" horiz-adv-x="717" 
d="M682 899c0 -10.667 -0.50293 -19.665 -1.50293 -26.998s-2.33301 -13.166 -4 -17.499s-3.66699 -7.83301 -6 -10.5s-5.5 -4 -9.5 -4c-6.66699 0 -14.167 1.66699 -22.5 5s-18.166 6.66602 -29.499 9.99902s-23.666 6.66602 -36.999 9.99902s-28 5 -44 5
c-18.667 0 -37.167 -4 -55.5 -12s-37.5 -21 -57.5 -39s-41 -41.667 -63 -71s-46.333 -65.333 -73 -108v-643c0 -4 -1 -7.83301 -3 -11.5s-5.33301 -6.5 -10 -8.5s-11 -3.66699 -19 -5s-18.333 -2 -31 -2c-11.333 0 -21.166 0.666992 -29.499 2s-14.833 3 -19.5 5
s-8 4.83301 -10 8.5s-3 7.5 -3 11.5v950c0 4.66699 1 8.66699 3 12s5.33301 6.33301 10 9s10.667 4.5 18 5.5s17 1.5 29 1.5s21.833 -0.5 29.5 -1.5s13.667 -2.83301 18 -5.5s7.33301 -5.66699 9 -9s2.5 -7.33301 2.5 -12v-150c27.333 40 52.5 72.333 75.5 97
s45 43.834 66 57.501s41.5 22.834 61.5 27.501s40.667 7 62 7c8.66699 0 19 -0.5 31 -1.5s24.833 -2.83301 38.5 -5.5s26 -6 37 -10s18.5 -7.5 22.5 -10.5s6.66699 -5.83301 8 -8.5s2.5 -5.83398 3.5 -9.50098s1.83301 -8.83398 2.5 -15.501s1 -15.334 1 -26.001z" />
    <glyph glyph-name="s" unicode="s" horiz-adv-x="834" 
d="M714 250c0 -45.333 -8.33594 -85.9961 -25.0029 -121.996s-40.667 -66.667 -72 -92s-68.666 -44.5 -111.999 -57.5s-91 -19.5 -143 -19.5c-33.333 0 -64.666 2.5 -93.999 7.5s-55.833 11.5 -79.5 19.5s-43.834 16.667 -60.501 26s-28.834 17.5 -36.501 24.5
s-13.167 15.667 -16.5 26s-5 24.166 -5 41.499c0 9.33301 0.666992 17.5 2 24.5s3 13 5 18s4.83301 8.66699 8.5 11s7.5 3.5 11.5 3.5c7.33301 0 18.5 -4.83301 33.5 -14.5s33.5 -20.334 55.5 -32.001s48.167 -22.334 78.5 -32.001s65.5 -14.5 105.5 -14.5
c32 0 61.333 3.5 88 10.5s49.834 17.5 69.501 31.5s34.834 32 45.501 54s16 47.667 16 77s-7 54.166 -21 74.499s-32.333 38 -55 53s-48.5 28.333 -77.5 40l-89 36c-30.333 12.333 -60 25.833 -89 40.5s-55 32.5 -78 53.5s-41.5 46.167 -55.5 75.5s-21 64.666 -21 105.999
c0 32.667 6.33301 65 19 97s32.167 60.5 58.5 85.5s60 45.167 101 60.5s89.5 23 145.5 23c23.333 0 46.833 -1.83301 70.5 -5.5s45 -8.66699 64 -15s35.5 -13.166 49.5 -20.499s24.667 -13.833 32 -19.5s12.333 -10.334 15 -14.001s4.5 -7.66699 5.5 -12
s1.83301 -9.5 2.5 -15.5s1 -13.167 1 -21.5s-0.5 -15.833 -1.5 -22.5s-2.5 -12.5 -4.5 -17.5s-4.66699 -8.66699 -8 -11s-7 -3.5 -11 -3.5c-5.33301 0 -13.666 3.83301 -24.999 11.5s-26.166 16 -44.499 25s-40 17.333 -65 25s-54 11.5 -87 11.5s-62 -3.83301 -87 -11.5
s-45.5 -18.5 -61.5 -32.5s-28 -30.333 -36 -49s-12 -39.334 -12 -62.001c0 -30.667 7 -56.5 21 -77.5s32.5 -39.167 55.5 -54.5s49.333 -29 79 -41l90 -36c30.333 -12 60.166 -25.167 89.499 -39.5s55.5 -31.666 78.5 -51.999s41.5 -44.666 55.5 -72.999s21 -62.5 21 -102.5
z" />
    <glyph glyph-name="t" unicode="t" horiz-adv-x="566" 
d="M617 48c0 -14.667 -1.17285 -26.4961 -3.50586 -35.4961s-6.16602 -16.167 -11.499 -21.5s-13 -10.333 -23 -15s-21.667 -8.5 -35 -11.5s-27.333 -5.33301 -42 -7s-29 -2.5 -43 -2.5c-47.333 0 -87.333 6.33301 -120 19s-59.667 31.667 -81 57
s-36.666 57.666 -45.999 96.999s-14 85.666 -14 138.999v591h-142c-9.33301 0 -16.833 4.33301 -22.5 13s-8.5 21.667 -8.5 39c0 9.33301 0.666992 17.333 2 24s3.5 12.334 6.5 17.001s6.33301 8 10 10s7.83398 3 12.501 3h142v233c0 4 0.833008 7.83301 2.5 11.5
s5 6.66699 10 9s11.5 4 19.5 5s18 1.5 30 1.5c12.667 0 23 -0.5 31 -1.5s14.333 -2.66699 19 -5s8 -5.33301 10 -9s3 -7.5 3 -11.5v-233h199c4.66699 0 8.83398 -1 12.501 -3s7 -5.33301 10 -10s5.16699 -10.334 6.5 -17.001s2 -14.667 2 -24c0 -17.333 -3 -30.333 -9 -39
s-13.333 -13 -22 -13h-199v-575c0 -72 10.333 -126.833 31 -164.5s58.334 -56.5 113.001 -56.5c16.667 0 31.834 1.66699 45.501 5s25.834 7.16602 36.501 11.499s19.667 8.16602 27 11.499s13.666 5 18.999 5c3.33301 0 6.5 -0.666992 9.5 -2s5.33301 -3.83301 7 -7.5
s3 -8.5 4 -14.5s1.5 -13.667 1.5 -23z" />
    <glyph glyph-name="u" unicode="u" 
d="M915 -2c0 -4.66699 -0.829102 -8.66797 -2.49609 -12.001s-5 -6 -10 -8s-11.333 -3.83301 -19 -5.5s-16.834 -2.5 -27.501 -2.5c-12.667 0 -22.834 0.833008 -30.501 2.5s-13.667 3.5 -18 5.5s-7.33301 4.66699 -9 8s-2.5 7.33301 -2.5 12v134
c-54.667 -60.667 -108.167 -104.667 -160.5 -132s-104.166 -41 -155.499 -41c-62.667 0 -115.334 10.5 -158.001 31.5s-77.167 49.5 -103.5 85.5s-45.166 77.833 -56.499 125.5s-17 105.167 -17 172.5v574c0 4 0.833008 7.83301 2.5 11.5s5 6.66699 10 9s11.5 4 19.5 5
s18 1.5 30 1.5c12.667 0 23 -0.5 31 -1.5s14.167 -2.66699 18.5 -5s7.66602 -5.33301 9.99902 -9s3.5 -7.5 3.5 -11.5v-563c0 -58.667 4.5 -106.5 13.5 -143.5s22.667 -68.667 41 -95s41.666 -46.666 69.999 -60.999s61.166 -21.5 98.499 -21.5c48.667 0 97 17.167 145 51.5
s98.667 84.5 152 150.5v682c0 4 1 7.83301 3 11.5s5.33301 6.66699 10 9s11 4 19 5s18.333 1.5 31 1.5c12 0 22 -0.5 30 -1.5s14.333 -2.66699 19 -5s8 -5.33301 10 -9s3 -7.5 3 -11.5v-950z" />
    <glyph glyph-name="v" unicode="v" horiz-adv-x="919" 
d="M880 950c0 -2 -0.165039 -4.33301 -0.498047 -7s-0.666016 -5 -0.999023 -7s-0.833008 -4.16699 -1.5 -6.5s-1.33398 -4.83301 -2.00098 -7.5l-344 -925c-2 -5.33301 -5.16699 -9.83301 -9.5 -13.5s-9.66602 -6.5 -15.999 -8.5s-13.833 -3.33301 -22.5 -4s-19 -1 -31 -1
s-22.5 0.5 -31.5 1.5s-16.667 2.66699 -23 5s-11.666 5.16602 -15.999 8.49902s-7.5 7.33301 -9.5 12l-344 925c-2 6 -3.5 10.667 -4.5 14s-1.66699 6.16602 -2 8.49902s-0.5 4.16602 -0.5 5.49902c0 4.66699 1 8.83398 3 12.501s5.16699 6.33398 9.5 8.00098
s10.5 2.83398 18.5 3.50098s17.333 1 28 1c15.333 0 27.666 -0.5 36.999 -1.5s16.666 -2.66699 21.999 -5s9.16602 -5.16602 11.499 -8.49902s4.5 -7.33301 6.5 -12l297 -830l2 -5l2 5l292 830c1.33301 4.66699 3.5 8.66699 6.5 12s7.16699 6.16602 12.5 8.49902
s12.333 4 21 5s20 1.5 34 1.5c11.333 0 20.666 -0.333008 27.999 -1s13 -2 17 -4s6.83301 -4.66699 8.5 -8s2.5 -7.33301 2.5 -12z" />
    <glyph glyph-name="w" unicode="w" horiz-adv-x="1412" 
d="M1401 950c0 -4 -0.666992 -8.00098 -2 -12.001c-1.33301 -4.66699 -2.66602 -10 -3.99902 -16l-294 -925c-1.33301 -5.33301 -3.83301 -9.83301 -7.5 -13.5s-8.66699 -6.5 -15 -8.5s-14.666 -3.33301 -24.999 -4s-22.5 -1 -36.5 -1c-14.667 0 -27.167 0.5 -37.5 1.5
s-18.833 2.66699 -25.5 5s-12 5.16602 -16 8.49902s-6.66699 7.33301 -8 12l-220 750l-2 8l-2 -8l-206 -750c-1.33301 -5.33301 -4.16602 -9.83301 -8.49902 -13.5s-10.166 -6.5 -17.499 -8.5s-16.333 -3.33301 -27 -4s-22.334 -1 -35.001 -1c-14 0 -26 0.5 -36 1.5
s-18.333 2.66699 -25 5s-11.667 5.16602 -15 8.49902s-5.66602 7.33301 -6.99902 12l-292 925c-2 5.33301 -3.66699 10.333 -5 15s-2 9 -2 13c0 4.66699 1.16699 8.83398 3.5 12.501s5.83301 6.33398 10.5 8.00098s10.834 2.83398 18.501 3.50098s17.167 1 28.5 1
c14.667 0 26.667 -0.5 36 -1.5s16.166 -2.66699 20.499 -5s7.66602 -5.16602 9.99902 -8.49902s4.16602 -7.33301 5.49902 -12l251 -830l2 -7l2 7l228 830c1.33301 4.66699 3.16602 8.66699 5.49902 12s5.83301 6.16602 10.5 8.49902s11 4 19 5s18.333 1.5 31 1.5
c12 0 21.833 -0.5 29.5 -1.5s13.834 -2.66699 18.501 -5s8.16699 -5.16602 10.5 -8.49902s4.16602 -7.33301 5.49902 -12l246 -830l2 -7l1 7l250 830c1.33301 4.66699 3.16602 8.66699 5.49902 12s6 6.16602 11 8.49902s11.833 4 20.5 5s20 1.5 34 1.5
c11.333 0 20.5 -0.333008 27.5 -1s12.5 -2 16.5 -4s6.83301 -4.66699 8.5 -8s2.5 -7.33301 2.5 -12z" />
    <glyph glyph-name="x" unicode="x" horiz-adv-x="859" 
d="M818 17c5.33301 -8 8.16895 -15 8.50195 -21s-2 -11 -7 -15s-12.5 -6.83301 -22.5 -8.5s-22.667 -2.5 -38 -2.5c-14.667 0 -26.5 0.5 -35.5 1.5s-16 2.66699 -21 5s-9.16699 5.16602 -12.5 8.49902s-6.33301 7 -9 11l-256 397l-255 -397
c-2.66699 -4 -5.66699 -7.66699 -9 -11s-7.83301 -6.16602 -13.5 -8.49902s-12.834 -4 -21.501 -5s-20 -1.5 -34 -1.5c-14.667 0 -26.834 0.833008 -36.501 2.5s-16.834 4.5 -21.501 8.5s-6.83398 9 -6.50098 15s3.5 13 9.5 21l313 461l-298 451
c-5.33301 8 -8.16602 15 -8.49902 21s2 11 7 15s12.833 6.66699 23.5 8s23.667 2 39 2c14.667 0 26.334 -0.5 35.001 -1.5s15.5 -2.66699 20.5 -5s8.83301 -5 11.5 -8l9 -10.5l241 -372l248 372c2.66699 4 5.5 7.5 8.5 10.5s6.66699 5.66699 11 8s10.5 4 18.5 5
s19 1.5 33 1.5c14.667 0 27.167 -0.666992 37.5 -2s18 -3.83301 23 -7.5s7.33301 -8.5 7 -14.5s-3.83301 -13.333 -10.5 -22l-300 -447z" />
    <glyph glyph-name="y" unicode="y" horiz-adv-x="894" 
d="M522 -15l-132.002 -356.001c-3.33301 -7.33301 -10.666 -13.666 -21.999 -18.999s-29.333 -8 -54 -8c-12 0 -22.333 0.666992 -31 2s-15.167 4 -19.5 8s-6.83301 9 -7.5 15s0.666016 13 3.99902 21l134 337c-5.33301 2 -10.166 5.5 -14.499 10.5
s-7.16602 10.167 -8.49902 15.5l-345 927c-4 9.33301 -6 17 -6 23s2 10.833 6 14.5s10.333 6 19 7s20.334 1.5 35.001 1.5c15.333 0 27.666 -0.5 36.999 -1.5s16.5 -2.66699 21.5 -5s8.83301 -5.16602 11.5 -8.49902s5 -7.33301 7 -12l297 -830h4l292 830
c3.33301 9.33301 8 15.666 14 18.999s14 5.5 24 6.5s22 1.5 36 1.5c13.333 0 24.333 -0.666992 33 -2s15.167 -3.83301 19.5 -7.5s6.5 -8.5 6.5 -14.5s-2 -13.333 -6 -22z" />
    <glyph glyph-name="z" unicode="z" horiz-adv-x="824" 
d="M729 31c0 -9.33301 -0.833008 -17.501 -2.5 -24.501s-3.83398 -12.667 -6.50098 -17s-6.16699 -7.66602 -10.5 -9.99902s-8.83301 -3.5 -13.5 -3.5h-566c-12.667 0 -23.334 4.33301 -32.001 13s-13 22.667 -13 42v29c0 8 0.666992 15.167 2 21.5s3.33301 13 6 20
s6.33398 14.5 11.001 22.5l17 28l452 708h-443c-10 0 -18.167 4.5 -24.5 13.5s-9.5 22.833 -9.5 41.5c0 9.33301 0.833008 17.5 2.5 24.5s4 12.667 7 17s6.5 7.66602 10.5 9.99902s8.66699 3.5 14 3.5h525c6 0 11.833 -1.16699 17.5 -3.5s10.5 -5.5 14.5 -9.5
s7.16699 -9.5 9.5 -16.5s3.5 -15.5 3.5 -25.5v-24c0 -7.33301 -0.5 -14.5 -1.5 -21.5s-3 -14.167 -6 -21.5s-6.83301 -15.333 -11.5 -24s-10.667 -18.667 -18 -30l-450 -708h483c4.66699 0 9.16699 -1.16699 13.5 -3.5s7.83301 -5.66602 10.5 -9.99902
s4.83398 -10 6.50098 -17s2.5 -15.167 2.5 -24.5z" />
    <glyph glyph-name="braceleft" unicode="{" horiz-adv-x="736" 
d="M563 -307c0 -8 -0.663086 -15.002 -1.99609 -21.002s-3.33301 -10.667 -6 -14s-6 -6.16602 -10 -8.49902s-8 -3.5 -12 -3.5c-10 -1.33301 -18 -2 -24 -2h-27c-42.667 0 -77.334 7 -104.001 21s-47.5 34.833 -62.5 62.5s-25 62.5 -30 104.5s-7.5 98.333 -7.5 169v236
c0 50 -3 90.667 -9 122s-15.333 58.5 -28 81.5s-28.834 41.5 -48.501 55.5s-43.167 22 -70.5 24c-6 0.666992 -11 2 -15 4s-7 4.83301 -9 8.5s-3.33301 8.16699 -4 13.5s-1 11 -1 17c0 7.33301 0.333008 13.5 1 18.5s2 9.33301 4 13s5 6.33398 9 8.00098
s9 2.83398 15 3.50098c53.333 6 92.666 32.167 117.999 78.5s38 114.833 38 205.5v188c0 70 2.66699 126 8 168s15.833 77 31.5 105s36.667 49 63 63s60.166 21 101.499 21h24c6 0 14.333 -0.666992 25 -2c4.66699 0 9.16699 -1.16699 13.5 -3.5
s7.83301 -5.16602 10.5 -8.49902s4.66699 -8 6 -14s2 -13 2 -21s-0.666992 -15 -2 -21s-3.33301 -11.167 -6 -15.5s-6.16699 -7.33301 -10.5 -9s-8.83301 -2.5 -13.5 -2.5h-45c-17.333 0 -31.833 -3.16699 -43.5 -9.5s-21.334 -18.5 -29.001 -36.5s-13.5 -43.333 -17.5 -76
s-6 -82.334 -6 -149.001v-166c0 -50 -2.5 -92.667 -7.5 -128s-13.833 -67.5 -26.5 -96.5s-29.834 -53.5 -51.501 -73.5s-49.5 -33.333 -83.5 -40c34 -6 61.833 -19.167 83.5 -39.5s38.834 -44.833 51.501 -73.5s21.5 -60.667 26.5 -96s7.5 -78.333 7.5 -129v-213
c0 -66.667 2 -116.334 6 -149.001s9.83301 -58 17.5 -76s17.334 -30.167 29.001 -36.5s26.167 -9.5 43.5 -9.5h47c4 0 8 -0.833008 12 -2.5s7.33301 -4.66699 10 -9s4.66699 -9.5 6 -15.5s2 -13 2 -21z" />
    <glyph glyph-name="bar" unicode="|" horiz-adv-x="897" 
d="M522 -383c0 -4 -0.833008 -7.66699 -2.5 -11s-4.83398 -6.33301 -9.50098 -9s-10.834 -4.5 -18.501 -5.5s-17.167 -1.5 -28.5 -1.5s-20.666 0.5 -27.999 1.5s-13.333 2.83301 -18 5.5s-7.83398 5.66699 -9.50098 9s-2.5 7 -2.5 11v1829c0 4 0.833008 7.66699 2.5 11
s4.83398 6.16602 9.50098 8.49902s10.667 4.16602 18 5.49902s16.666 2 27.999 2s20.833 -0.666992 28.5 -2s13.834 -3.16602 18.501 -5.49902s7.83398 -5.16602 9.50098 -8.49902s2.5 -7 2.5 -11v-1829z" />
    <glyph glyph-name="braceright" unicode="}" horiz-adv-x="716" 
d="M586 565c0 -7.33301 -0.50293 -13.4971 -1.50293 -18.4971s-2.5 -9.33301 -4.5 -13s-5 -6.33398 -9 -8.00098s-8.66699 -2.83398 -14 -3.50098c-30.667 -2 -56 -12.333 -76 -31s-36 -42.5 -48 -71.5s-20.333 -61.667 -25 -98s-7 -80.5 -7 -132.5v-188
c0 -70 -2.83301 -126 -8.5 -168s-16.167 -77 -31.5 -105s-36.166 -49 -62.499 -63s-60.166 -21 -101.499 -21h-25c-6 0 -15.333 0.666992 -28 2c-4 0 -8 1.16699 -12 3.5s-7.33301 5.16602 -10 8.49902s-4.83398 8 -6.50098 14s-2.5 13 -2.5 21s0.833008 15 2.5 21
s3.83398 11.167 6.50098 15.5s6 7.33301 10 9s8 2.5 12 2.5h49c16.667 0 30.834 3.16699 42.501 9.5s21.5 18.5 29.5 36.5s13.833 43.333 17.5 76s5.5 82.334 5.5 149.001v166c0 50 2.5 95.167 7.5 135.5s13.833 77.833 26.5 112.5s30 64.667 52 90s49.667 41 83 47
c-33.333 6.66699 -61 17.5 -83 32.5s-39.333 34 -52 57s-21.5 49.667 -26.5 80s-7.5 70.833 -7.5 121.5v213c0 66.667 -1.83301 116.334 -5.5 149.001s-9.5 58 -17.5 76s-17.833 30.167 -29.5 36.5s-25.834 9.5 -42.501 9.5h-45c-6 0 -11.167 0.833008 -15.5 2.5
s-8 4.66699 -11 9s-5.16699 9.5 -6.5 15.5s-2 13 -2 21s0.666992 15 2 21s3.5 10.667 6.5 14s6.66699 6.16602 11 8.49902s9.5 3.5 15.5 3.5c10 1.33301 18 2 24 2h25c42 0 76.333 -7 103 -21s47.5 -34.833 62.5 -62.5s25.167 -62.5 30.5 -104.5s8 -98.333 8 -169v-236
c0 -50 3 -88 9 -114s15.333 -47.5 28 -64.5s28.834 -30 48.501 -39s43.167 -14.833 70.5 -17.5c5.33301 0 10 -1 14 -3s7 -5 9 -9s3.5 -8.33301 4.5 -13s1.5 -10.334 1.5 -17.001z" />
    <glyph glyph-name="asciitilde" unicode="~" horiz-adv-x="1047" 
d="M982 1022c-2 -42.667 -10.665 -80.5029 -25.998 -113.503s-35 -60.667 -59 -83s-51.5 -39.333 -82.5 -51s-62.5 -17.5 -94.5 -17.5c-35.333 0 -65.5 4.16699 -90.5 12.5s-47.167 19.333 -66.5 33s-36.166 29.167 -50.499 46.5l-40.5 50.5l-36.5 46.5
c-11.667 14.667 -24.334 27.667 -38.001 39s-28.834 20.333 -45.501 27s-35.334 10 -56.001 10c-27.333 0 -50.5 -5.66699 -69.5 -17s-34.333 -26.166 -46 -44.499s-20 -39.5 -25 -63.5s-7.5 -48.667 -7.5 -74c0 -11.333 -4.83301 -18.666 -14.5 -21.999
s-23.167 -5 -40.5 -5c-10.667 0 -19.5 0.5 -26.5 1.5s-12.333 2.66699 -16 5s-6.16699 5 -7.5 8s-2 6.5 -2 10.5v28c0 44 6.16699 83.167 18.5 117.5s30.166 63 53.499 86s51 40.5 83 52.5s67.667 18 107 18c34.667 0 64.667 -4 90 -12s47.666 -18.667 66.999 -32
s36.333 -28.5 51 -45.5s28.167 -33.667 40.5 -50l35.5 -46.5c11.333 -14.667 23.833 -27.667 37.5 -39s28.834 -20.5 45.501 -27.5s35.667 -10.5 57 -10.5c26.667 0 49.334 5.33301 68.001 16s34 25 46 43s20.667 39.167 26 63.5s8 50.5 8 78.5
c0 9.33301 4.5 15.833 13.5 19.5s22.167 5.5 39.5 5.5c10.667 0 19.5 -0.5 26.5 -1.5s12.667 -2.66699 17 -5s7.33301 -5.16602 9 -8.49902s2.16699 -7.33301 1.5 -12v-37z" />
    <glyph glyph-name="uni00A0" unicode="&#xa0;" horiz-adv-x="620" 
 />
    <glyph glyph-name="exclamdown" unicode="&#xa1;" horiz-adv-x="552" 
d="M396.5 1012c-1 -30.667 -12.001 -57.332 -33.001 -79.999s-46.5 -34 -76.5 -34c-29.333 0 -53.666 11 -72.999 33s-29 49.167 -29 81.5s10.5 59.333 31.5 81s45.833 32.5 74.5 32.5c30.667 0 56.167 -11.333 76.5 -34s30 -49.334 29 -80.001zM310.999 785.002
l40.999 -697c7.33301 -120 -20 -180 -82 -180c-59.333 0 -84.666 60 -75.999 180l78 736z" />
    <glyph glyph-name="cent" unicode="&#xa2;" horiz-adv-x="1106" 
d="M907 308c0 -17.333 -1.49707 -31 -4.49707 -41s-8.5 -19 -16.5 -27s-19.667 -17.667 -35 -29s-33 -22.166 -53 -32.499s-42.167 -19.5 -66.5 -27.5s-50.833 -13.667 -79.5 -17v-160c0 -4 -0.833008 -7.83301 -2.5 -11.5s-4.83398 -6.66699 -9.50098 -9
s-10.834 -4 -18.501 -5s-17 -1.5 -28 -1.5s-20.167 0.5 -27.5 1.5s-13.333 2.66699 -18 5s-7.83398 5.33301 -9.50098 9s-2.5 7.5 -2.5 11.5v158c-119.333 11.333 -209.166 59.666 -269.499 144.999s-90.5 205 -90.5 359c0 83.333 9 155.666 27 216.999
s43 113.166 75 155.499s70 75.333 114 99s92 38.834 144 45.501v160c0 4 0.833008 7.83301 2.5 11.5s4.83398 6.66699 9.50098 9s10.667 4 18 5s16.5 1.5 27.5 1.5s20.333 -0.5 28 -1.5s13.834 -2.66699 18.501 -5s7.83398 -5.33301 9.50098 -9s2.5 -7.5 2.5 -11.5v-158
c21.333 -2 42.833 -6.16699 64.5 -12.5s42.667 -14 63 -23s39.333 -19.5 57 -31.5s31.167 -22.333 40.5 -31s15.333 -15.334 18 -20.001s5 -9.5 7 -14.5s3.33301 -11 4 -18s1 -15.167 1 -24.5c0 -8 -0.5 -15.167 -1.5 -21.5s-2.66699 -12 -5 -17s-5.5 -9 -9.5 -12
s-8.33301 -4.5 -13 -4.5c-10.667 0 -22.834 6.5 -36.501 19.5s-31.5 27 -53.5 42s-49.167 29 -81.5 42s-72.5 19.5 -120.5 19.5c-38 0 -73.667 -7.16699 -107 -21.5s-63 -37.5 -89 -69.5s-46.5 -74 -61.5 -126s-22.5 -115.667 -22.5 -191
c0 -72.667 7.83301 -134.5 23.5 -185.5s37.167 -92.167 64.5 -123.5s59.166 -54.166 95.499 -68.499s75.166 -21.5 116.499 -21.5s77.333 6.66699 108 20s57.167 28 79.5 44s40.666 30.667 54.999 44s25.5 20 33.5 20c4.66699 0 8.5 -1.16699 11.5 -3.5
s5.5 -6.16602 7.5 -11.499s3.5 -11.833 4.5 -19.5s1.5 -16.5 1.5 -26.5z" />
    <glyph glyph-name="sterling" unicode="&#xa3;" horiz-adv-x="1106" 
d="M966 22c0 -10 -1.00195 -18.498 -3.00195 -25.498s-4.66699 -12.5 -8 -16.5s-7 -7.16699 -11 -9.5s-8 -3.5 -12 -3.5h-832c-4 0 -8 1.16699 -12 3.5s-7.66699 5.5 -11 9.5s-6 9.5 -8 16.5s-3 15.5 -3 25.5c0 8.66699 0.833008 16.5 2.5 23.5s4 12.667 7 17
s6.66699 7.83301 11 10.5s8.83301 4 13.5 4h139v533h-139c-4 0 -8 0.833008 -12 2.5s-7.66699 4.66699 -11 9s-6 9.83301 -8 16.5s-3 14.667 -3 24c0 8.66699 0.833008 16.334 2.5 23.001s4 12.334 7 17.001s6.66699 8 11 10s8.83301 3 13.5 3h139v142
c0 86.667 10 160.667 30 222s48 111.333 84 150s78.833 66.834 128.5 84.501s103.834 26.5 162.501 26.5c29.333 0 58 -2.83301 86 -8.5s54.167 -13.167 78.5 -22.5s46.166 -20.333 65.499 -33s33.833 -23.834 43.5 -33.501s16.167 -16.834 19.5 -21.501
s6.16602 -10 8.49902 -16s3.83301 -12.333 4.5 -19s1 -14.667 1 -24c0 -7.33301 -0.5 -14.333 -1.5 -21s-2.83301 -12.5 -5.5 -17.5s-5.66699 -8.83301 -9 -11.5s-7.66602 -4 -12.999 -4c-9.33301 0 -21.166 6.33301 -35.499 19s-32.833 26.667 -55.5 42s-50 29.333 -82 42
s-70.333 19 -115 19c-46 0 -85.667 -7.83301 -119 -23.5s-61.166 -38.834 -83.499 -69.501s-39 -69.167 -50 -115.5s-16.5 -99.833 -16.5 -160.5v-146h378c4.66699 0 9.16699 -1 13.5 -3s8 -5.33301 11 -10s5.33301 -10.334 7 -17.001s2.5 -14.334 2.5 -23.001
c0 -9.33301 -1 -17.333 -3 -24s-4.66699 -12.167 -8 -16.5s-7 -7.33301 -11 -9s-8 -2.5 -12 -2.5h-378v-533h567c4.66699 0 9.16699 -1.33301 13.5 -4s8 -6.16699 11 -10.5s5.33301 -10 7 -17s2.5 -14.833 2.5 -23.5z" />
    <glyph glyph-name="currency" unicode="&#xa4;" horiz-adv-x="1106" 
d="M794 871c30 -34.667 52.499 -75.3311 67.499 -121.998s22.5 -98.334 22.5 -155.001c0 -57.333 -9.33301 -111.5 -28 -162.5s-45.667 -95.5 -81 -133.5l157 -222c5.33301 -8 8.66602 -15.167 9.99902 -21.5s0.166016 -11.833 -3.50098 -16.5s-9.5 -8.16699 -17.5 -10.5
s-18.667 -3.5 -32 -3.5c-12 0 -22.167 0.333008 -30.5 1s-15.666 1.66699 -21.999 3s-11.833 3.33301 -16.5 6s-8.33398 6.33398 -11.001 11.001l-124 183c-27.333 -14.667 -56.666 -26.167 -87.999 -34.5s-65 -12.5 -101 -12.5c-33.333 0 -64.333 3 -93 9
s-55.334 15 -80.001 27l-125 -186c-2.66699 -4 -6.16699 -7.5 -10.5 -10.5s-9.66602 -5.16699 -15.999 -6.5s-13.833 -2.33301 -22.5 -3s-19 -1 -31 -1c-13.333 0 -24 1.16699 -32 3.5s-13.667 5.66602 -17 9.99902s-4.5 9.66602 -3.5 15.999s4.16699 13.166 9.5 20.499
l157 221c-35.333 34.667 -61.5 77.667 -78.5 129s-25.5 107 -25.5 167c0 58.667 8.5 112.5 25.5 161.5s41.5 92.5 73.5 130.5l-157 223c-5.33301 8 -8.66602 15.333 -9.99902 22s-0.166016 12.334 3.50098 17.001s9.5 8.16699 17.5 10.5s18.667 3.5 32 3.5
c11.333 0 21.333 -0.333008 30 -1s16.167 -1.66699 22.5 -3s11.833 -3.5 16.5 -6.5s8.33398 -6.5 11.001 -10.5l124 -184c27.333 14.667 57.333 26.167 90 34.5s68.334 12.5 107.001 12.5c37.333 0 71.833 -3.83301 103.5 -11.5s61.167 -19.5 88.5 -35.5l125 187
c2.66699 4 6.16699 7.66699 10.5 11s9.66602 5.66602 15.999 6.99902s13.833 2.33301 22.5 3s19 1 31 1c13.333 0 24 -1.16699 32 -3.5s13.833 -6 17.5 -11s4.66699 -10.667 3 -17s-4.83398 -13.166 -9.50098 -20.499zM764.999 575.003
c0 40.667 -4.66797 79.832 -14.001 117.499s-24.333 70.834 -45 99.501s-47.5 51.834 -80.5 69.501s-72.833 26.5 -119.5 26.5c-42.667 0 -80.167 -7.33301 -112.5 -22s-59.333 -35.167 -81 -61.5s-38 -57.333 -49 -93s-16.5 -74.834 -16.5 -117.501
c0 -44 4.66699 -85 14 -123s24.5 -71 45.5 -99s48.333 -49.833 82 -65.5s74.834 -23.5 123.501 -23.5c42 0 78.833 7.83301 110.5 23.5s58 36.834 79 63.501s36.833 57.667 47.5 93s16 72.666 16 111.999z" />
    <glyph glyph-name="yen" unicode="&#xa5;" 
d="M583 597l-0.00195312 -69.0029h306c8.66699 0 15.667 -4 21 -12s8 -20 8 -36c0 -18.667 -3.16699 -31.5 -9.5 -38.5s-12.833 -10.5 -19.5 -10.5h-306v-185h306c8.66699 0 15.667 -4 21 -12s8 -20 8 -36c0 -18.667 -3.16699 -31.667 -9.5 -39s-12.833 -11 -19.5 -11h-306
v-160c0 -4.66699 -1 -8.66699 -3 -12s-5.5 -6.16602 -10.5 -8.49902s-11.667 -4 -20 -5s-18.5 -1.5 -30.5 -1.5s-22.167 0.5 -30.5 1.5s-15 2.66699 -20 5s-8.5 5.16602 -10.5 8.49902s-3 7.33301 -3 12v160h-306c-6.66699 0 -13.167 3.66699 -19.5 11s-9.5 20.333 -9.5 39
c0 16 3 28 9 36s12.667 12 20 12h306v185h-306c-6.66699 0 -13.167 3.5 -19.5 10.5s-9.5 19.833 -9.5 38.5c0 16 3 28 9 36s12.667 12 20 12h306v69l-403 686c-6 10 -9.33301 18.167 -10 24.5s1.5 11.333 6.5 15s12.5 6.33398 22.5 8.00098s23.333 2.5 40 2.5
c13.333 0 24.333 -0.5 33 -1.5s15.834 -2.66699 21.501 -5s10.167 -5.16602 13.5 -8.49902s6.33301 -7.66602 9 -12.999l180 -316c26.667 -46 52.834 -93.5 78.501 -142.5l78.5 -149.5l78 149.5c25.333 49 51.333 96.5 78 142.5l177 316c2 4.66699 4.5 8.66699 7.5 12
s6.83301 6 11.5 8s11.5 3.83301 20.5 5.5s20.5 2.5 34.5 2.5c15.333 0 27.833 -1 37.5 -3s16.667 -4.66699 21 -8s6 -8.33301 5 -15s-4.16699 -14.667 -9.5 -24z" />
    <glyph glyph-name="brokenbar" unicode="&#xa6;" horiz-adv-x="447" 
d="M272 764c0 -4 -0.833008 -7.83301 -2.5 -11.5s-4.83398 -6.66699 -9.50098 -9s-10.834 -4 -18.501 -5s-17.167 -1.5 -28.5 -1.5s-20.833 0.5 -28.5 1.5s-13.834 2.66699 -18.501 5s-7.83398 5.33301 -9.50098 9s-2.5 7.5 -2.5 11.5v707c0 4 0.833008 7.83301 2.5 11.5
s4.83398 6.5 9.50098 8.5s10.834 3.66699 18.501 5s17.167 2 28.5 2s20.833 -0.666992 28.5 -2s13.834 -3 18.501 -5s7.83398 -4.83301 9.50098 -8.5s2.5 -7.5 2.5 -11.5v-707zM272 -416c0 -4 -0.833008 -7.83301 -2.5 -11.5s-4.83398 -6.5 -9.50098 -8.5
s-10.834 -3.66699 -18.501 -5s-17.167 -2 -28.5 -2s-20.833 0.666992 -28.5 2s-13.834 3 -18.501 5s-7.83398 4.83301 -9.50098 8.5s-2.5 7.5 -2.5 11.5v720c0 4.66699 0.833008 8.66699 2.5 12s4.83398 6.33301 9.50098 9s10.834 4.5 18.501 5.5s17.167 1.5 28.5 1.5
s20.833 -0.5 28.5 -1.5s13.834 -2.83301 18.501 -5.5s7.83398 -5.66699 9.50098 -9s2.5 -7.33301 2.5 -12v-720z" />
    <glyph glyph-name="section" unicode="&#xa7;" horiz-adv-x="1106" 
d="M913 536c0 -27.333 -4.3291 -54.498 -12.9961 -81.498s-21 -53 -37 -78s-35 -48.333 -57 -70s-46.333 -40.5 -73 -56.5c26.667 -25.333 46.667 -53.666 60 -84.999s20 -67 20 -107c0 -46.667 -8.66699 -88.334 -26 -125.001s-42 -67.834 -74 -93.501
s-69.833 -45 -113.5 -58s-91.834 -19.5 -144.501 -19.5c-34.667 0 -67.167 3.16699 -97.5 9.5s-57.166 14 -80.499 23s-42.833 18.333 -58.5 28s-25.834 16.834 -30.501 21.501s-8 8.66699 -10 12s-3.66699 7.66602 -5 12.999s-2.33301 11.166 -3 17.499
s-1 13.166 -1 20.499c0 8.66699 0.666992 16.5 2 23.5s3 13 5 18s4.83301 8.83301 8.5 11.5s7.5 4 11.5 4c10 0 21.333 -4.83301 34 -14.5s29.334 -20.334 50.001 -32.001s46.334 -22.334 77.001 -32.001s68 -14.5 112 -14.5c30 0 58.167 3.5 84.5 10.5s49 17.667 68 32
s34 32.333 45 54s16.5 47.5 16.5 77.5c0 28 -3.83301 52.333 -11.5 73s-19.834 39.334 -36.501 56.001s-38.167 32 -64.5 46s-57.833 28.333 -94.5 43l-91 37c-40.667 16 -77.5 33.667 -110.5 53s-61.167 41.5 -84.5 66.5s-41.5 53.5 -54.5 85.5s-19.5 69.667 -19.5 113
c0 27.333 4.33301 54.666 13 81.999s21.167 53.5 37.5 78.5s35.666 48.333 57.999 70s46.833 40.167 73.5 55.5c-27.333 26.667 -47.833 56.334 -61.5 89.001s-20.5 72 -20.5 118c0 40 7.5 76.333 22.5 109s36.5 60.834 64.5 84.501s61.667 41.834 101 54.501s83 19 131 19
c25.333 0 49.666 -2 72.999 -6s44.666 -9.33301 63.999 -16s36.166 -14 50.499 -22s24 -14.167 29 -18.5s8.33301 -8.16602 10 -11.499s3.16699 -7.5 4.5 -12.5s2.33301 -10.667 3 -17s1 -13.666 1 -21.999s-0.5 -15.833 -1.5 -22.5s-2.5 -12.5 -4.5 -17.5
s-4.66699 -8.66699 -8 -11s-7 -3.5 -11 -3.5c-5.33301 0 -13 3.83301 -23 11.5s-23.333 16.167 -40 25.5s-37.667 18.166 -63 26.499s-55.333 12.5 -90 12.5c-33.333 0 -61.5 -4.83301 -84.5 -14.5s-41.833 -21.834 -56.5 -36.501s-25.334 -31.334 -32.001 -50.001
s-10 -37 -10 -55c0 -30 4 -56 12 -78s20.5 -41.667 37.5 -59s38.333 -33.166 64 -47.499s56.834 -28.833 93.501 -43.5l91 -36c40.667 -17.333 77.5 -35.333 110.5 -54s61.167 -40.5 84.5 -65.5s41.5 -53.667 54.5 -86s19.5 -69.833 19.5 -112.5zM784.004 530.002
c0 54.667 -16.332 98.667 -48.999 132s-83.334 63.333 -152.001 90l-91 37c-19.333 8 -37.666 16.167 -54.999 24.5s-34 17.166 -50 26.499c-49.333 -22 -85.333 -52.667 -108 -92s-34 -80.666 -34 -123.999c0 -27.333 4 -51.666 12 -72.999s20.333 -40.833 37 -58.5
s37.5 -33.834 62.5 -48.501s54.833 -28.667 89.5 -42l91 -37c19.333 -7.33301 37.666 -15.333 54.999 -24s34 -17.667 50 -27c49.333 21.333 85.333 52 108 92s34 81.333 34 124z" />
    <glyph glyph-name="dieresis" unicode="&#xa8;" horiz-adv-x="730" 
d="M717.902 1356.55c0 -53.8994 -18.8994 -99.9238 -56.6992 -138.073s-83.999 -57.2246 -138.599 -57.2246c-25.8994 0 -51.2744 5.25 -76.124 15.75s-46.1992 24.6748 -64.0488 42.5244c-17.8506 17.8496 -31.6758 38.3242 -41.4756 61.4248
c-9.7998 23.0996 -14.7002 48.2988 -14.7002 75.5986s4.90039 52.8496 14.7002 76.6494s23.625 44.4492 41.4756 61.9492c17.8496 17.5 39.1992 31.3252 64.0488 41.4746s50.2246 15.2246 76.124 15.2246c54.5996 0 100.799 -18.8994 138.599 -56.6992
s56.6992 -83.999 56.6992 -138.599zM355.902 1359.55c0 -53.8994 -18.8994 -99.9238 -56.6992 -138.073s-83.999 -57.2246 -138.599 -57.2246c-25.8994 0 -51.2744 5.25 -76.124 15.75s-46.1992 24.6748 -64.0488 42.5244
c-17.8506 17.8496 -31.6758 38.3242 -41.4756 61.4248c-9.7998 23.0996 -14.7002 48.2988 -14.7002 75.5986s4.90039 52.8496 14.7002 76.6494s23.625 44.4492 41.4756 61.9492c17.8496 17.5 39.1992 31.3252 64.0488 41.4746s50.2246 15.2246 76.124 15.2246
c54.5996 0 100.799 -18.8994 138.599 -56.6992s56.6992 -83.999 56.6992 -138.599z" />
    <glyph glyph-name="copyright" unicode="&#xa9;" horiz-adv-x="1388" 
d="M694 45c111.333 0 204.168 16.9961 278.501 50.9961s133.666 81 177.999 141s76 130.5 95 211.5s28.5 168.5 28.5 262.5c0 98.667 -10.667 186.834 -32 264.501s-55.833 143.334 -103.5 197.001s-109.667 94.667 -186 123s-169.5 42.5 -279.5 42.5
c-96 0 -180.333 -13.667 -253 -41s-133.167 -68.666 -181.5 -123.999s-84.333 -124.666 -108 -207.999s-35.5 -181 -35.5 -293c0 -102 11.167 -192 33.5 -270s57.5 -143.5 105.5 -196.5s110 -93 186 -120s167.333 -40.5 274 -40.5zM1387 719.996
c0 -134 -15.1719 -249.666 -45.5049 -346.999s-75.166 -177.5 -134.499 -240.5s-132.666 -109.5 -219.999 -139.5s-188 -45 -302 -45c-117.333 0 -220.166 14.833 -308.499 44.5s-161.666 74.334 -219.999 134.001s-102 134.167 -131 223.5s-43.5 193.666 -43.5 312.999
c0 130 14.333 243.333 43 340s72.167 177 130.5 241s131.5 111.833 219.5 143.5s190.667 47.5 308 47.5c124 0 230.167 -16 318.5 -48s161.333 -78.667 219 -140s99.834 -136.333 126.501 -225s40 -189.334 40 -302.001zM980.997 383.997
c0 -7.33301 -0.336914 -14.165 -1.00391 -20.498s-1.83398 -12 -3.50098 -17s-3.66699 -9.33301 -6 -13s-6.66602 -8.83398 -12.999 -15.501s-18.333 -16 -36 -28s-38 -23 -61 -33s-48.667 -18.167 -77 -24.5s-58.833 -9.5 -91.5 -9.5c-61.333 0 -115.666 10 -162.999 30
s-86.833 49.5 -118.5 88.5s-55.834 87.167 -72.501 144.5s-25 124 -25 200c0 83.333 10 154.833 30 214.5s47.5 108.667 82.5 147s76.167 66.5 123.5 84.5s98.333 27 153 27c28 0 54.667 -2.83301 80 -8.5s49.166 -13 71.499 -22s42.5 -19.5 60.5 -31.5
s31.167 -22.167 39.5 -30.5s13.833 -14.333 16.5 -18s4.83398 -8 6.50098 -13s2.83398 -10.667 3.50098 -17s1 -12.833 1 -19.5c0 -8 -0.666992 -15 -2 -21s-3 -11 -5 -15s-4.66699 -7.16699 -8 -9.5s-7 -3.5 -11 -3.5c-12 0 -24.667 5.66699 -38 17
s-29.666 23.666 -48.999 36.999s-43 25.5 -71 36.5s-63 16.5 -105 16.5c-82.667 0 -146.167 -31.333 -190.5 -94s-66.5 -153.667 -66.5 -273c0 -62.667 6 -116.667 18 -162s29.5 -83 52.5 -113s51.167 -52.333 84.5 -67s71.333 -22 114 -22
c38.667 0 71.834 5.83301 99.501 17.5s51.334 24.5 71.001 38.5s36.167 27 49.5 39s25 18 35 18c3.33301 0 6.5 -1 9.5 -3s5.33301 -5.33301 7 -10s3 -10.5 4 -17.5s1.5 -15.167 1.5 -24.5z" />
    <glyph glyph-name="ordfeminine" unicode="&#xaa;" horiz-adv-x="736" 
d="M658 634c0 -4 -0.998047 -7.16699 -2.99805 -9.5s-5.16699 -4.33301 -9.5 -6s-9.83301 -3 -16.5 -4s-14.334 -1.5 -23.001 -1.5c-10.667 0 -19.5 0.5 -26.5 1.5s-12.667 2.33301 -17 4s-7.33301 3.66699 -9 6s-2.5 5.5 -2.5 9.5v65h-2
c-28 -31.333 -59.667 -55.5 -95 -72.5s-73.666 -25.5 -114.999 -25.5c-34.667 0 -66 4.5 -94 13.5s-51.833 22.167 -71.5 39.5s-35 38.5 -46 63.5s-16.5 54.167 -16.5 87.5c0 36 7.5 67.833 22.5 95.5s36.167 50.5 63.5 68.5s60.333 31.5 99 40.5s81.667 13.5 129 13.5h109
v49c0 24.667 -2.83301 46.667 -8.5 66s-14.667 35.5 -27 48.5s-28.833 22.833 -49.5 29.5s-46.334 10 -77.001 10c-25.333 0 -49.5 -3.5 -72.5 -10.5s-43.167 -14.5 -60.5 -22.5s-31.833 -15.5 -43.5 -22.5s-19.5 -10.5 -23.5 -10.5
c-9.33301 0 -16.666 4.83301 -21.999 14.5s-8 23.5 -8 41.5c0 7.33301 0.666992 13.666 2 18.999s3.16602 9.83301 5.49902 13.5s5.66602 7.33398 9.99902 11.001s16.333 10.5 36 20.5s46.667 20.333 81 31s73.166 16 116.499 16c50 0 91.833 -6.33301 125.5 -19
s60.834 -30 81.501 -52s35.5 -48.333 44.5 -79s13.5 -63.667 13.5 -99v-444zM664.002 383c0 -18.667 -2.66699 -31.834 -8 -39.501s-13.666 -11.5 -24.999 -11.5h-495c-10.667 0 -18.667 3.83301 -24 11.5s-8 20.834 -8 39.501c0 19.333 2.66699 32.833 8 40.5
s13.333 11.5 24 11.5h495c11.333 0 19.666 -3.83301 24.999 -11.5s8 -21.167 8 -40.5zM534.002 934l-106 0.00195312c-32.667 0 -60.834 -2.83301 -84.501 -8.5s-43.167 -13.834 -58.5 -24.501s-26.666 -23.667 -33.999 -39s-11 -32.333 -11 -51
c0 -35.333 10.833 -62.833 32.5 -82.5s51.5 -29.5 89.5 -29.5c16.667 0 32 1.66699 46 5s27.667 8.66602 41 15.999s26.833 17 40.5 29s28.5 26.333 44.5 43v142z" />
    <glyph glyph-name="guillemotleft" unicode="&#xab;" horiz-adv-x="1006" 
d="M846 145c4.66699 -5.33301 7 -10.3359 7 -15.0029s-2 -8.5 -6 -11.5s-10.167 -5.5 -18.5 -7.5s-19.166 -3 -32.499 -3s-24 0.333008 -32 1s-14.667 1.83398 -20 3.50098s-9.5 3.83398 -12.5 6.50098s-6.5 7 -10.5 13l-230 346c-9.33301 14.667 -14 28.5 -14 41.5
s4.66699 26.5 14 40.5l230 346c4 5.33301 7.5 9.5 10.5 12.5s7.16699 5.33301 12.5 7s12 2.83398 20 3.50098s18.667 1 32 1s24.166 -1 32.499 -3s14.5 -4.5 18.5 -7.5s6 -6.83301 6 -11.5s-2.33301 -9.66699 -7 -15l-239 -374zM245 516.997l231 -385.002
c4 -6.66699 6.33301 -12.667 7 -18s-0.5 -9.83301 -3.5 -13.5s-8.5 -6.66699 -16.5 -9s-18.333 -3.5 -31 -3.5s-22.834 0.333008 -30.501 1s-14.167 1.83398 -19.5 3.50098s-9.66602 4 -12.999 7s-6.66602 7.5 -9.99902 13.5l-230 363c-10 16 -15 30.667 -15 44
s5 27.333 15 42l230 364c3.33301 5.33301 6.66602 9.5 9.99902 12.5s7.66602 5.33301 12.999 7s11.833 2.83398 19.5 3.50098s17.834 1 30.501 1s23 -1 31 -3s13.667 -4.83301 17 -8.5s4.83301 -8 4.5 -13s-2.5 -10.5 -6.5 -16.5z" />
    <glyph glyph-name="logicalnot" unicode="&#xac;" horiz-adv-x="1111" 
d="M937 339c0 -5.33301 -1.16309 -9.83691 -3.49609 -13.5039s-6 -6.66699 -11 -9s-11.333 -4.16602 -19 -5.49902s-17.167 -2 -28.5 -2c-10.667 0 -19.834 0.666992 -27.501 2s-13.834 3.16602 -18.501 5.49902s-8.33398 5.33301 -11.001 9s-4 8.16699 -4 13.5v171h-732
c-5.33301 0 -10.166 1.16699 -14.499 3.5s-7.83301 6 -10.5 11s-4.83398 11.333 -6.50098 19s-2.5 16.334 -2.5 26.001s0.833008 18.334 2.5 26.001s3.83398 13.834 6.50098 18.501s6.16699 8.33398 10.5 11.001s9.16602 4 14.499 4h789
c25.333 0 42.666 -3.66699 51.999 -11s14 -23.333 14 -48v-231z" />
    <glyph glyph-name="registered" unicode="&#xae;" horiz-adv-x="1068" 
d="M916 1022c0 -56 -10.332 -108.337 -30.999 -157.004s-48.834 -91 -84.501 -127s-77.834 -64.333 -126.501 -85s-101 -31 -157 -31c-58 0 -111.167 10 -159.5 30s-89.833 47.667 -124.5 83s-61.834 77.333 -81.501 126s-29.5 101.667 -29.5 159
c0 56 10.333 108.333 31 157s48.834 90.834 84.501 126.501s77.834 63.834 126.501 84.501s101 31 157 31c58 0 111.167 -10 159.5 -30s90 -47.667 125 -83s62.167 -77.166 81.5 -125.499s29 -101.166 29 -158.499zM838.001 1016c0 50 -8.00098 95.667 -24.001 137
s-38.167 76.666 -66.5 105.999s-62 52 -101 68s-80.833 24 -125.5 24c-48 0 -91.833 -8.83301 -131.5 -26.5s-73.5 -41.334 -101.5 -71.001s-49.667 -64.167 -65 -103.5s-23 -81 -23 -125c0 -50 8 -95.667 24 -137s38.167 -76.666 66.5 -105.999s61.833 -52 100.5 -68
s80.667 -24 126 -24c48.667 0 92.834 8.83301 132.501 26.5s73.5 41.334 101.5 71.001s49.5 64.167 64.5 103.5s22.5 81 22.5 125zM704 818.996c0 -2.66699 -0.333008 -5.00098 -1 -7.00098s-2.83398 -3.5 -6.50098 -4.5s-8.83398 -1.83301 -15.501 -2.5s-16 -1 -28 -1
c-9.33301 0 -17.333 0.333008 -24 1s-12.167 1.83398 -16.5 3.50098s-7.66602 3.83398 -9.99902 6.50098s-4.16602 6.66699 -5.49902 12l-23 74c-9.33301 28 -20.666 47.667 -33.999 59s-33.333 17 -60 17h-29v-155c0 -6.66699 -2.5 -11.334 -7.5 -14.001
s-16.833 -4 -35.5 -4c-20 0 -32.667 1.33301 -38 4s-8 7.33398 -8 14.001v387c0 13.333 3.16699 24 9.5 32s16.5 12 30.5 12h113c29.333 0 54.666 -2.83301 75.999 -8.5s39 -13.834 53 -24.501s24.333 -24 31 -40s10 -33.667 10 -53c0 -34 -9.33301 -60.333 -28 -79
s-43.334 -32 -74.001 -40c16.667 -5.33301 32.334 -14.833 47.001 -28.5s27.667 -34.167 39 -61.5l27 -71c5.33301 -14.667 8 -24 8 -28zM587 1117c0 8 -1.16797 15.667 -3.50098 23s-6.66602 13.833 -12.999 19.5s-15 10 -26 13s-24.833 4.5 -41.5 4.5h-52v-128h50
c32.667 0 55.167 6.16699 67.5 18.5s18.5 28.833 18.5 49.5z" />
    <glyph glyph-name="macron" unicode="&#xaf;" horiz-adv-x="854" 
d="M650 1280c4 0 7.66699 -1.16699 11 -3.5s6.16602 -5.5 8.49902 -9.5s4.16602 -9.33301 5.49902 -16s2 -14.667 2 -24c0 -8.66699 -0.666992 -16 -2 -22s-3.16602 -11.333 -5.49902 -16s-5.16602 -8.33398 -8.49902 -11.001s-7 -4 -11 -4h-486
c-4.66699 0 -8.66699 1.33301 -12 4s-6.33301 6.33398 -9 11.001s-4.66699 10 -6 16s-2 13.333 -2 22c0 9.33301 0.666992 17.333 2 24s3.33301 12 6 16s5.66699 7.16699 9 9.5s7.33301 3.5 12 3.5h486z" />
    <glyph glyph-name="degree" unicode="&#xb0;" horiz-adv-x="796" 
d="M397 1456c39.333 0 76.168 -7.83301 110.501 -23.5s64 -36.5 89 -62.5s44.833 -56.167 59.5 -90.5s22 -70.166 22 -107.499c0 -38.667 -7.33301 -75.167 -22 -109.5s-34.834 -64.333 -60.501 -90s-55.5 -46.167 -89.5 -61.5s-70.333 -23 -109 -23
c-38 0 -74.167 7.5 -108.5 22.5s-64.333 35.167 -90 60.5s-45.834 55.5 -60.501 90.5s-22 71.833 -22 110.5s7.33301 75.167 22 109.5s34.834 64.166 60.501 89.499s55.667 45.833 90 61.5s70.5 23.5 108.5 23.5zM397.002 1000c24 0 46.667 4.66699 68 14
s39.666 21.833 54.999 37.5s27.5 34 36.5 55s13.5 42.833 13.5 65.5c0 24 -4.5 46.333 -13.5 67s-21.333 38.834 -37 54.501s-34 28 -55 37s-43.5 13.5 -67.5 13.5s-46.167 -4.33301 -66.5 -13s-38.166 -20.834 -53.499 -36.501s-27.5 -34 -36.5 -55
s-13.5 -43.5 -13.5 -67.5c0 -22.667 4.33301 -44.5 13 -65.5s20.5 -39.333 35.5 -55s33 -28.167 54 -37.5s43.5 -14 67.5 -14z" />
    <glyph glyph-name="plusminus" unicode="&#xb1;" horiz-adv-x="1161" 
d="M962 707c0 -20.667 -3.66602 -36 -10.999 -46s-16 -15 -26 -15h-355v-397c0 -4 -1 -7.66699 -3 -11s-5.5 -6.16602 -10.5 -8.49902s-11.167 -4.16602 -18.5 -5.49902s-16.666 -2 -27.999 -2c-10.667 0 -19.834 0.666992 -27.501 2s-14 3.16602 -19 5.49902
s-8.66699 5.16602 -11 8.49902s-3.5 7 -3.5 11v397h-354c-10 0 -18.667 5 -26 15s-11 25.333 -11 46c0 9.33301 1 17.666 3 24.999s4.66699 13.333 8 18s7.16602 8.33398 11.499 11.001s9.16602 4 14.499 4h354v398c0 4.66699 1.16699 8.66699 3.5 12s6 6.5 11 9.5
s11.333 5.16699 19 6.5s16.834 2 27.501 2c11.333 0 20.666 -0.666992 27.999 -2s13.5 -3.5 18.5 -6.5s8.5 -6.16699 10.5 -9.5s3 -7.33301 3 -12v-398h355c4.66699 0 9.33398 -1.33301 14.001 -4s8.66699 -6.33398 12 -11.001s6 -10.667 8 -18s3 -15.666 3 -24.999z
M959.001 30c0 -11.333 -1.00098 -20.833 -3.00098 -28.5s-4.66699 -13.834 -8 -18.501s-7 -7.83398 -11 -9.50098s-8 -2.5 -12 -2.5h-826c-4 0 -8 0.833008 -12 2.5s-7.83301 4.83398 -11.5 9.50098s-6.5 10.834 -8.5 18.501s-3 17.167 -3 28.5
c0 10 0.833008 18.833 2.5 26.5s4 13.834 7 18.501s6.83301 8.33398 11.5 11.001s9.33398 4 14.001 4h826c4.66699 0 9.16699 -1.33301 13.5 -4s8 -6.33398 11 -11.001s5.33301 -10.834 7 -18.501s2.5 -16.5 2.5 -26.5z" />
    <glyph glyph-name="twosuperior" unicode="&#xb2;" horiz-adv-x="662" 
d="M616 756c0 -14.667 -2.16992 -26.8301 -6.50293 -36.4971s-10.833 -14.5 -19.5 -14.5h-484c-6 0 -11.167 0.833008 -15.5 2.5s-8.16602 4.16699 -11.499 7.5s-5.83301 7.83301 -7.5 13.5s-2.5 12.834 -2.5 21.501c0 8 0.333008 14.833 1 20.5s2 11.167 4 16.5
s4.66699 10.166 8 14.499l12 15.5l173 169c40.667 38.667 73.334 73.667 98.001 105s43.667 59.666 57 84.999s21.833 48.333 25.5 69s5.5 40.667 5.5 60c0 36 -12.667 66 -38 90s-61.666 36 -108.999 36c-28 0 -53 -3.66699 -75 -11s-41.167 -15.166 -57.5 -23.499
s-30.166 -16.166 -41.499 -23.499s-19.333 -11 -24 -11c-2.66699 0 -5.5 1 -8.5 3s-5.5 5 -7.5 9s-3.5 9 -4.5 15s-1.5 13 -1.5 21c0 12 1 22.167 3 30.5s6 15.5 12 21.5s16 13.167 30 21.5s30.833 16.166 50.5 23.499s41.334 13.5 65.001 18.5s48.834 7.5 75.501 7.5
c42.667 0 80 -5.83301 112 -17.5s58.5 -27.334 79.5 -47.001s36.5 -42.834 46.5 -69.501s15 -55 15 -85c0 -24 -2.33301 -48.333 -7 -73s-14.834 -52 -30.501 -82s-38.334 -63.333 -68.001 -100s-69.834 -79.334 -120.501 -128.001l-131 -125h372
c7.33301 0 13.5 -4.66699 18.5 -14s7.5 -21.333 7.5 -36z" />
    <glyph glyph-name="threesuperior" unicode="&#xb3;" horiz-adv-x="662" 
d="M601 936c0 -36.667 -6.66797 -69.8359 -20.001 -99.5029s-32.833 -55 -58.5 -76s-57.5 -37.333 -95.5 -49s-81.667 -17.5 -131 -17.5c-33.333 0 -63.5 2.33301 -90.5 7s-50 10.167 -69 16.5s-34 12.333 -45 18s-17.667 9.83398 -20 12.501s-4.5 5.5 -6.5 8.5
s-3.5 6.66699 -4.5 11s-1.83301 9.83301 -2.5 16.5s-1 14.667 -1 24c0 12.667 1.83301 23.834 5.5 33.501s9.16699 14.5 16.5 14.5c4 0 11.833 -3.33301 23.5 -10s26.834 -13.834 45.501 -21.501s40.334 -14.834 65.001 -21.501s52 -10 82 -10
c59.333 0 104.666 11.667 135.999 35s47 56.333 47 99c0 23.333 -4.83301 44 -14.5 62s-24 33.333 -43 46s-42.167 22.167 -69.5 28.5s-58.666 9.5 -93.999 9.5h-82c-4.66699 0 -8.5 1 -11.5 3s-5.66699 5.33301 -8 10s-4.33301 10.167 -6 16.5s-2.5 13.833 -2.5 22.5
c0 7.33301 0.833008 13.833 2.5 19.5s3.66699 10.334 6 14.001s5 6.66699 8 9s6.83301 3.5 11.5 3.5h75c62 0 110.333 12.833 145 38.5s52 62.167 52 109.5c0 35.333 -11.667 63.5 -35 84.5s-58.333 31.5 -105 31.5c-26.667 0 -51.5 -3.5 -74.5 -10.5
s-43.5 -14.833 -61.5 -23.5s-33 -16.5 -45 -23.5s-20 -10.5 -24 -10.5c-6.66699 0 -11.5 3.66699 -14.5 11s-4.5 19.333 -4.5 36c0 7.33301 0.333008 13.666 1 18.999s1.66699 10 3 14s2.83301 7.5 4.5 10.5s4.5 6.5 8.5 10.5s13.833 10 29.5 18s33.667 15.333 54 22
s42.166 12.5 65.499 17.5s46.333 7.5 69 7.5c42.667 0 79.5 -4.83301 110.5 -14.5s56.667 -23.5 77 -41.5s35.333 -39.167 45 -63.5s14.5 -51.5 14.5 -81.5c0 -51.333 -14.333 -94.666 -43 -129.999s-70 -58 -124 -68v-2c28 -2 54.333 -8.16699 79 -18.5
s46.167 -24.166 64.5 -41.499s32.833 -37.666 43.5 -60.999s16 -48.333 16 -75z" />
    <glyph glyph-name="acute" unicode="&#xb4;" horiz-adv-x="581" 
d="M302 1372c4.66699 6.66699 9.33301 12.501 14 17.501s10.334 8.66699 17.001 11s14.834 4.16602 24.501 5.49902s21.167 2 34.5 2s24.166 -1.16699 32.499 -3.5s14.166 -5.33301 17.499 -9s4.5 -8.16699 3.5 -13.5s-3.83301 -11 -8.5 -17l-183 -246
c-4.66699 -7.33301 -9 -12.833 -13 -16.5s-8.33301 -6.66699 -13 -9s-10.5 -3.83301 -17.5 -4.5s-15.833 -1 -26.5 -1s-19.334 1 -26.001 3s-11.167 4.5 -13.5 7.5s-3.16602 7 -2.49902 12s3 10.5 7 16.5z" />
    <glyph glyph-name="mu" unicode="&#xb5;" 
d="M1108 47c0 -16 -1.00195 -28.3311 -3.00195 -36.998s-5 -14.834 -9 -18.501s-9.16699 -6.66699 -15.5 -9s-14.333 -4.5 -24 -6.5s-19.667 -3.5 -30 -4.5s-21.833 -1.5 -34.5 -1.5c-58 0 -102.833 13 -134.5 39s-51.5 70.667 -59.5 134
c-54.667 -60.667 -108.5 -104.667 -161.5 -132s-105.5 -41 -157.5 -41c-45.333 0 -86.5 6.33301 -123.5 19s-67.833 35 -92.5 67c0.666992 -13.333 1.33398 -28.333 2.00098 -45c0.666992 -16 1.33398 -33 2.00098 -51c0.666992 -16.667 1.16699 -33.5 1.5 -50.5
s0.5 -32.833 0.5 -47.5v-233c0 -4 -1 -7.66699 -3 -11s-5.33301 -6.33301 -10 -9s-11 -4.5 -19 -5.5s-18.333 -1.5 -31 -1.5c-12 0 -22 0.5 -30 1.5s-14.5 2.83301 -19.5 5.5s-8.33301 5.66699 -10 9s-2.5 7 -2.5 11v1328c0 4 0.833008 7.66699 2.5 11s5 6.33301 10 9
s11.5 4.5 19.5 5.5s18 1.5 30 1.5c12.667 0 23 -0.5 31 -1.5s14.333 -2.83301 19 -5.5s8 -5.66699 10 -9s3 -7 3 -11v-609c0 -86.667 19.167 -153.834 57.5 -201.501s93.833 -71.5 166.5 -71.5c48 0 96 16.667 144 50s99 83.333 153 150v682c0 4 1 7.66699 3 11
s5.33301 6.33301 10 9s11 4.5 19 5.5s18.333 1.5 31 1.5c12 0 22 -0.5 30 -1.5s14.167 -2.83301 18.5 -5.5s7.66602 -5.66699 9.99902 -9s3.5 -7 3.5 -11v-709c0 -32 1.33301 -59 4 -81s7.33398 -39.5 14.001 -52.5s15.834 -22.5 27.501 -28.5s26.167 -9 43.5 -9
c12.667 0 23.5 0.666992 32.5 2s16.833 2.83301 23.5 4.5l17.5 4.5c5 1.33301 9.83301 2 14.5 2c2 0 4.16699 -0.5 6.5 -1.5s4.16602 -3 5.49902 -6s2.33301 -7.33301 3 -13s1 -13.167 1 -22.5z" />
    <glyph glyph-name="paragraph" unicode="&#xb6;" horiz-adv-x="987" 
d="M1019 -243c0 -4 -1.00391 -7.83203 -3.00391 -11.499s-5.33301 -6.5 -10 -8.5s-11 -3.66699 -19 -5s-18 -2 -30 -2s-22 0.666992 -30 2s-14.5 3 -19.5 5s-8.33301 4.83301 -10 8.5s-2.5 7.5 -2.5 11.5v1466h-221v-1466c0 -4 -1 -7.83301 -3 -11.5
s-5.16699 -6.5 -9.5 -8.5s-10.666 -3.66699 -18.999 -5s-18.166 -2 -29.499 -2c-24.667 0 -41.167 2.5 -49.5 7.5s-12.5 11.5 -12.5 19.5v793c-73.333 0 -138.166 8.66699 -194.499 26s-103.5 42.666 -141.5 75.999s-66.833 74 -86.5 122s-29.5 102.333 -29.5 163
c0 55.333 9.83301 107 29.5 155s48.334 89.833 86.001 125.5s84.667 63.667 141 84s128.5 30.5 216.5 30.5h389c20 0 34.667 -6 44 -18s14 -26.667 14 -44v-1513z" />
    <glyph glyph-name="periodcentered" unicode="&#xb7;" horiz-adv-x="796" 
d="M678 778c0 -39.333 -7.50098 -76.166 -22.501 -110.499s-35.667 -64.166 -62 -89.499s-56.333 -45.666 -90 -60.999s-69.167 -23 -106.5 -23c-39.333 0 -75.833 7.66699 -109.5 23s-63.334 35.666 -89.001 60.999s-45.834 55.166 -60.501 89.499s-22 71.166 -22 110.499
c0 38 7.33301 74.167 22 108.5s34.834 64.333 60.501 90s55.334 46 89.001 61s70.167 22.5 109.5 22.5c38.667 0 75 -7.5 109 -22.5s63.833 -35.333 89.5 -61s45.834 -55.667 60.501 -90s22 -70.5 22 -108.5z" />
    <glyph glyph-name="periodcentered" unicode="&#x2219;" horiz-adv-x="796" 
d="M678 778c0 -39.333 -7.50098 -76.166 -22.501 -110.499s-35.667 -64.166 -62 -89.499s-56.333 -45.666 -90 -60.999s-69.167 -23 -106.5 -23c-39.333 0 -75.833 7.66699 -109.5 23s-63.334 35.666 -89.001 60.999s-45.834 55.166 -60.501 89.499s-22 71.166 -22 110.499
c0 38 7.33301 74.167 22 108.5s34.834 64.333 60.501 90s55.334 46 89.001 61s70.167 22.5 109.5 22.5c38.667 0 75 -7.5 109 -22.5s63.833 -35.333 89.5 -61s45.834 -55.667 60.501 -90s22 -70.5 22 -108.5z" />
    <glyph glyph-name="cedilla" unicode="&#xb8;" horiz-adv-x="662" 
d="M449 -73c16 -34 27.502 -61.3301 34.502 -81.9971s10.5 -39.667 10.5 -57c0 -24 -4.33301 -46 -13 -66s-21.334 -37 -38.001 -51s-37.167 -25 -61.5 -33s-51.833 -12 -82.5 -12c-20.667 0 -40.834 1.16699 -60.501 3.5s-37 5.16602 -52 8.49902s-25 6 -30 8
s-8.5 4.66699 -10.5 8s-3.5 7.5 -4.5 12.5s-1.5 11.5 -1.5 19.5c0 18 2 29.667 6 35s10.333 8 19 8h134c24.667 0 44 5 58 15s21 25.667 21 47c0 9.33301 -2.5 21.666 -7.5 36.999s-11.167 31.666 -18.5 48.999l-60 132h121z" />
    <glyph glyph-name="onesuperior" unicode="&#xb9;" horiz-adv-x="502" 
d="M362 721c0 -4 -1.17188 -7.33203 -3.50488 -9.99902s-6.16602 -5 -11.499 -7s-11.666 -3.33301 -18.999 -4s-16 -1 -26 -1s-18.333 0.333008 -25 1s-12.167 2 -16.5 4s-7.66602 4.33301 -9.99902 7s-3.5 6 -3.5 10v691l-173 -95c-8 -5.33301 -14.833 -8.33301 -20.5 -9
s-10.167 0.5 -13.5 3.5s-5.66602 7.5 -6.99902 13.5s-2 13.667 -2 23c0 8 0.333008 14.667 1 20s1.66699 10.166 3 14.499s3.5 8 6.5 11s6.5 6.16699 10.5 9.5l203 120c2 0.666992 4.66699 1.66699 8 3s7.33301 2.33301 12 3s10 1.16699 16 1.5s12.667 0.5 20 0.5
c10.667 0 19.334 -0.5 26.001 -1.5s12 -2.33301 16 -4s6.5 -3.5 7.5 -5.5s1.5 -4.33301 1.5 -7v-792z" />
    <glyph glyph-name="ordmasculine" unicode="&#xba;" horiz-adv-x="830" 
d="M758 971c0 -54 -7.33301 -103.833 -22 -149.5s-36 -84.667 -64 -117s-62.833 -57.666 -104.5 -75.999s-89.167 -27.5 -142.5 -27.5c-57.333 0 -107 8.16699 -149 24.5s-76.667 40.166 -104 71.499s-47.5 69.333 -60.5 114s-19.5 95.334 -19.5 152.001
c0 54 7 103.5 21 148.5s35 83.667 63 116s63.167 57.666 105.5 75.999s91.833 27.5 148.5 27.5c54 0 101.5 -8.66699 142.5 -26s75.167 -41.5 102.5 -72.5s48 -68.667 62 -113s21 -93.833 21 -148.5zM720 383c0 -18.667 -2.83301 -31.834 -8.5 -39.501
s-14.167 -11.5 -25.5 -11.5h-524c-10 0 -17.833 3.83301 -23.5 11.5s-8.5 20.834 -8.5 39.501c0 19.333 2.83301 32.833 8.5 40.5s13.5 11.5 23.5 11.5h524c11.333 0 19.833 -3.83301 25.5 -11.5s8.5 -21.167 8.5 -40.5zM626 963c0 34.667 -3.33398 67.8369 -10.001 99.5039
s-17.834 59.667 -33.501 84s-36.167 43.666 -61.5 57.999s-57.333 21.5 -96 21.5c-35.333 0 -65.5 -6.5 -90.5 -19.5s-45.5 -30.833 -61.5 -53.5s-28.167 -49.834 -36.5 -81.501s-12.5 -65.834 -12.5 -102.501s3.16699 -71 9.5 -103s17.333 -59.833 33 -83.5
s36.334 -42.334 62.001 -56.001s57.834 -20.5 96.501 -20.5c32 0 60.667 5.5 86 16.5s46.333 27.167 63 48.5s29.5 48 38.5 80s13.5 69.333 13.5 112z" />
    <glyph glyph-name="guillemotright" unicode="&#xbb;" horiz-adv-x="1006" 
d="M169 145c-4.66699 -5.33301 -7 -10.3359 -7 -15.0029s2 -8.5 6 -11.5s10.167 -5.5 18.5 -7.5s19.166 -3 32.499 -3s24 0.333008 32 1s14.667 1.83398 20 3.50098s9.5 3.83398 12.5 6.50098s6.5 7 10.5 13l230 346c9.33301 14.667 14 28.5 14 41.5s-4.66699 26.5 -14 40.5
l-230 346c-4 5.33301 -7.5 9.5 -10.5 12.5s-7.16699 5.33301 -12.5 7s-12 2.83398 -20 3.50098s-18.667 1 -32 1s-24.166 -1 -32.499 -3s-14.5 -4.5 -18.5 -7.5s-6 -6.83301 -6 -11.5s2.33301 -9.66699 7 -15l239 -374zM770 516.997l-231 -385.002
c-4 -6.66699 -6.33301 -12.667 -7 -18s0.5 -9.83301 3.5 -13.5s8.5 -6.66699 16.5 -9s18.333 -3.5 31 -3.5s22.834 0.333008 30.501 1s14.167 1.83398 19.5 3.50098s9.66602 4 12.999 7s6.66602 7.5 9.99902 13.5l230 363c10 16 15 30.667 15 44s-5 27.333 -15 42l-230 364
c-3.33301 5.33301 -6.66602 9.5 -9.99902 12.5s-7.66602 5.33301 -12.999 7s-11.833 2.83398 -19.5 3.50098s-17.834 1 -30.501 1s-23 -1 -31 -3s-13.667 -4.83301 -17 -8.5s-4.83301 -8 -4.5 -13s2.5 -10.5 6.5 -16.5z" />
    <glyph glyph-name="onequarter" unicode="&#xbc;" horiz-adv-x="1390" 
d="M1224 161c0 -14.667 -1.99902 -26.6699 -5.99902 -36.0029s-9.66699 -14 -17 -14h-84v-128c0 -3.33301 -1 -6.33301 -3 -9s-5.33301 -5 -10 -7s-10.5 -3.5 -17.5 -4.5s-15.833 -1.5 -26.5 -1.5c-9.33301 0 -17.5 0.5 -24.5 1.5s-12.667 2.5 -17 4.5s-7.5 4.33301 -9.5 7
s-3 5.66699 -3 9v128h-306c-4 0 -7.83301 0.833008 -11.5 2.5s-6.5 4.33398 -8.5 8.00098s-3.66699 9 -5 16s-2 15.833 -2 26.5c0 9.33301 0.166992 17 0.5 23s1 11.667 2 17s2.5 10.333 4.5 15s5 9.66699 9 15l264 399c2 2.66699 5.16699 5.33398 9.5 8.00098
s9.66602 4.83398 15.999 6.50098s14 3 23 4s19.5 1.5 31.5 1.5c14.667 0 27.167 -0.5 37.5 -1.5s19 -2.33301 26 -4s12.167 -4 15.5 -7s5 -6.16699 5 -9.5v-426h84c6.66699 0 12.167 -3.5 16.5 -10.5s6.5 -18.167 6.5 -33.5zM1006 548.997h-2l-231 -344h233v344z
M203.001 -50.0029c-2.66699 -4.66699 -5.83496 -8.16895 -9.50195 -10.502s-8.33398 -4.33301 -14.001 -6s-12.167 -2.83398 -19.5 -3.50098s-16.333 -1 -27 -1c-11.333 0 -20.5 1.16699 -27.5 3.5s-11.833 5.83301 -14.5 10.5s-3.66699 10 -3 16s3.33398 12.667 8.00098 20
l933 1368c2.66699 4.66699 5.83398 8.33398 9.50098 11.001s8.33398 4.83398 14.001 6.50098s12.167 2.83398 19.5 3.50098s16.333 1 27 1c11.333 0 20.5 -1.16699 27.5 -3.5s12 -5.83301 15 -10.5s4 -10.167 3 -16.5s-3.83301 -12.833 -8.5 -19.5zM376 662.995
c0 -4.66699 -1.33496 -8.33301 -4.00195 -11s-6.33398 -4.83398 -11.001 -6.50098s-10.667 -2.83398 -18 -3.50098s-16 -1 -26 -1c-9.33301 0 -17.5 0.333008 -24.5 1s-12.667 1.83398 -17 3.50098s-7.66602 3.83398 -9.99902 6.50098s-3.5 6.33398 -3.5 11.001v554
l-173 -95c-8.66699 -5.33301 -15.5 -8.5 -20.5 -9.5s-9.16699 -0.166992 -12.5 2.5s-5.66602 7 -6.99902 13s-2 13.667 -2 23c0 7.33301 0.166992 14.166 0.5 20.499s1.33301 12.166 3 17.499s4 9.83301 7 13.5s6.5 6.83398 10.5 9.50098l203 121
c2 0.666992 4.33301 1.33398 7 2.00098s5.83398 1.16699 9.50098 1.5s8.16699 0.666016 13.5 0.999023s12 0.5 20 0.5c10.667 0 19.5 -0.333008 26.5 -1s12.5 -1.66699 16.5 -3s7 -3 9 -5s3 -4.33301 3 -7v-659z" />
    <glyph glyph-name="onehalf" unicode="&#xbd;" horiz-adv-x="1318" 
d="M374 663c0 -4.66699 -1.16895 -8.33301 -3.50195 -11s-6 -4.83398 -11 -6.50098s-11.167 -2.83398 -18.5 -3.50098s-16 -1 -26 -1c-8.66699 0 -16.5 0.333008 -23.5 1s-12.833 1.83398 -17.5 3.50098s-8 3.83398 -10 6.50098s-3 6.33398 -3 11.001v554l-173 -95
c-8.66699 -5.33301 -15.667 -8.5 -21 -9.5s-9.5 -0.166992 -12.5 2.5s-5.16699 7 -6.5 13s-2 13.667 -2 23c0 7.33301 0.166992 14.166 0.5 20.499s1.33301 12.166 3 17.499s3.83398 9.83301 6.50098 13.5s6.33398 6.83398 11.001 9.50098l202 121
c2 0.666992 4.5 1.33398 7.5 2.00098s6.16699 1.16699 9.5 1.5s7.83301 0.666016 13.5 0.999023s12.5 0.5 20.5 0.5c10 0 18.5 -0.333008 25.5 -1s12.667 -1.66699 17 -3s7.33301 -3 9 -5s2.5 -4.33301 2.5 -7v-659zM1280 14.001
c0 -15.333 -1.99805 -26.834 -5.99805 -34.501s-9.66699 -11.5 -17 -11.5h-414c-6 0 -10.833 0.5 -14.5 1.5s-7 3.16699 -10 6.5s-5.16699 8 -6.5 14s-2 14 -2 24c0 8.66699 0.166992 16.334 0.5 23.001s1.33301 12.667 3 18s4 10.333 7 15s7.16699 9.33398 12.5 14.001
l144 134c29.333 27.333 53.666 51.333 72.999 72s34.833 40 46.5 58s20 35.667 25 53s7.5 36.333 7.5 57c0 30.667 -10.5 55.834 -31.5 75.501s-49.167 29.5 -84.5 29.5c-25.333 0 -47.666 -2.83301 -66.999 -8.5s-36 -12 -50 -19s-25.333 -13.333 -34 -19
s-15 -8.5 -19 -8.5c-2.66699 0 -5.16699 1 -7.5 3s-4.33301 4.83301 -6 8.5s-3 8.66699 -4 15s-1.5 14.166 -1.5 23.499c0 12 0.666992 21 2 27s4.5 11.667 9.5 17s13.833 11.5 26.5 18.5s27.667 13.5 45 19.5s36.333 11 57 15s41.667 6 63 6
c36.667 0 68.667 -4.83301 96 -14.5s50 -23 68 -40s31.667 -37.5 41 -61.5s14 -50.333 14 -79c0 -22.667 -3 -45.334 -9 -68.001s-16.333 -46 -31 -70s-34.834 -49.833 -60.501 -77.5s-57.834 -58.167 -96.501 -91.5l-107 -94h313c9.33301 0 15.833 -4.5 19.5 -13.5
s5.5 -21.5 5.5 -37.5zM202 -50c-2.66699 -4.66699 -6.00195 -8.16895 -10.002 -10.502s-8.66699 -4.33301 -14 -6s-11.833 -2.83398 -19.5 -3.50098s-16.5 -1 -26.5 -1c-11.333 0 -20.5 1.16699 -27.5 3.5s-11.833 5.83301 -14.5 10.5s-3.66699 10 -3 16
s3.33398 12.667 8.00098 20l932 1368c3.33301 4.66699 6.83301 8.33398 10.5 11.001s8.33398 4.83398 14.001 6.50098s12.167 2.83398 19.5 3.50098s16.333 1 27 1s19.667 -1.16699 27 -3.5s12.5 -5.83301 15.5 -10.5s4 -10.167 3 -16.5s-4.16699 -12.833 -9.5 -19.5z" />
    <glyph glyph-name="threequarters" unicode="&#xbe;" horiz-adv-x="1358" 
d="M518 838c0 -30 -6.33105 -57.665 -18.998 -82.998s-30.667 -46.833 -54 -64.5s-51.333 -31.667 -84 -42s-69.334 -15.5 -110.001 -15.5c-22 0 -43.167 1.66699 -63.5 5s-39 7.33301 -56 12s-31.833 10 -44.5 16s-21.334 11.5 -26.001 16.5s-8 10.833 -10 17.5
s-3 18 -3 34c0 16.667 1.66699 28 5 34s7.66602 9 12.999 9s13 -2.66699 23 -8s22.5 -11.166 37.5 -17.499s33 -12 54 -17s46.167 -7.5 75.5 -7.5c26 0 48.333 3.16699 67 9.5s33.667 14.5 45 24.5s19.833 21.333 25.5 34s8.5 25.667 8.5 39c0 18 -3.5 34 -10.5 48
s-17.833 25.833 -32.5 35.5s-33.5 17.167 -56.5 22.5s-50.833 8 -83.5 8h-70c-3.33301 0 -6.66602 1 -9.99902 3s-6 4.83301 -8 8.5s-3.66699 8.5 -5 14.5s-2 13.167 -2 21.5s0.666992 15.333 2 21s3 10.167 5 13.5s4.5 6 7.5 8s6.16699 3 9.5 3h66
c52 0 92.167 9.66699 120.5 29s42.5 47 42.5 83c0 26.667 -10 49.334 -30 68.001s-51.333 28 -94 28c-20.667 0 -40 -2.83301 -58 -8.5s-34.167 -12 -48.5 -19s-26.333 -13.333 -36 -19s-16.167 -8.5 -19.5 -8.5c-2.66699 0 -5.33398 0.666992 -8.00098 2s-5.16699 4 -7.5 8
s-4 8.66699 -5 14s-1.5 12.333 -1.5 21c0 6 0.166992 11.167 0.5 15.5s1 8.5 2 12.5s2.5 7.16699 4.5 9.5l7.5 8.5c3 3.33301 10.333 8.16602 22 14.499s26 12.5 43 18.5s36.167 11.167 57.5 15.5s44 6.5 68 6.5c36.667 0 68.334 -4.33301 95.001 -13
s48.834 -20.667 66.501 -36s30.834 -33.333 39.501 -54s13 -43.334 13 -68.001c0 -20.667 -3.5 -39.834 -10.5 -57.501s-16.833 -33.667 -29.5 -48s-27.667 -26.833 -45 -37.5s-36.333 -18.334 -57 -23.001c27.333 -2.66699 51.666 -8.66699 72.999 -18
s39.166 -21.166 53.499 -35.499s25.5 -30.833 33.5 -49.5s12 -39.334 12 -62.001zM279.002 -49.998c-2.66699 -4.66699 -6.00293 -8.16895 -10.0029 -10.502s-8.66699 -4.33301 -14 -6s-11.666 -2.83398 -18.999 -3.50098s-16.333 -1 -27 -1
c-11.333 0 -20.5 1.16699 -27.5 3.5s-11.833 5.83301 -14.5 10.5s-3.66699 10 -3 16s3.33398 12.667 8.00098 20l932 1368c3.33301 4.66699 6.83301 8.33398 10.5 11.001s8.33398 4.83398 14.001 6.50098s12.167 2.83398 19.5 3.50098s16.333 1 27 1
c11.333 0 20.5 -1.16699 27.5 -3.5s12 -5.83301 15 -10.5s4 -10.167 3 -16.5s-3.83301 -12.833 -8.5 -19.5zM1300 161c0 -14.667 -2 -26.6699 -6 -36.0029s-9.66699 -14 -17 -14h-84v-128c0 -3.33301 -1.16699 -6.33301 -3.5 -9s-5.66602 -5 -9.99902 -7s-10 -3.5 -17 -4.5
s-15.833 -1.5 -26.5 -1.5c-10 0 -18.5 0.5 -25.5 1.5s-12.5 2.5 -16.5 4.5s-7.16699 4.33301 -9.5 7s-3.5 5.66699 -3.5 9v128h-305c-4 0 -7.83301 0.833008 -11.5 2.5s-6.5 4.33398 -8.5 8.00098s-3.66699 9 -5 16s-2 15.833 -2 26.5c0 9.33301 0.166992 17 0.5 23
s1 11.667 2 17s2.5 10.333 4.5 15s4.66699 9.66699 8 15l265 399c2 2.66699 5.16699 5.33398 9.5 8.00098s9.66602 4.83398 15.999 6.50098s14 3 23 4s19.5 1.5 31.5 1.5c14.667 0 27.167 -0.5 37.5 -1.5s19 -2.33301 26 -4s12.167 -4 15.5 -7s5 -6.16699 5 -9.5v-426h84
c6.66699 0 12.167 -3.5 16.5 -10.5s6.5 -18.167 6.5 -33.5zM1081 548.997h-2l-231 -344h233v344z" />
    <glyph glyph-name="questiondown" unicode="&#xbf;" horiz-adv-x="888" 
d="M719 1054c-2.66699 -39.333 -16.665 -73.5 -41.998 -102.5s-54 -43.5 -86 -43.5c-30.667 0 -55.834 14 -75.501 42s-28.167 62.667 -25.5 104s16.5 76 41.5 104s52.5 42 82.5 42c32 0 58.167 -14.5 78.5 -43.5s29.166 -63.167 26.499 -102.5zM669.002 763
c40.667 -78 58.6641 -145 53.9971 -201c-2.66699 -54 -19.334 -101.667 -50.001 -143s-100 -107.333 -208 -198c-52.667 -44 -94 -91.833 -124 -143.5s-47.333 -99.167 -52 -142.5c-3.33301 -59.333 9.83398 -107.166 39.501 -143.499s71.5 -54.5 125.5 -54.5
c96 0 157.667 50.667 185 152c-76.667 0 -112.667 39 -108 117c3.33301 37.333 17.833 70 43.5 98s51.5 42 77.5 42c42 0 74.167 -17.5 96.5 -52.5s30.833 -83.5 25.5 -145.5c-6 -91.333 -37.167 -165.833 -93.5 -223.5s-126.166 -86.5 -209.499 -86.5
c-87.333 0 -154.166 35.167 -200.499 105.5s-65.166 156.833 -56.499 259.5c5.33301 75.333 21.333 140.166 48 194.499s71.667 111.833 135 172.5c146 140.667 221.333 231.667 226 273c0 12 -1 23.667 -3 35l-3 28c-0.666992 6.66699 -4.33398 16.334 -11.001 29.001
s-11.667 21.667 -15 27s-9.66602 16.166 -18.999 32.499l-20 34.5z" />
    <glyph glyph-name="Agrave" unicode="&#xc0;" horiz-adv-x="1161" 
d="M1135 11c4 -10.667 6.00293 -19.666 6.00293 -26.999c-0.666992 -2.66699 -1.5 -5.16699 -2.5 -7.5s-3.16699 -4.5 -6.5 -6.5c-4 -4 -10.667 -6.5 -20 -7.5s-21.333 -1.5 -36 -1.5s-26.5 0.5 -35.5 1.5s-15.833 2.66699 -20.5 5s-8.33398 5.16602 -11.001 8.49902
s-5 7.66602 -7 12.999l-130 362h-596l-125 -360c-1.33301 -5.33301 -3.5 -9.66602 -6.5 -12.999s-7 -6.16602 -12 -8.49902s-11.833 -4.33301 -20.5 -6s-19.667 -2.5 -33 -2.5c-14.667 0 -26.834 0.833008 -36.501 2.5s-16.834 4.16699 -21.501 7.5
s-7.16699 8.16602 -7.5 14.499s1.5 14.833 5.5 25.5l476 1292c2 6 5.16699 10.833 9.5 14.5s9.83301 6.66699 16.5 9s14.667 4 24 5s20 1.5 32 1.5c12.667 0 23.667 -0.5 33 -1.5s17.333 -2.66699 24 -5s12 -5.33301 16 -9s7 -8.5 9 -14.5zM571.003 1189h-1l-257 -731h520z
M685.003 1456c4 -6 6.50293 -11.501 7.50293 -16.501s0.333008 -9 -2 -12s-6.66602 -5.5 -12.999 -7.5s-14.666 -3 -24.999 -3s-19 0.333008 -26 1s-13.167 2.16699 -18.5 4.5s-10.166 5.33301 -14.499 9s-8.83301 9.16699 -13.5 16.5l-183 246
c-4.66699 6 -7.33398 11.667 -8.00098 17s0.666016 9.83301 3.99902 13.5s9.16602 6.66699 17.499 9s19.166 3.5 32.499 3.5s24.666 -0.666992 33.999 -2s17.166 -3.16602 23.499 -5.49902s11.833 -6 16.5 -11s9.66699 -10.833 15 -17.5z" />
    <glyph glyph-name="Aacute" unicode="&#xc1;" horiz-adv-x="1161" 
d="M1135 11c4 -10.667 6.00293 -19.666 6.00293 -26.999c-0.666992 -2.66699 -1.5 -5.16699 -2.5 -7.5s-3.16699 -4.5 -6.5 -6.5c-4 -4 -10.667 -6.5 -20 -7.5s-21.333 -1.5 -36 -1.5s-26.5 0.5 -35.5 1.5s-15.833 2.66699 -20.5 5s-8.33398 5.16602 -11.001 8.49902
s-5 7.66602 -7 12.999l-130 362h-596l-125 -360c-1.33301 -5.33301 -3.5 -9.66602 -6.5 -12.999s-7 -6.16602 -12 -8.49902s-11.833 -4.33301 -20.5 -6s-19.667 -2.5 -33 -2.5c-14.667 0 -26.834 0.833008 -36.501 2.5s-16.834 4.16699 -21.501 7.5
s-7.16699 8.16602 -7.5 14.499s1.5 14.833 5.5 25.5l476 1292c2 6 5.16699 10.833 9.5 14.5s9.83301 6.66699 16.5 9s14.667 4 24 5s20 1.5 32 1.5c12.667 0 23.667 -0.5 33 -1.5s17.333 -2.66699 24 -5s12 -5.33301 16 -9s7 -8.5 9 -14.5zM571.003 1189h-1l-257 -731h520z
M599.003 1744c4.66699 6.66699 9.33301 12.501 14 17.501s10.334 8.66699 17.001 11s14.834 4.16602 24.501 5.49902s21.167 2 34.5 2s24.166 -1.16699 32.499 -3.5s14.166 -5.33301 17.499 -9s4.5 -8.16699 3.5 -13.5s-3.83301 -11 -8.5 -17l-183 -246
c-4.66699 -7.33301 -9 -12.833 -13 -16.5s-8.33301 -6.66699 -13 -9s-10.5 -3.83301 -17.5 -4.5s-15.833 -1 -26.5 -1s-19.334 1 -26.001 3s-11.167 4.5 -13.5 7.5s-3.16602 7 -2.49902 12s3 10.5 7 16.5z" />
    <glyph glyph-name="Acircumflex" unicode="&#xc2;" horiz-adv-x="1161" 
d="M1135 11c4 -10.667 6.00293 -19.666 6.00293 -26.999c-0.666992 -2.66699 -1.5 -5.16699 -2.5 -7.5s-3.16699 -4.5 -6.5 -6.5c-4 -4 -10.667 -6.5 -20 -7.5s-21.333 -1.5 -36 -1.5s-26.5 0.5 -35.5 1.5s-15.833 2.66699 -20.5 5s-8.33398 5.16602 -11.001 8.49902
s-5 7.66602 -7 12.999l-130 362h-596l-125 -360c-1.33301 -5.33301 -3.5 -9.66602 -6.5 -12.999s-7 -6.16602 -12 -8.49902s-11.833 -4.33301 -20.5 -6s-19.667 -2.5 -33 -2.5c-14.667 0 -26.834 0.833008 -36.501 2.5s-16.834 4.16699 -21.501 7.5
s-7.16699 8.16602 -7.5 14.499s1.5 14.833 5.5 25.5l476 1292c2 6 5.16699 10.833 9.5 14.5s9.83301 6.66699 16.5 9s14.667 4 24 5s20 1.5 32 1.5c12.667 0 23.667 -0.5 33 -1.5s17.333 -2.66699 24 -5s12 -5.33301 16 -9s7 -8.5 9 -14.5zM571.003 1189h-1l-257 -731h520z
M432.003 1445c-4.66699 -6 -8.66504 -10.666 -11.998 -13.999s-7.5 -6.16602 -12.5 -8.49902s-10.667 -3.83301 -17 -4.5s-13.833 -1 -22.5 -1c-14 0 -24.833 1.16699 -32.5 3.5s-12.834 5.5 -15.501 9.5s-2.66699 9.33301 0 16s7.33398 14.667 14.001 24l178 243
c3.33301 5.33301 6.83301 9.33301 10.5 12s8.33398 5 14.001 7s12.5 3.33301 20.5 4s18 1 30 1c10.667 0 19.5 -0.333008 26.5 -1s13.167 -2.16699 18.5 -4.5s9.66602 -4.83301 12.999 -7.5s6.66602 -6.33398 9.99902 -11.001l178 -243c6 -9.33301 10.333 -17.333 13 -24
s2.66699 -12 0 -16s-7.83398 -7.16699 -15.501 -9.5s-18.167 -3.5 -31.5 -3.5c-10 0 -18.167 0.333008 -24.5 1s-11.833 2.16699 -16.5 4.5s-8.5 5.16602 -11.5 8.49902s-6.83301 8 -11.5 14l-152 208z" />
    <glyph glyph-name="Atilde" unicode="&#xc3;" horiz-adv-x="1161" 
d="M1135 11c4 -10.667 6.00293 -19.666 6.00293 -26.999c-0.666992 -2.66699 -1.5 -5.16699 -2.5 -7.5s-3.16699 -4.5 -6.5 -6.5c-4 -4 -10.667 -6.5 -20 -7.5s-21.333 -1.5 -36 -1.5s-26.5 0.5 -35.5 1.5s-15.833 2.66699 -20.5 5s-8.33398 5.16602 -11.001 8.49902
s-5 7.66602 -7 12.999l-130 362h-596l-125 -360c-1.33301 -5.33301 -3.5 -9.66602 -6.5 -12.999s-7 -6.16602 -12 -8.49902s-11.833 -4.33301 -20.5 -6s-19.667 -2.5 -33 -2.5c-14.667 0 -26.834 0.833008 -36.501 2.5s-16.834 4.16699 -21.501 7.5
s-7.16699 8.16602 -7.5 14.499s1.5 14.833 5.5 25.5l476 1292c2 6 5.16699 10.833 9.5 14.5s9.83301 6.66699 16.5 9s14.667 4 24 5s20 1.5 32 1.5c12.667 0 23.667 -0.5 33 -1.5s17.333 -2.66699 24 -5s12 -5.33301 16 -9s7 -8.5 9 -14.5zM571.003 1189h-1l-257 -731h520z
M906.003 1635c0 -68.667 -17.3301 -120.991 -51.9971 -156.991s-80.334 -54 -137.001 -54c-25.333 0 -48 3.66699 -68 11s-38.333 16.666 -55 27.999s-32.167 23.333 -46.5 36l-42.5 36c-14 11.333 -28 20.666 -42 27.999s-29 11 -45 11c-30.667 0 -52 -11.333 -64 -34
s-18 -52.334 -18 -89.001c0 -4.66699 -0.5 -8.83398 -1.5 -12.501s-3.5 -6.5 -7.5 -8.5s-9.66699 -3.5 -17 -4.5s-17 -1.5 -29 -1.5c-8.66699 0 -16.167 0.666992 -22.5 2s-11.333 3.66602 -15 6.99902s-6.33398 7.83301 -8.00098 13.5s-2.5 13.167 -2.5 22.5
c0 63.333 16.333 114.166 49 152.499s79 57.5 139 57.5c38 0 70.333 -7.83301 97 -23.5s51.167 -32.834 73.5 -51.501l64 -51.5c20.333 -15.667 42.166 -23.5 65.499 -23.5c27.333 0 47.833 10.167 61.5 30.5s20.5 51.166 20.5 92.499c0 9.33301 3 16.166 9 20.499
s19 6.5 39 6.5c22.667 0 37.5 -2.83301 44.5 -8.5s10.5 -17.5 10.5 -35.5z" />
    <glyph glyph-name="Adieresis" unicode="&#xc4;" horiz-adv-x="1161" 
d="M1135 11c4 -10.667 6.00293 -19.666 6.00293 -26.999c-0.666992 -2.66699 -1.5 -5.16699 -2.5 -7.5s-3.16699 -4.5 -6.5 -6.5c-4 -4 -10.667 -6.5 -20 -7.5s-21.333 -1.5 -36 -1.5s-26.5 0.5 -35.5 1.5s-15.833 2.66699 -20.5 5s-8.33398 5.16602 -11.001 8.49902
s-5 7.66602 -7 12.999l-130 362h-596l-125 -360c-1.33301 -5.33301 -3.5 -9.66602 -6.5 -12.999s-7 -6.16602 -12 -8.49902s-11.833 -4.33301 -20.5 -6s-19.667 -2.5 -33 -2.5c-14.667 0 -26.834 0.833008 -36.501 2.5s-16.834 4.16699 -21.501 7.5
s-7.16699 8.16602 -7.5 14.499s1.5 14.833 5.5 25.5l476 1292c2 6 5.16699 10.833 9.5 14.5s9.83301 6.66699 16.5 9s14.667 4 24 5s20 1.5 32 1.5c12.667 0 23.667 -0.5 33 -1.5s17.333 -2.66699 24 -5s12 -5.33301 16 -9s7 -8.5 9 -14.5zM571.003 1189h-1l-257 -731h520z
M944.905 1685.55c0 -53.8994 -18.8994 -99.9238 -56.6992 -138.073s-83.999 -57.2246 -138.599 -57.2246c-25.8994 0 -51.2744 5.25 -76.124 15.75s-46.1992 24.6748 -64.0488 42.5244c-17.8506 17.8496 -31.6758 38.3242 -41.4756 61.4248
c-9.7998 23.0996 -14.7002 48.2988 -14.7002 75.5986s4.90039 52.8496 14.7002 76.6494s23.625 44.4492 41.4756 61.9492c17.8496 17.5 39.1992 31.3252 64.0488 41.4746s50.2246 15.2246 76.124 15.2246c54.5996 0 100.799 -18.8994 138.599 -56.6992
s56.6992 -83.999 56.6992 -138.599zM582.905 1688.55c0 -53.8994 -18.8994 -99.9238 -56.6992 -138.073s-83.999 -57.2246 -138.599 -57.2246c-25.8994 0 -51.2744 5.25 -76.124 15.75s-46.1992 24.6748 -64.0488 42.5244
c-17.8506 17.8496 -31.6758 38.3242 -41.4756 61.4248c-9.7998 23.0996 -14.7002 48.2988 -14.7002 75.5986s4.90039 52.8496 14.7002 76.6494s23.625 44.4492 41.4756 61.9492c17.8496 17.5 39.1992 31.3252 64.0488 41.4746s50.2246 15.2246 76.124 15.2246
c54.5996 0 100.799 -18.8994 138.599 -56.6992s56.6992 -83.999 56.6992 -138.599z" />
    <glyph glyph-name="Aring" unicode="&#xc5;" horiz-adv-x="1227" 
d="M1135 0c4 -10.667 6.00293 -19.3311 6.00293 -25.998c-0.666992 -2.66699 -1.5 -5.33398 -2.5 -8.00098s-3.16699 -5 -6.5 -7c-4 -3.33301 -10.667 -5.5 -20 -6.5s-21.333 -1.5 -36 -1.5s-26.5 0.5 -35.5 1.5s-15.833 2.5 -20.5 4.5s-8.33398 4.83301 -11.001 8.5
s-5 7.83398 -7 12.501l-130 362h-596l-125 -360c-1.33301 -4.66699 -3.5 -8.83398 -6.5 -12.501s-7 -6.66699 -12 -9s-11.833 -4.16602 -20.5 -5.49902s-19.667 -2 -33 -2c-14.667 0 -26.834 0.666992 -36.501 2s-16.834 3.66602 -21.501 6.99902
s-7.16699 8.16602 -7.5 14.499s1.5 14.833 5.5 25.5l476 1293c2 5.33301 5.16699 10 9.5 14s9.83301 7 16.5 9s14.667 3.5 24 4.5s20 1.5 32 1.5c12.667 0 23.667 -0.5 33 -1.5s17.333 -2.5 24 -4.5s12 -5 16 -9s7 -8.66699 9 -14zM571.003 1178h-1l-257 -731h520z
M779.003 1582c0 -26.667 -4.83105 -52.001 -14.498 -76.001s-23 -44.5 -40 -61.5s-37.833 -30.667 -62.5 -41s-52 -15.5 -82 -15.5c-32.667 0 -61 4.83301 -85 14.5s-43.833 22.834 -59.5 39.501s-27.334 36.334 -35.001 59.001s-11.5 47.334 -11.5 74.001
c0 27.333 4.33301 52.666 13 75.999s21.667 43.666 39 60.999s38.166 30.833 62.499 40.5s52.166 14.5 83.499 14.5c60.667 0 107.834 -16.833 141.501 -50.5s50.5 -78.5 50.5 -134.5zM685.005 1575c0 30 -7.83398 55.834 -23.501 77.501s-41.5 32.5 -77.5 32.5
c-33.333 0 -58.666 -9.33301 -75.999 -28s-26 -43.667 -26 -75c0 -33.333 7.83301 -60.333 23.5 -81s42.5 -31 80.5 -31c34 0 59 10.167 75 30.5s24 45.166 24 74.499z" />
    <glyph glyph-name="AE" unicode="&#xc6;" horiz-adv-x="1687" 
d="M1543 24c0 -8.66699 -0.665039 -16.501 -1.99805 -23.501s-3.33301 -13 -6 -18s-6.16699 -8.66699 -10.5 -11s-8.83301 -3.5 -13.5 -3.5h-637c-13.333 0 -26.333 4.66699 -39 14s-19 26.666 -19 51.999v287h-501l-183 -332
c-2.66699 -5.33301 -5.83398 -9.66602 -9.50098 -12.999s-8.66699 -6 -15 -8s-14.166 -3.5 -23.499 -4.5s-21.333 -1.5 -36 -1.5c-10.667 0 -20 0.333008 -28 1s-15 1.66699 -21 3s-10.333 3.5 -13 6.5s-4 6.83301 -4 11.5c0 3.33301 0.833008 7.16602 2.5 11.499
s4.16699 9.5 7.5 15.5l732 1286c3.33301 6.66699 7.66602 11.834 12.999 15.501s11.666 6.5 18.999 8.5s15.833 3.33301 25.5 4s20.167 1 31.5 1h687c6 0 11 -1.16699 15 -3.5s7.5 -6 10.5 -11s5.16699 -11.167 6.5 -18.5s2 -15.666 2 -24.999s-0.666992 -17.5 -2 -24.5
s-3.5 -12.833 -6.5 -17.5s-6.5 -8.16699 -10.5 -10.5s-9 -3.5 -15 -3.5h-556v-479h481c5.33301 0 10.166 -1.16699 14.499 -3.5s7.83301 -6 10.5 -11s4.66699 -11.167 6 -18.5s2 -16 2 -26c0 -8.66699 -0.666992 -16.5 -2 -23.5s-3.33301 -13 -6 -18
s-6.16699 -8.66699 -10.5 -11s-9.16602 -3.5 -14.499 -3.5h-481v-536h567c4.66699 0 9.16699 -1.16699 13.5 -3.5s7.83301 -5.83301 10.5 -10.5s4.66699 -10.667 6 -18s2 -16 2 -26zM816.002 1212h-7l-436 -784h443v784z" />
    <glyph glyph-name="Ccedilla" unicode="&#xc7;" horiz-adv-x="1225" 
d="M1059 152c0 -7.33301 -0.335938 -14.1641 -1.00293 -20.4971s-1.66699 -12 -3 -17s-3.16602 -9.5 -5.49902 -13.5s-6.83301 -9.33301 -13.5 -16s-21.334 -17.5 -44.001 -32.5s-50.834 -29.833 -84.501 -44.5s-72.667 -27.334 -117 -38.001s-93.166 -16 -146.499 -16
c-85.333 0 -162.666 14.833 -231.999 44.5s-128.166 73.167 -176.499 130.5s-85.666 128 -111.999 212s-39.5 180 -39.5 288c0 110.667 14 210 42 298s67.333 162.5 118 223.5s111.5 107.833 182.5 140.5s149.5 49 235.5 49c40.667 0 80.167 -3.83301 118.5 -11.5
s73.5 -17.5 105.5 -29.5s60.833 -25.667 86.5 -41s43.167 -27.666 52.5 -36.999s15.333 -16.166 18 -20.499s4.66699 -9.16602 6 -14.499s2.33301 -11.333 3 -18s1 -14 1 -22c0 -10 -0.5 -18.667 -1.5 -26s-2.83301 -13.666 -5.5 -18.999s-5.66699 -9.33301 -9 -12
s-7.33301 -4 -12 -4c-10 0 -24 7.16699 -42 21.5s-41.5 30.166 -70.5 47.499s-64.5 33.166 -106.5 47.499s-92 21.5 -150 21.5c-64 0 -122.5 -12.667 -175.5 -38s-98.667 -62.833 -137 -112.5s-68.166 -111 -89.499 -184s-32 -156.5 -32 -250.5
c0 -90.667 9.83301 -171 29.5 -241s48 -129 85 -177s82.833 -84.5 137.5 -109.5s116.667 -37.5 186 -37.5c56.667 0 106.167 7.16699 148.5 21.5s78.666 30.166 108.999 47.499s55 33.166 74 47.499s33.833 21.5 44.5 21.5c4 0 7.5 -0.833008 10.5 -2.5
s5.33301 -4.83398 7 -9.50098s3 -10.834 4 -18.501s1.5 -17.167 1.5 -28.5zM858.997 -72.998c16 -34 27.502 -61.3301 34.502 -81.9971s10.5 -39.667 10.5 -57c0 -24 -4.33301 -46 -13 -66s-21.334 -37 -38.001 -51s-37.167 -25 -61.5 -33s-51.833 -12 -82.5 -12
c-20.667 0 -40.834 1.16699 -60.501 3.5s-37 5.16602 -52 8.49902s-25 6 -30 8s-8.5 4.66699 -10.5 8s-3.5 7.5 -4.5 12.5s-1.5 11.5 -1.5 19.5c0 18 2 29.667 6 35s10.333 8 19 8h134c24.667 0 44 5 58 15s21 25.667 21 47c0 9.33301 -2.5 21.666 -7.5 36.999
s-11.167 31.666 -18.5 48.999l-60 132h121z" />
    <glyph glyph-name="Egrave" unicode="&#xc8;" horiz-adv-x="1089" 
d="M900 24c0 -8.66699 -0.666992 -16.498 -2 -23.498s-3.5 -13 -6.5 -18s-6.66699 -8.66699 -11 -11s-8.83301 -3.5 -13.5 -3.5h-637c-12 0 -24.667 4.66699 -38 14s-20 26.666 -20 51.999v1226c0 25.333 6.66699 42.666 20 51.999s26 14 38 14h627
c5.33301 0 10 -1.16699 14 -3.5s7.5 -6 10.5 -11s5.16699 -11.167 6.5 -18.5s2 -15.666 2 -24.999s-0.666992 -17.5 -2 -24.5s-3.5 -12.833 -6.5 -17.5s-6.5 -8.16699 -10.5 -10.5s-8.66699 -3.5 -14 -3.5h-557v-478h481c5.33301 0 10.166 -1.16699 14.499 -3.5
s7.83301 -5.83301 10.5 -10.5s4.66699 -10.667 6 -18s2 -16 2 -26c0 -8.66699 -0.666992 -16.334 -2 -23.001s-3.33301 -12.167 -6 -16.5s-6.16699 -7.5 -10.5 -9.5s-9.16602 -3 -14.499 -3h-481v-542h567c4.66699 0 9.16699 -1.16699 13.5 -3.5s8 -5.83301 11 -10.5
s5.16699 -10.667 6.5 -18s2 -16 2 -26zM674 1499c4 -6 6.50293 -11.501 7.50293 -16.501s0.333008 -9 -2 -12s-6.66602 -5.5 -12.999 -7.5s-14.666 -3 -24.999 -3s-19 0.333008 -26 1s-13.167 2.16699 -18.5 4.5s-10.166 5.33301 -14.499 9s-8.83301 9.16699 -13.5 16.5
l-183 246c-4.66699 6 -7.33398 11.667 -8.00098 17s0.666016 9.83301 3.99902 13.5s9.16602 6.66699 17.499 9s19.166 3.5 32.499 3.5s24.666 -0.666992 33.999 -2s17.166 -3.16602 23.499 -5.49902s11.833 -6 16.5 -11s9.66699 -10.833 15 -17.5z" />
    <glyph glyph-name="Eacute" unicode="&#xc9;" horiz-adv-x="1089" 
d="M900 24c0 -8.66699 -0.666992 -16.498 -2 -23.498s-3.5 -13 -6.5 -18s-6.66699 -8.66699 -11 -11s-8.83301 -3.5 -13.5 -3.5h-637c-12 0 -24.667 4.66699 -38 14s-20 26.666 -20 51.999v1226c0 25.333 6.66699 42.666 20 51.999s26 14 38 14h627
c5.33301 0 10 -1.16699 14 -3.5s7.5 -6 10.5 -11s5.16699 -11.167 6.5 -18.5s2 -15.666 2 -24.999s-0.666992 -17.5 -2 -24.5s-3.5 -12.833 -6.5 -17.5s-6.5 -8.16699 -10.5 -10.5s-8.66699 -3.5 -14 -3.5h-557v-478h481c5.33301 0 10.166 -1.16699 14.499 -3.5
s7.83301 -5.83301 10.5 -10.5s4.66699 -10.667 6 -18s2 -16 2 -26c0 -8.66699 -0.666992 -16.334 -2 -23.001s-3.33301 -12.167 -6 -16.5s-6.16699 -7.5 -10.5 -9.5s-9.16602 -3 -14.499 -3h-481v-542h567c4.66699 0 9.16699 -1.16699 13.5 -3.5s8 -5.83301 11 -10.5
s5.16699 -10.667 6.5 -18s2 -16 2 -26zM655 1744c4.66699 6.66699 9.33301 12.501 14 17.501s10.334 8.66699 17.001 11s14.834 4.16602 24.501 5.49902s21.167 2 34.5 2s24.166 -1.16699 32.499 -3.5s14.166 -5.33301 17.499 -9s4.5 -8.16699 3.5 -13.5
s-3.83301 -11 -8.5 -17l-183 -246c-4.66699 -7.33301 -9 -12.833 -13 -16.5s-8.33301 -6.66699 -13 -9s-10.5 -3.83301 -17.5 -4.5s-15.833 -1 -26.5 -1s-19.334 1 -26.001 3s-11.167 4.5 -13.5 7.5s-3.16602 7 -2.49902 12s3 10.5 7 16.5z" />
    <glyph glyph-name="Ecircumflex" unicode="&#xca;" horiz-adv-x="1089" 
d="M900 24c0 -8.66699 -0.666992 -16.498 -2 -23.498s-3.5 -13 -6.5 -18s-6.66699 -8.66699 -11 -11s-8.83301 -3.5 -13.5 -3.5h-637c-12 0 -24.667 4.66699 -38 14s-20 26.666 -20 51.999v1226c0 25.333 6.66699 42.666 20 51.999s26 14 38 14h627
c5.33301 0 10 -1.16699 14 -3.5s7.5 -6 10.5 -11s5.16699 -11.167 6.5 -18.5s2 -15.666 2 -24.999s-0.666992 -17.5 -2 -24.5s-3.5 -12.833 -6.5 -17.5s-6.5 -8.16699 -10.5 -10.5s-8.66699 -3.5 -14 -3.5h-557v-478h481c5.33301 0 10.166 -1.16699 14.499 -3.5
s7.83301 -5.83301 10.5 -10.5s4.66699 -10.667 6 -18s2 -16 2 -26c0 -8.66699 -0.666992 -16.334 -2 -23.001s-3.33301 -12.167 -6 -16.5s-6.16699 -7.5 -10.5 -9.5s-9.16602 -3 -14.499 -3h-481v-542h567c4.66699 0 9.16699 -1.16699 13.5 -3.5s8 -5.83301 11 -10.5
s5.16699 -10.667 6.5 -18s2 -16 2 -26zM389 1488c-4.66699 -6 -8.66504 -10.666 -11.998 -13.999s-7.5 -6.16602 -12.5 -8.49902s-10.667 -3.83301 -17 -4.5s-13.833 -1 -22.5 -1c-14 0 -24.833 1.16699 -32.5 3.5s-12.834 5.5 -15.501 9.5s-2.66699 9.33301 0 16
s7.33398 14.667 14.001 24l178 243c3.33301 5.33301 6.83301 9.33301 10.5 12s8.33398 5 14.001 7s12.5 3.33301 20.5 4s18 1 30 1c10.667 0 19.5 -0.333008 26.5 -1s13.167 -2.16699 18.5 -4.5s9.66602 -4.83301 12.999 -7.5s6.66602 -6.33398 9.99902 -11.001l178 -243
c6 -9.33301 10.333 -17.333 13 -24s2.66699 -12 0 -16s-7.83398 -7.16699 -15.501 -9.5s-18.167 -3.5 -31.5 -3.5c-10 0 -18.167 0.333008 -24.5 1s-11.833 2.16699 -16.5 4.5s-8.5 5.16602 -11.5 8.49902s-6.83301 8 -11.5 14l-152 208z" />
    <glyph glyph-name="Edieresis" unicode="&#xcb;" horiz-adv-x="1089" 
d="M900 24c0 -8.66699 -0.666992 -16.498 -2 -23.498s-3.5 -13 -6.5 -18s-6.66699 -8.66699 -11 -11s-8.83301 -3.5 -13.5 -3.5h-637c-12 0 -24.667 4.66699 -38 14s-20 26.666 -20 51.999v1226c0 25.333 6.66699 42.666 20 51.999s26 14 38 14h627
c5.33301 0 10 -1.16699 14 -3.5s7.5 -6 10.5 -11s5.16699 -11.167 6.5 -18.5s2 -15.666 2 -24.999s-0.666992 -17.5 -2 -24.5s-3.5 -12.833 -6.5 -17.5s-6.5 -8.16699 -10.5 -10.5s-8.66699 -3.5 -14 -3.5h-557v-478h481c5.33301 0 10.166 -1.16699 14.499 -3.5
s7.83301 -5.83301 10.5 -10.5s4.66699 -10.667 6 -18s2 -16 2 -26c0 -8.66699 -0.666992 -16.334 -2 -23.001s-3.33301 -12.167 -6 -16.5s-6.16699 -7.5 -10.5 -9.5s-9.16602 -3 -14.499 -3h-481v-542h567c4.66699 0 9.16699 -1.16699 13.5 -3.5s8 -5.83301 11 -10.5
s5.16699 -10.667 6.5 -18s2 -16 2 -26zM892.902 1685.55c0 -53.8994 -18.8994 -99.9238 -56.6992 -138.073s-83.999 -57.2246 -138.599 -57.2246c-25.8994 0 -51.2744 5.25 -76.124 15.75s-46.1992 24.6748 -64.0488 42.5244
c-17.8506 17.8496 -31.6758 38.3242 -41.4756 61.4248c-9.7998 23.0996 -14.7002 48.2988 -14.7002 75.5986s4.90039 52.8496 14.7002 76.6494s23.625 44.4492 41.4756 61.9492c17.8496 17.5 39.1992 31.3252 64.0488 41.4746s50.2246 15.2246 76.124 15.2246
c54.5996 0 100.799 -18.8994 138.599 -56.6992s56.6992 -83.999 56.6992 -138.599zM530.902 1688.55c0 -53.8994 -18.8994 -99.9238 -56.6992 -138.073s-83.999 -57.2246 -138.599 -57.2246c-25.8994 0 -51.2744 5.25 -76.124 15.75s-46.1992 24.6748 -64.0488 42.5244
c-17.8506 17.8496 -31.6758 38.3242 -41.4756 61.4248c-9.7998 23.0996 -14.7002 48.2988 -14.7002 75.5986s4.90039 52.8496 14.7002 76.6494s23.625 44.4492 41.4756 61.9492c17.8496 17.5 39.1992 31.3252 64.0488 41.4746s50.2246 15.2246 76.124 15.2246
c54.5996 0 100.799 -18.8994 138.599 -56.6992s56.6992 -83.999 56.6992 -138.599z" />
    <glyph glyph-name="Igrave" unicode="&#xcc;" horiz-adv-x="511" 
d="M314 -11c0 -4.66699 -0.999023 -8.66699 -2.99902 -12s-5.5 -6 -10.5 -8s-11.5 -3.83301 -19.5 -5.5s-18.333 -2.5 -31 -2.5c-12 0 -22.167 0.833008 -30.5 2.5s-15 3.5 -20 5.5s-8.5 4.66699 -10.5 8s-3 7.33301 -3 12v1316c0 4.66699 1.16699 8.66699 3.5 12
s6.16602 6 11.499 8s12 3.83301 20 5.5s17.667 2.5 29 2.5c12.667 0 23 -0.833008 31 -2.5s14.5 -3.5 19.5 -5.5s8.5 -4.66699 10.5 -8s3 -7.33301 3 -12v-1316zM292.001 1499c4 -6 6.50293 -11.501 7.50293 -16.501s0.333008 -9 -2 -12s-6.66602 -5.5 -12.999 -7.5
s-14.666 -3 -24.999 -3s-19 0.333008 -26 1s-13.167 2.16699 -18.5 4.5s-10.166 5.33301 -14.499 9s-8.83301 9.16699 -13.5 16.5l-183 246c-4.66699 6 -7.33398 11.667 -8.00098 17s0.666016 9.83301 3.99902 13.5s9.16602 6.66699 17.499 9s19.166 3.5 32.499 3.5
s24.666 -0.666992 33.999 -2s17.166 -3.16602 23.499 -5.49902s11.833 -6 16.5 -11s9.66699 -10.833 15 -17.5z" />
    <glyph glyph-name="Iacute" unicode="&#xcd;" horiz-adv-x="511" 
d="M314 -11c0 -4.66699 -0.999023 -8.66699 -2.99902 -12s-5.5 -6 -10.5 -8s-11.5 -3.83301 -19.5 -5.5s-18.333 -2.5 -31 -2.5c-12 0 -22.167 0.833008 -30.5 2.5s-15 3.5 -20 5.5s-8.5 4.66699 -10.5 8s-3 7.33301 -3 12v1316c0 4.66699 1.16699 8.66699 3.5 12
s6.16602 6 11.499 8s12 3.83301 20 5.5s17.667 2.5 29 2.5c12.667 0 23 -0.833008 31 -2.5s14.5 -3.5 19.5 -5.5s8.5 -4.66699 10.5 -8s3 -7.33301 3 -12v-1316zM285.001 1744c4.66699 6.66699 9.33301 12.501 14 17.501s10.334 8.66699 17.001 11
s14.834 4.16602 24.501 5.49902s21.167 2 34.5 2s24.166 -1.16699 32.499 -3.5s14.166 -5.33301 17.499 -9s4.5 -8.16699 3.5 -13.5s-3.83301 -11 -8.5 -17l-183 -246c-4.66699 -7.33301 -9 -12.833 -13 -16.5s-8.33301 -6.66699 -13 -9s-10.5 -3.83301 -17.5 -4.5
s-15.833 -1 -26.5 -1s-19.334 1 -26.001 3s-11.167 4.5 -13.5 7.5s-3.16602 7 -2.49902 12s3 10.5 7 16.5z" />
    <glyph glyph-name="Icircumflex" unicode="&#xce;" horiz-adv-x="511" 
d="M314 -11c0 -4.66699 -0.999023 -8.66699 -2.99902 -12s-5.5 -6 -10.5 -8s-11.5 -3.83301 -19.5 -5.5s-18.333 -2.5 -31 -2.5c-12 0 -22.167 0.833008 -30.5 2.5s-15 3.5 -20 5.5s-8.5 4.66699 -10.5 8s-3 7.33301 -3 12v1316c0 4.66699 1.16699 8.66699 3.5 12
s6.16602 6 11.499 8s12 3.83301 20 5.5s17.667 2.5 29 2.5c12.667 0 23 -0.833008 31 -2.5s14.5 -3.5 19.5 -5.5s8.5 -4.66699 10.5 -8s3 -7.33301 3 -12v-1316zM95.001 1488c-4.66699 -6 -8.66504 -10.666 -11.998 -13.999s-7.5 -6.16602 -12.5 -8.49902
s-10.667 -3.83301 -17 -4.5s-13.833 -1 -22.5 -1c-14 0 -24.833 1.16699 -32.5 3.5s-12.834 5.5 -15.501 9.5s-2.66699 9.33301 0 16s7.33398 14.667 14.001 24l178 243c3.33301 5.33301 6.83301 9.33301 10.5 12s8.33398 5 14.001 7s12.5 3.33301 20.5 4s18 1 30 1
c10.667 0 19.5 -0.333008 26.5 -1s13.167 -2.16699 18.5 -4.5s9.66602 -4.83301 12.999 -7.5s6.66602 -6.33398 9.99902 -11.001l178 -243c6 -9.33301 10.333 -17.333 13 -24s2.66699 -12 0 -16s-7.83398 -7.16699 -15.501 -9.5s-18.167 -3.5 -31.5 -3.5
c-10 0 -18.167 0.333008 -24.5 1s-11.833 2.16699 -16.5 4.5s-8.5 5.16602 -11.5 8.49902s-6.83301 8 -11.5 14l-152 208z" />
    <glyph glyph-name="Idieresis" unicode="&#xcf;" horiz-adv-x="511" 
d="M314 -11c0 -4.66699 -0.999023 -8.66699 -2.99902 -12s-5.5 -6 -10.5 -8s-11.5 -3.83301 -19.5 -5.5s-18.333 -2.5 -31 -2.5c-12 0 -22.167 0.833008 -30.5 2.5s-15 3.5 -20 5.5s-8.5 4.66699 -10.5 8s-3 7.33301 -3 12v1316c0 4.66699 1.16699 8.66699 3.5 12
s6.16602 6 11.499 8s12 3.83301 20 5.5s17.667 2.5 29 2.5c12.667 0 23 -0.833008 31 -2.5s14.5 -3.5 19.5 -5.5s8.5 -4.66699 10.5 -8s3 -7.33301 3 -12v-1316zM608.903 1685.55c0 -53.8994 -18.8994 -99.9238 -56.6992 -138.073s-83.999 -57.2246 -138.599 -57.2246
c-25.8994 0 -51.2744 5.25 -76.124 15.75s-46.1992 24.6748 -64.0488 42.5244c-17.8506 17.8496 -31.6758 38.3242 -41.4756 61.4248c-9.7998 23.0996 -14.7002 48.2988 -14.7002 75.5986s4.90039 52.8496 14.7002 76.6494s23.625 44.4492 41.4756 61.9492
c17.8496 17.5 39.1992 31.3252 64.0488 41.4746s50.2246 15.2246 76.124 15.2246c54.5996 0 100.799 -18.8994 138.599 -56.6992s56.6992 -83.999 56.6992 -138.599zM246.903 1688.55c0 -53.8994 -18.8994 -99.9238 -56.6992 -138.073s-83.999 -57.2246 -138.599 -57.2246
c-25.8994 0 -51.2744 5.25 -76.124 15.75s-46.1992 24.6748 -64.0488 42.5244c-17.8506 17.8496 -31.6758 38.3242 -41.4756 61.4248c-9.7998 23.0996 -14.7002 48.2988 -14.7002 75.5986s4.90039 52.8496 14.7002 76.6494s23.625 44.4492 41.4756 61.9492
c17.8496 17.5 39.1992 31.3252 64.0488 41.4746s50.2246 15.2246 76.124 15.2246c54.5996 0 100.799 -18.8994 138.599 -56.6992s56.6992 -83.999 56.6992 -138.599z" />
    <glyph glyph-name="Eth" unicode="&#xd0;" horiz-adv-x="1288" 
d="M1187 667c0 -114 -14.333 -214.665 -43 -301.998s-71.167 -160.333 -127.5 -219s-125.666 -103 -207.999 -133s-180.5 -45 -294.5 -45h-268c-12.667 0 -25.334 4.66699 -38.001 14s-19 26.666 -19 51.999v584h-151c-5.33301 0 -10.166 1.16699 -14.499 3.5
s-7.83301 6 -10.5 11s-4.66699 11 -6 18s-2 14.833 -2 23.5c0 10 0.666992 18.667 2 26s3.33301 13.5 6 18.5s6.16699 8.66699 10.5 11s9.16602 3.5 14.499 3.5h151v527c0 25.333 6.33301 42.666 19 51.999s25.334 14 38.001 14h286c115.333 0 213 -15.667 293 -47
s146.667 -75.833 200 -133.5s93.666 -127 120.999 -208s41 -171.167 41 -270.5zM1049 661.002c0 78.667 -10 151.832 -30 219.499s-50.667 126 -92 175s-94 87.333 -158 115s-145.667 41.5 -245 41.5h-207v-479h269c4.66699 0 9 -1.16699 13 -3.5s7.5 -6 10.5 -11
s5.16699 -11.167 6.5 -18.5s2 -16 2 -26c0 -8.66699 -0.666992 -16.5 -2 -23.5s-3.5 -13 -6.5 -18s-6.5 -8.66699 -10.5 -11s-8.33301 -3.5 -13 -3.5h-269v-536h210c92 0 170 11.333 234 34s117.167 57.834 159.5 105.501s74.333 107.667 96 180s32.5 158.833 32.5 259.5z
" />
    <glyph glyph-name="Ntilde" unicode="&#xd1;" horiz-adv-x="1327" 
d="M1141 30c0 -12.667 -1.83203 -23.168 -5.49902 -31.501s-8.5 -15.166 -14.5 -20.499s-12.667 -9 -20 -11s-14.333 -3 -21 -3h-26c-14 0 -26.833 1.66699 -38.5 5s-22.834 9.33301 -33.501 18s-21.5 20.334 -32.5 35.001s-23.167 33.667 -36.5 57l-478 848l-72.5 128
l-68.5 128h-1c0.666992 -51.333 1 -103.666 1 -156.999v-157v-880c0 -4.66699 -1 -8.66699 -3 -12s-5.5 -6 -10.5 -8s-11.5 -3.83301 -19.5 -5.5s-18.333 -2.5 -31 -2.5c-12 0 -22.167 0.833008 -30.5 2.5s-15 3.5 -20 5.5s-8.5 4.66699 -10.5 8s-3 7.33301 -3 12v1271
c0 25.333 6.66699 42.666 20 51.999s26.333 14 39 14h52c16.667 0 30.667 -1.33301 42 -4s21.5 -7.33398 30.5 -14.001s17.833 -16.167 26.5 -28.5s18.334 -27.833 29.001 -46.5l367 -650l65 -117l60.5 -110l58.5 -106.5l57 -106.5h1c-0.666992 58.667 -1 120 -1 184v184
v790c0 4.66699 1 8.66699 3 12s5.5 6.16602 10.5 8.49902s11.5 4.16602 19.5 5.49902s18.333 2 31 2c11.333 0 21.166 -0.666992 29.499 -2s15 -3.16602 20 -5.49902s8.66699 -5.16602 11 -8.49902s3.5 -7.33301 3.5 -12v-1271zM978.001 1635
c0 -68.667 -17.3301 -120.991 -51.9971 -156.991s-80.334 -54 -137.001 -54c-25.333 0 -48 3.66699 -68 11s-38.333 16.666 -55 27.999s-32.167 23.333 -46.5 36l-42.5 36c-14 11.333 -28 20.666 -42 27.999s-29 11 -45 11c-30.667 0 -52 -11.333 -64 -34
s-18 -52.334 -18 -89.001c0 -4.66699 -0.5 -8.83398 -1.5 -12.501s-3.5 -6.5 -7.5 -8.5s-9.66699 -3.5 -17 -4.5s-17 -1.5 -29 -1.5c-8.66699 0 -16.167 0.666992 -22.5 2s-11.333 3.66602 -15 6.99902s-6.33398 7.83301 -8.00098 13.5s-2.5 13.167 -2.5 22.5
c0 63.333 16.333 114.166 49 152.499s79 57.5 139 57.5c38 0 70.333 -7.83301 97 -23.5s51.167 -32.834 73.5 -51.501l64 -51.5c20.333 -15.667 42.166 -23.5 65.499 -23.5c27.333 0 47.833 10.167 61.5 30.5s20.5 51.166 20.5 92.499c0 9.33301 3 16.166 9 20.499
s19 6.5 39 6.5c22.667 0 37.5 -2.83301 44.5 -8.5s10.5 -17.5 10.5 -35.5z" />
    <glyph glyph-name="Ograve" unicode="&#xd2;" horiz-adv-x="1431" 
d="M1258 663c0 -108.667 -12.5 -206.997 -37.5 -294.997s-62.333 -162.833 -112 -224.5s-112.167 -109.334 -187.5 -143.001s-163.5 -50.5 -264.5 -50.5s-187.667 15.833 -260 47.5s-131.833 77.167 -178.5 136.5s-81 131.666 -103 216.999s-33 181.666 -33 288.999
c0 106 12.333 202.5 37 289.5s62 161 112 222s112.5 108.333 187.5 142s163.5 50.5 265.5 50.5c98.667 0 184 -15.667 256 -47s131.667 -76.5 179 -135.5s82.333 -130.5 105 -214.5s34 -178.667 34 -284zM1122 651.003c0 80.667 -7.66797 156.167 -23.001 226.5
s-40.333 131.5 -75 183.5s-80.667 93 -138 123s-128.333 45 -213 45c-84 0 -154.833 -15.667 -212.5 -47s-104.5 -73.166 -140.5 -125.499s-62 -113.5 -78 -183.5s-24 -144 -24 -222c0 -82.667 7.33301 -159.5 22 -230.5s39 -132.667 73 -185s79.833 -93.5 137.5 -123.5
s129.5 -45 215.5 -45c85.333 0 157 16 215 48s104.833 74.833 140.5 128.5s61.334 115.667 77.001 186s23.5 144.166 23.5 221.499zM786.999 1499c4 -6 6.50293 -11.501 7.50293 -16.501s0.333008 -9 -2 -12s-6.66602 -5.5 -12.999 -7.5s-14.666 -3 -24.999 -3
s-19 0.333008 -26 1s-13.167 2.16699 -18.5 4.5s-10.166 5.33301 -14.499 9s-8.83301 9.16699 -13.5 16.5l-183 246c-4.66699 6 -7.33398 11.667 -8.00098 17s0.666016 9.83301 3.99902 13.5s9.16602 6.66699 17.499 9s19.166 3.5 32.499 3.5s24.666 -0.666992 33.999 -2
s17.166 -3.16602 23.499 -5.49902s11.833 -6 16.5 -11s9.66699 -10.833 15 -17.5z" />
    <glyph glyph-name="Oacute" unicode="&#xd3;" horiz-adv-x="1431" 
d="M1258 663c0 -108.667 -12.5 -206.997 -37.5 -294.997s-62.333 -162.833 -112 -224.5s-112.167 -109.334 -187.5 -143.001s-163.5 -50.5 -264.5 -50.5s-187.667 15.833 -260 47.5s-131.833 77.167 -178.5 136.5s-81 131.666 -103 216.999s-33 181.666 -33 288.999
c0 106 12.333 202.5 37 289.5s62 161 112 222s112.5 108.333 187.5 142s163.5 50.5 265.5 50.5c98.667 0 184 -15.667 256 -47s131.667 -76.5 179 -135.5s82.333 -130.5 105 -214.5s34 -178.667 34 -284zM1122 651.003c0 80.667 -7.66797 156.167 -23.001 226.5
s-40.333 131.5 -75 183.5s-80.667 93 -138 123s-128.333 45 -213 45c-84 0 -154.833 -15.667 -212.5 -47s-104.5 -73.166 -140.5 -125.499s-62 -113.5 -78 -183.5s-24 -144 -24 -222c0 -82.667 7.33301 -159.5 22 -230.5s39 -132.667 73 -185s79.833 -93.5 137.5 -123.5
s129.5 -45 215.5 -45c85.333 0 157 16 215 48s104.833 74.833 140.5 128.5s61.334 115.667 77.001 186s23.5 144.166 23.5 221.499zM764.999 1744c4.66699 6.66699 9.33301 12.501 14 17.501s10.334 8.66699 17.001 11s14.834 4.16602 24.501 5.49902s21.167 2 34.5 2
s24.166 -1.16699 32.499 -3.5s14.166 -5.33301 17.499 -9s4.5 -8.16699 3.5 -13.5s-3.83301 -11 -8.5 -17l-183 -246c-4.66699 -7.33301 -9 -12.833 -13 -16.5s-8.33301 -6.66699 -13 -9s-10.5 -3.83301 -17.5 -4.5s-15.833 -1 -26.5 -1s-19.334 1 -26.001 3
s-11.167 4.5 -13.5 7.5s-3.16602 7 -2.49902 12s3 10.5 7 16.5z" />
    <glyph glyph-name="Ocircumflex" unicode="&#xd4;" horiz-adv-x="1431" 
d="M1258 663c0 -108.667 -12.5 -206.997 -37.5 -294.997s-62.333 -162.833 -112 -224.5s-112.167 -109.334 -187.5 -143.001s-163.5 -50.5 -264.5 -50.5s-187.667 15.833 -260 47.5s-131.833 77.167 -178.5 136.5s-81 131.666 -103 216.999s-33 181.666 -33 288.999
c0 106 12.333 202.5 37 289.5s62 161 112 222s112.5 108.333 187.5 142s163.5 50.5 265.5 50.5c98.667 0 184 -15.667 256 -47s131.667 -76.5 179 -135.5s82.333 -130.5 105 -214.5s34 -178.667 34 -284zM1122 651.003c0 80.667 -7.66797 156.167 -23.001 226.5
s-40.333 131.5 -75 183.5s-80.667 93 -138 123s-128.333 45 -213 45c-84 0 -154.833 -15.667 -212.5 -47s-104.5 -73.166 -140.5 -125.499s-62 -113.5 -78 -183.5s-24 -144 -24 -222c0 -82.667 7.33301 -159.5 22 -230.5s39 -132.667 73 -185s79.833 -93.5 137.5 -123.5
s129.5 -45 215.5 -45c85.333 0 157 16 215 48s104.833 74.833 140.5 128.5s61.334 115.667 77.001 186s23.5 144.166 23.5 221.499zM523.999 1488c-4.66699 -6 -8.66504 -10.666 -11.998 -13.999s-7.5 -6.16602 -12.5 -8.49902s-10.667 -3.83301 -17 -4.5
s-13.833 -1 -22.5 -1c-14 0 -24.833 1.16699 -32.5 3.5s-12.834 5.5 -15.501 9.5s-2.66699 9.33301 0 16s7.33398 14.667 14.001 24l178 243c3.33301 5.33301 6.83301 9.33301 10.5 12s8.33398 5 14.001 7s12.5 3.33301 20.5 4s18 1 30 1c10.667 0 19.5 -0.333008 26.5 -1
s13.167 -2.16699 18.5 -4.5s9.66602 -4.83301 12.999 -7.5s6.66602 -6.33398 9.99902 -11.001l178 -243c6 -9.33301 10.333 -17.333 13 -24s2.66699 -12 0 -16s-7.83398 -7.16699 -15.501 -9.5s-18.167 -3.5 -31.5 -3.5c-10 0 -18.167 0.333008 -24.5 1
s-11.833 2.16699 -16.5 4.5s-8.5 5.16602 -11.5 8.49902s-6.83301 8 -11.5 14l-152 208z" />
    <glyph glyph-name="Otilde" unicode="&#xd5;" horiz-adv-x="1431" 
d="M1258 663c0 -108.667 -12.5 -206.997 -37.5 -294.997s-62.333 -162.833 -112 -224.5s-112.167 -109.334 -187.5 -143.001s-163.5 -50.5 -264.5 -50.5s-187.667 15.833 -260 47.5s-131.833 77.167 -178.5 136.5s-81 131.666 -103 216.999s-33 181.666 -33 288.999
c0 106 12.333 202.5 37 289.5s62 161 112 222s112.5 108.333 187.5 142s163.5 50.5 265.5 50.5c98.667 0 184 -15.667 256 -47s131.667 -76.5 179 -135.5s82.333 -130.5 105 -214.5s34 -178.667 34 -284zM1122 651.003c0 80.667 -7.66797 156.167 -23.001 226.5
s-40.333 131.5 -75 183.5s-80.667 93 -138 123s-128.333 45 -213 45c-84 0 -154.833 -15.667 -212.5 -47s-104.5 -73.166 -140.5 -125.499s-62 -113.5 -78 -183.5s-24 -144 -24 -222c0 -82.667 7.33301 -159.5 22 -230.5s39 -132.667 73 -185s79.833 -93.5 137.5 -123.5
s129.5 -45 215.5 -45c85.333 0 157 16 215 48s104.833 74.833 140.5 128.5s61.334 115.667 77.001 186s23.5 144.166 23.5 221.499zM978.999 1678c0 -68.667 -17.3301 -120.991 -51.9971 -156.991s-80.334 -54 -137.001 -54c-25.333 0 -48 3.66699 -68 11
s-38.333 16.666 -55 27.999s-32.167 23.333 -46.5 36l-42.5 36c-14 11.333 -28 20.666 -42 27.999s-29 11 -45 11c-30.667 0 -52 -11.333 -64 -34s-18 -52.334 -18 -89.001c0 -4.66699 -0.5 -8.83398 -1.5 -12.501s-3.5 -6.5 -7.5 -8.5s-9.66699 -3.5 -17 -4.5
s-17 -1.5 -29 -1.5c-8.66699 0 -16.167 0.666992 -22.5 2s-11.333 3.66602 -15 6.99902s-6.33398 7.83301 -8.00098 13.5s-2.5 13.167 -2.5 22.5c0 63.333 16.333 114.166 49 152.499s79 57.5 139 57.5c38 0 70.333 -7.83301 97 -23.5s51.167 -32.834 73.5 -51.501l64 -51.5
c20.333 -15.667 42.166 -23.5 65.499 -23.5c27.333 0 47.833 10.167 61.5 30.5s20.5 51.166 20.5 92.499c0 9.33301 3 16.166 9 20.499s19 6.5 39 6.5c22.667 0 37.5 -2.83301 44.5 -8.5s10.5 -17.5 10.5 -35.5z" />
    <glyph glyph-name="Odieresis" unicode="&#xd6;" horiz-adv-x="1431" 
d="M1258 663c0 -108.667 -12.5 -206.997 -37.5 -294.997s-62.333 -162.833 -112 -224.5s-112.167 -109.334 -187.5 -143.001s-163.5 -50.5 -264.5 -50.5s-187.667 15.833 -260 47.5s-131.833 77.167 -178.5 136.5s-81 131.666 -103 216.999s-33 181.666 -33 288.999
c0 106 12.333 202.5 37 289.5s62 161 112 222s112.5 108.333 187.5 142s163.5 50.5 265.5 50.5c98.667 0 184 -15.667 256 -47s131.667 -76.5 179 -135.5s82.333 -130.5 105 -214.5s34 -178.667 34 -284zM1122 651.003c0 80.667 -7.66797 156.167 -23.001 226.5
s-40.333 131.5 -75 183.5s-80.667 93 -138 123s-128.333 45 -213 45c-84 0 -154.833 -15.667 -212.5 -47s-104.5 -73.166 -140.5 -125.499s-62 -113.5 -78 -183.5s-24 -144 -24 -222c0 -82.667 7.33301 -159.5 22 -230.5s39 -132.667 73 -185s79.833 -93.5 137.5 -123.5
s129.5 -45 215.5 -45c85.333 0 157 16 215 48s104.833 74.833 140.5 128.5s61.334 115.667 77.001 186s23.5 144.166 23.5 221.499zM1050.9 1685.55c0 -53.8994 -18.8994 -99.9238 -56.6992 -138.073s-83.999 -57.2246 -138.599 -57.2246
c-25.8994 0 -51.2744 5.25 -76.124 15.75s-46.1992 24.6748 -64.0488 42.5244c-17.8506 17.8496 -31.6758 38.3242 -41.4756 61.4248c-9.7998 23.0996 -14.7002 48.2988 -14.7002 75.5986s4.90039 52.8496 14.7002 76.6494s23.625 44.4492 41.4756 61.9492
c17.8496 17.5 39.1992 31.3252 64.0488 41.4746s50.2246 15.2246 76.124 15.2246c54.5996 0 100.799 -18.8994 138.599 -56.6992s56.6992 -83.999 56.6992 -138.599zM688.901 1688.55c0 -53.8994 -18.8994 -99.9238 -56.6992 -138.073s-83.999 -57.2246 -138.599 -57.2246
c-25.8994 0 -51.2744 5.25 -76.124 15.75s-46.1992 24.6748 -64.0488 42.5244c-17.8506 17.8496 -31.6758 38.3242 -41.4756 61.4248c-9.7998 23.0996 -14.7002 48.2988 -14.7002 75.5986s4.90039 52.8496 14.7002 76.6494s23.625 44.4492 41.4756 61.9492
c17.8496 17.5 39.1992 31.3252 64.0488 41.4746s50.2246 15.2246 76.124 15.2246c54.5996 0 100.799 -18.8994 138.599 -56.6992s56.6992 -83.999 56.6992 -138.599z" />
    <glyph glyph-name="multiply" unicode="&#xd7;" horiz-adv-x="1074" 
d="M595 571l331.997 -331.002c2.66699 -3.33301 5.16699 -6.83301 7.5 -10.5s3.5 -7.83398 3.5 -12.501c0 -6 -2.66699 -13.333 -8 -22s-12.166 -16.667 -20.499 -24s-16.833 -13.5 -25.5 -18.5s-16 -7.5 -22 -7.5c-4 0 -7.66699 0.833008 -11 2.5
s-6.66602 3.83398 -9.99902 6.50098l-333 333l-333 -333c-3.33301 -3.33301 -7.16602 -5.66602 -11.499 -6.99902s-8.16602 -2 -11.499 -2c-6.66699 0 -14 2.66699 -22 8s-15.667 11.833 -23 19.5s-13.333 16 -18 25s-7 16.5 -7 22.5c0 8 3 15.333 9 22l333 333l-333 333
c-2.66699 2.66699 -4.83398 6 -6.50098 10s-2.5 7.66699 -2.5 11c0 6.66699 2.66699 14.334 8 23.001s12 16.667 20 24s16.333 13.333 25 18s16 7 22 7c8 0 15.333 -3.33301 22 -10l333 -333l333 333c2.66699 3.33301 6 5.83301 10 7.5s7.66699 2.5 11 2.5
c6 0 13.333 -2.66699 22 -8s16.667 -11.833 24 -19.5s13.5 -16 18.5 -25s7.5 -16.833 7.5 -23.5c0 -3.33301 -0.666992 -6.83301 -2 -10.5s-4 -7.16699 -8 -10.5z" />
    <glyph glyph-name="Oslash" unicode="&#xd8;" horiz-adv-x="1361" 
d="M1258 663c0 -108.667 -12.6689 -207 -38.002 -295s-63.166 -162.833 -113.499 -224.5s-113.166 -109.334 -188.499 -143.001s-162.666 -50.5 -261.999 -50.5c-46.667 0 -89.5 3.66699 -128.5 11s-75.833 18 -110.5 32l-125 -249c-2 -4 -5.33301 -7.66699 -10 -11
s-10.5 -5.66602 -17.5 -6.99902s-15 -2.33301 -24 -3s-19.833 -1 -32.5 -1c-13.333 0 -23.833 1.16699 -31.5 3.5s-13 5.83301 -16 10.5s-4.16699 10.167 -3.5 16.5s3 13.166 7 20.499l140 282c-38 28 -70.833 61.5 -98.5 100.5s-50.834 83 -69.501 132
s-32.334 103 -41.001 162s-13 122.5 -13 190.5c0 106 12.333 202.5 37 289.5s62 161 112 222s112.5 108.333 187.5 142s163.5 50.5 265.5 50.5c46 0 88.167 -3.83301 126.5 -11.5s75.833 -18.834 112.5 -33.501l124 251c2.66699 4.66699 6.33398 8.5 11.001 11.5
s10.5 5.33301 17.5 7s15.167 2.66699 24.5 3s20.333 0.5 33 0.5c13.333 0 23.666 -1.16699 30.999 -3.5s12.5 -5.83301 15.5 -10.5s4.16699 -10.167 3.5 -16.5s-3 -13.166 -7 -20.499l-141 -284c37.333 -28.667 69.833 -62.334 97.5 -101.001s50.834 -82.167 69.501 -130.5
s32.667 -101.166 42 -158.499s14 -118.666 14 -183.999zM1122 651c0 96.667 -11.501 185.001 -34.501 265.001s-60.167 146.667 -111.5 200l-504 -1010c26.667 -12 55.667 -21.5 87 -28.5s67 -10.5 107 -10.5c85.333 0 157 16 215 48s104.833 74.833 140.5 128.5
s61.334 115.667 77.001 186s23.5 144.166 23.5 221.499zM870.997 1188c-27.333 13.333 -57.167 23.499 -89.5 30.499s-68.5 10.5 -108.5 10.5c-84 0 -154.833 -15.667 -212.5 -47s-104.5 -73.166 -140.5 -125.499s-62 -113.5 -78 -183.5s-24 -144 -24 -222
c0 -99.333 11.333 -190.333 34 -273s60.667 -150.667 114 -204z" />
    <glyph glyph-name="Ugrave" unicode="&#xd9;" horiz-adv-x="1327" 
d="M1139 468c0 -82.667 -11.666 -156.168 -34.999 -220.501s-56.666 -118.666 -99.999 -162.999s-95.833 -77.833 -157.5 -100.5s-130.834 -34 -207.501 -34c-68.667 0 -132.334 10.833 -191.001 32.5s-109.167 53.667 -151.5 96s-75.166 94.833 -98.499 157.5
s-35 135 -35 217v853c0 4 1 7.66699 3 11s5.66699 6.16602 11 8.49902s11.833 4.16602 19.5 5.49902s17.834 2 30.501 2c12 0 22.167 -0.666992 30.5 -2s15 -3.16602 20 -5.49902s8.5 -5.16602 10.5 -8.49902s3 -7 3 -11v-832c0 -68 8.16699 -127.5 24.5 -178.5
s40.166 -93.5 71.499 -127.5s69.166 -59.5 113.499 -76.5s94.5 -25.5 150.5 -25.5c56.667 0 107.167 8.16699 151.5 24.5s82 41.333 113 75s54.667 75.5 71 125.5s24.5 108.667 24.5 176v839c0 4 1 7.66699 3 11s5.5 6.16602 10.5 8.49902s11.667 4.16602 20 5.49902
s18.5 2 30.5 2s22.167 -0.666992 30.5 -2s15 -3.16602 20 -5.49902s8.5 -5.16602 10.5 -8.49902s3 -7 3 -11v-838zM723.001 1499c4 -6 6.50293 -11.501 7.50293 -16.501s0.333008 -9 -2 -12s-6.66602 -5.5 -12.999 -7.5s-14.666 -3 -24.999 -3s-19 0.333008 -26 1
s-13.167 2.16699 -18.5 4.5s-10.166 5.33301 -14.499 9s-8.83301 9.16699 -13.5 16.5l-183 246c-4.66699 6 -7.33398 11.667 -8.00098 17s0.666016 9.83301 3.99902 13.5s9.16602 6.66699 17.499 9s19.166 3.5 32.499 3.5s24.666 -0.666992 33.999 -2
s17.166 -3.16602 23.499 -5.49902s11.833 -6 16.5 -11s9.66699 -10.833 15 -17.5z" />
    <glyph glyph-name="Uacute" unicode="&#xda;" horiz-adv-x="1327" 
d="M1139 468c0 -82.667 -11.666 -156.168 -34.999 -220.501s-56.666 -118.666 -99.999 -162.999s-95.833 -77.833 -157.5 -100.5s-130.834 -34 -207.501 -34c-68.667 0 -132.334 10.833 -191.001 32.5s-109.167 53.667 -151.5 96s-75.166 94.833 -98.499 157.5
s-35 135 -35 217v853c0 4 1 7.66699 3 11s5.66699 6.16602 11 8.49902s11.833 4.16602 19.5 5.49902s17.834 2 30.501 2c12 0 22.167 -0.666992 30.5 -2s15 -3.16602 20 -5.49902s8.5 -5.16602 10.5 -8.49902s3 -7 3 -11v-832c0 -68 8.16699 -127.5 24.5 -178.5
s40.166 -93.5 71.499 -127.5s69.166 -59.5 113.499 -76.5s94.5 -25.5 150.5 -25.5c56.667 0 107.167 8.16699 151.5 24.5s82 41.333 113 75s54.667 75.5 71 125.5s24.5 108.667 24.5 176v839c0 4 1 7.66699 3 11s5.5 6.16602 10.5 8.49902s11.667 4.16602 20 5.49902
s18.5 2 30.5 2s22.167 -0.666992 30.5 -2s15 -3.16602 20 -5.49902s8.5 -5.16602 10.5 -8.49902s3 -7 3 -11v-838zM716.001 1744c4.66699 6.66699 9.33301 12.501 14 17.501s10.334 8.66699 17.001 11s14.834 4.16602 24.501 5.49902s21.167 2 34.5 2
s24.166 -1.16699 32.499 -3.5s14.166 -5.33301 17.499 -9s4.5 -8.16699 3.5 -13.5s-3.83301 -11 -8.5 -17l-183 -246c-4.66699 -7.33301 -9 -12.833 -13 -16.5s-8.33301 -6.66699 -13 -9s-10.5 -3.83301 -17.5 -4.5s-15.833 -1 -26.5 -1s-19.334 1 -26.001 3
s-11.167 4.5 -13.5 7.5s-3.16602 7 -2.49902 12s3 10.5 7 16.5z" />
    <glyph glyph-name="Ucircumflex" unicode="&#xdb;" horiz-adv-x="1327" 
d="M1139 468c0 -82.667 -11.666 -156.168 -34.999 -220.501s-56.666 -118.666 -99.999 -162.999s-95.833 -77.833 -157.5 -100.5s-130.834 -34 -207.501 -34c-68.667 0 -132.334 10.833 -191.001 32.5s-109.167 53.667 -151.5 96s-75.166 94.833 -98.499 157.5
s-35 135 -35 217v853c0 4 1 7.66699 3 11s5.66699 6.16602 11 8.49902s11.833 4.16602 19.5 5.49902s17.834 2 30.501 2c12 0 22.167 -0.666992 30.5 -2s15 -3.16602 20 -5.49902s8.5 -5.16602 10.5 -8.49902s3 -7 3 -11v-832c0 -68 8.16699 -127.5 24.5 -178.5
s40.166 -93.5 71.499 -127.5s69.166 -59.5 113.499 -76.5s94.5 -25.5 150.5 -25.5c56.667 0 107.167 8.16699 151.5 24.5s82 41.333 113 75s54.667 75.5 71 125.5s24.5 108.667 24.5 176v839c0 4 1 7.66699 3 11s5.5 6.16602 10.5 8.49902s11.667 4.16602 20 5.49902
s18.5 2 30.5 2s22.167 -0.666992 30.5 -2s15 -3.16602 20 -5.49902s8.5 -5.16602 10.5 -8.49902s3 -7 3 -11v-838zM518.001 1488c-4.66699 -6 -8.66504 -10.666 -11.998 -13.999s-7.5 -6.16602 -12.5 -8.49902s-10.667 -3.83301 -17 -4.5s-13.833 -1 -22.5 -1
c-14 0 -24.833 1.16699 -32.5 3.5s-12.834 5.5 -15.501 9.5s-2.66699 9.33301 0 16s7.33398 14.667 14.001 24l178 243c3.33301 5.33301 6.83301 9.33301 10.5 12s8.33398 5 14.001 7s12.5 3.33301 20.5 4s18 1 30 1c10.667 0 19.5 -0.333008 26.5 -1
s13.167 -2.16699 18.5 -4.5s9.66602 -4.83301 12.999 -7.5s6.66602 -6.33398 9.99902 -11.001l178 -243c6 -9.33301 10.333 -17.333 13 -24s2.66699 -12 0 -16s-7.83398 -7.16699 -15.501 -9.5s-18.167 -3.5 -31.5 -3.5c-10 0 -18.167 0.333008 -24.5 1
s-11.833 2.16699 -16.5 4.5s-8.5 5.16602 -11.5 8.49902s-6.83301 8 -11.5 14l-152 208z" />
    <glyph glyph-name="Udieresis" unicode="&#xdc;" horiz-adv-x="1327" 
d="M1139 468c0 -82.667 -11.666 -156.168 -34.999 -220.501s-56.666 -118.666 -99.999 -162.999s-95.833 -77.833 -157.5 -100.5s-130.834 -34 -207.501 -34c-68.667 0 -132.334 10.833 -191.001 32.5s-109.167 53.667 -151.5 96s-75.166 94.833 -98.499 157.5
s-35 135 -35 217v853c0 4 1 7.66699 3 11s5.66699 6.16602 11 8.49902s11.833 4.16602 19.5 5.49902s17.834 2 30.501 2c12 0 22.167 -0.666992 30.5 -2s15 -3.16602 20 -5.49902s8.5 -5.16602 10.5 -8.49902s3 -7 3 -11v-832c0 -68 8.16699 -127.5 24.5 -178.5
s40.166 -93.5 71.499 -127.5s69.166 -59.5 113.499 -76.5s94.5 -25.5 150.5 -25.5c56.667 0 107.167 8.16699 151.5 24.5s82 41.333 113 75s54.667 75.5 71 125.5s24.5 108.667 24.5 176v839c0 4 1 7.66699 3 11s5.5 6.16602 10.5 8.49902s11.667 4.16602 20 5.49902
s18.5 2 30.5 2s22.167 -0.666992 30.5 -2s15 -3.16602 20 -5.49902s8.5 -5.16602 10.5 -8.49902s3 -7 3 -11v-838zM1040.9 1685.55c0 -53.8994 -18.8994 -99.9238 -56.6992 -138.073s-83.999 -57.2246 -138.599 -57.2246c-25.8994 0 -51.2744 5.25 -76.124 15.75
s-46.1992 24.6748 -64.0488 42.5244c-17.8506 17.8496 -31.6758 38.3242 -41.4756 61.4248c-9.7998 23.0996 -14.7002 48.2988 -14.7002 75.5986s4.90039 52.8496 14.7002 76.6494s23.625 44.4492 41.4756 61.9492c17.8496 17.5 39.1992 31.3252 64.0488 41.4746
s50.2246 15.2246 76.124 15.2246c54.5996 0 100.799 -18.8994 138.599 -56.6992s56.6992 -83.999 56.6992 -138.599zM678.903 1688.55c0 -53.8994 -18.8994 -99.9238 -56.6992 -138.073s-83.999 -57.2246 -138.599 -57.2246c-25.8994 0 -51.2744 5.25 -76.124 15.75
s-46.1992 24.6748 -64.0488 42.5244c-17.8506 17.8496 -31.6758 38.3242 -41.4756 61.4248c-9.7998 23.0996 -14.7002 48.2988 -14.7002 75.5986s4.90039 52.8496 14.7002 76.6494s23.625 44.4492 41.4756 61.9492c17.8496 17.5 39.1992 31.3252 64.0488 41.4746
s50.2246 15.2246 76.124 15.2246c54.5996 0 100.799 -18.8994 138.599 -56.6992s56.6992 -83.999 56.6992 -138.599z" />
    <glyph glyph-name="Yacute" unicode="&#xdd;" horiz-adv-x="963" 
d="M545 503l0.00195312 -513.998c0 -4.66699 -1 -8.66699 -3 -12s-5.5 -6 -10.5 -8s-11.667 -3.83301 -20 -5.5s-18.5 -2.5 -30.5 -2.5c-12.667 0 -23 0.833008 -31 2.5s-14.667 3.5 -20 5.5s-9 4.66699 -11 8s-3 7.33301 -3 12v514l-391 780
c-4.66699 10.667 -7.33398 19.167 -8.00098 25.5s0.833008 11.166 4.5 14.499s10.167 5.83301 19.5 7.5s21 2.5 35 2.5c15.333 0 27.666 -0.5 36.999 -1.5s17 -2.66699 23 -5s10.333 -5.16602 13 -8.49902s5.66699 -7.66602 9 -12.999l208 -423l58 -124l58 -129h2l55.5 125
l58.5 125l210 426c2 5.33301 4.33301 9.66602 7 12.999s6.5 6.16602 11.5 8.49902s11.5 4 19.5 5s18 1.5 30 1.5c16.667 0 30.334 -0.833008 41.001 -2.5s18 -4.33398 22 -8.00098s5.66699 -8.66699 5 -15s-3.33398 -14.5 -8.00098 -24.5zM655.002 1701
c4.66699 6.66699 9.33301 12.501 14 17.501s10.334 8.66699 17.001 11s14.834 4.16602 24.501 5.49902s21.167 2 34.5 2s24.166 -1.16699 32.499 -3.5s14.166 -5.33301 17.499 -9s4.5 -8.16699 3.5 -13.5s-3.83301 -11 -8.5 -17l-183 -246
c-4.66699 -7.33301 -9 -12.833 -13 -16.5s-8.33301 -6.66699 -13 -9s-10.5 -3.83301 -17.5 -4.5s-15.833 -1 -26.5 -1s-19.334 1 -26.001 3s-11.167 4.5 -13.5 7.5s-3.16602 7 -2.49902 12s3 10.5 7 16.5z" />
    <glyph glyph-name="Thorn" unicode="&#xde;" horiz-adv-x="1107" 
d="M953 702c0 -63.333 -10.5 -121.167 -31.5 -173.5s-51 -97.5 -90 -135.5s-86.333 -67.5 -142 -88.5s-117.834 -31.5 -186.501 -31.5h-205v-287c0 -4.66699 -1 -8.66699 -3 -12s-5.5 -6.33301 -10.5 -9s-11.5 -4.5 -19.5 -5.5s-18.333 -1.5 -31 -1.5
c-11.333 0 -21.333 0.5 -30 1.5s-15.334 2.83301 -20.001 5.5s-8.16699 5.66699 -10.5 9s-3.5 7.33301 -3.5 12v1321c0 4.66699 1.16699 8.66699 3.5 12s5.83301 6.16602 10.5 8.49902s11.334 4.16602 20.001 5.49902s18.667 2 30 2c12.667 0 23 -0.666992 31 -2
s14.5 -3.16602 19.5 -5.49902s8.5 -5.16602 10.5 -8.49902s3 -7.33301 3 -12v-216h207c27.333 0 54.333 -1.16699 81 -3.5s52.334 -6.5 77.001 -12.5c44.667 -10 84.834 -26 120.501 -48s66.167 -49.167 91.5 -81.5s44.666 -69 57.999 -110s20 -85.5 20 -133.5zM817 689.999
c0 72 -17.668 131.833 -53.001 179.5s-85 79.167 -149 94.5c-20 6 -40.833 9.5 -62.5 10.5s-40.5 1.5 -56.5 1.5h-198v-589h221c46 0 87.5 7.5 124.5 22.5s68.333 35.833 94 62.5s45.334 58.667 59.001 96s20.5 78 20.5 122z" />
    <glyph glyph-name="germandbls" unicode="&#xdf;" horiz-adv-x="1123" 
d="M990 230c0 -41.333 -7.49902 -79.335 -22.499 -114.002s-36.5 -64.334 -64.5 -89.001s-61.833 -44 -101.5 -58s-83.834 -21 -132.501 -21c-20 0 -39.833 1.83301 -59.5 5.5s-38 8.16699 -55 13.5s-31.833 11 -44.5 17s-21.667 11.5 -27 16.5s-9.5 12.167 -12.5 21.5
s-4.5 22.333 -4.5 39c0 8.66699 0.5 16.334 1.5 23.001s2.83301 12.167 5.5 16.5s5.66699 7.5 9 9.5s7 3 11 3c8 0 16.667 -3 26 -9s21.166 -12.667 35.499 -20s31.5 -14 51.5 -20s44.667 -9 74 -9c28.667 0 54.334 4.33301 77.001 13s41.834 20.334 57.501 35.001
s27.667 32 36 52s12.5 41 12.5 63c0 30 -5.66699 55.833 -17 77.5s-26.166 41 -44.499 58s-39.5 32.667 -63.5 47l-72.5 43.5c-24.333 14.667 -48.5 30.334 -72.5 47.001s-45.167 35.667 -63.5 57s-33.166 45.833 -44.499 73.5s-17 59.834 -17 96.501
c0 38 6.5 71.667 19.5 101s31 54.666 54 75.999s50.167 38.5 81.5 51.5s65 21.5 101 25.5c9.33301 20 15.333 40.5 18 61.5s4 44.167 4 69.5c0 26 -4.16699 52.5 -12.5 79.5s-21.5 51.167 -39.5 72.5s-41.167 38.833 -69.5 52.5s-62.833 20.5 -103.5 20.5
c-46 0 -84.833 -7.66699 -116.5 -23s-57.334 -36.666 -77.001 -63.999s-33.834 -59.833 -42.501 -97.5s-13 -78.5 -13 -122.5v-1035c0 -4 -1 -7.66699 -3 -11s-5.33301 -6.16602 -10 -8.49902s-11 -4.16602 -19 -5.49902s-18.333 -2 -31 -2c-12 0 -22 0.666992 -30 2
s-14.5 3.16602 -19.5 5.49902s-8.33301 5.16602 -10 8.49902s-2.5 7 -2.5 11v1028c0 62 8 118.833 24 170.5s40 96 72 133s71.333 65.833 118 86.5s101.334 31 164.001 31c60 0 111.667 -9.66699 155 -29s79.166 -44.5 107.499 -75.5s49.333 -65.5 63 -103.5
s20.5 -75.667 20.5 -113c0 -34 -2.66699 -66 -8 -96s-13.5 -59.167 -24.5 -87.5s-19.833 -45.333 -26.5 -51s-16.334 -8.5 -29.001 -8.5c-34.667 0 -64.167 -4.16699 -88.5 -12.5s-44 -19.333 -59 -33s-26 -29 -33 -46s-10.5 -34.5 -10.5 -52.5
c0 -37.333 9.83301 -68.666 29.5 -93.999s44.167 -47.833 73.5 -67.5s61.333 -38.667 96 -57s66.667 -39.833 96 -64.5s53.833 -53.834 73.5 -87.501s29.5 -75.834 29.5 -126.501z" />
    <glyph glyph-name="agrave" unicode="&#xe0;" horiz-adv-x="973" 
d="M818 -3c0 -6.66699 -2.16992 -12.002 -6.50293 -16.002s-10.166 -6.83301 -17.499 -8.5s-17.333 -2.5 -30 -2.5c-12 0 -22.167 0.833008 -30.5 2.5s-14.833 4.5 -19.5 8.5s-7 9.33301 -7 16v106c-42.667 -46 -89.667 -81.5 -141 -106.5s-104.666 -37.5 -159.999 -37.5
c-50 0 -94.667 6.33301 -134 19s-72.666 31.167 -99.999 55.5s-48.333 53.666 -63 87.999s-22 72.833 -22 115.5c0 52.667 10.833 98.334 32.5 137.001s52.334 71 92.001 97s87.5 45.5 143.5 58.5s118.333 19.5 187 19.5h151v82c0 40 -4.16699 75.667 -12.5 107
s-21.833 57.5 -40.5 78.5s-43.167 36.667 -73.5 47s-67.166 15.5 -110.499 15.5c-42 0 -79.833 -5 -113.5 -15s-63 -21.333 -88 -34s-45.833 -24 -62.5 -34s-28.334 -15 -35.001 -15c-4 0 -7.83301 0.666992 -11.5 2s-6.66699 3.83301 -9 7.5s-4 8.5 -5 14.5
s-1.5 13.333 -1.5 22c0 14.667 1 26.334 3 35.001s7.33301 17.334 16 26.001s24.167 19 46.5 31s48.166 23.167 77.499 33.5s60.666 18.5 93.999 24.5s67 9 101 9c64.667 0 119.5 -7.83301 164.5 -23.5s81.333 -38.167 109 -67.5s47.334 -65.5 59.001 -108.5
s17.5 -91.833 17.5 -146.5v-643zM692.997 445.998h-173.001c-50 0 -94 -4.66699 -132 -14s-69.5 -22.666 -94.5 -39.999s-43.667 -38.333 -56 -63s-18.5 -52.667 -18.5 -84c0 -54.667 17.333 -98.167 52 -130.5s83.334 -48.5 146.001 -48.5c50 0 96.5 12.667 139.5 38
s88.5 64.666 136.5 117.999v224zM550.996 1127c4 -6 6.50293 -11.501 7.50293 -16.501s0.333008 -9 -2 -12s-6.66602 -5.5 -12.999 -7.5s-14.666 -3 -24.999 -3s-19 0.333008 -26 1s-13.167 2.16699 -18.5 4.5s-10.166 5.33301 -14.499 9s-8.83301 9.16699 -13.5 16.5
l-183 246c-4.66699 6 -7.33398 11.667 -8.00098 17s0.666016 9.83301 3.99902 13.5s9.16602 6.66699 17.499 9s19.166 3.5 32.499 3.5s24.666 -0.666992 33.999 -2s17.166 -3.16602 23.499 -5.49902s11.833 -6 16.5 -11s9.66699 -10.833 15 -17.5z" />
    <glyph glyph-name="aacute" unicode="&#xe1;" horiz-adv-x="973" 
d="M818 -3c0 -6.66699 -2.16992 -12.002 -6.50293 -16.002s-10.166 -6.83301 -17.499 -8.5s-17.333 -2.5 -30 -2.5c-12 0 -22.167 0.833008 -30.5 2.5s-14.833 4.5 -19.5 8.5s-7 9.33301 -7 16v106c-42.667 -46 -89.667 -81.5 -141 -106.5s-104.666 -37.5 -159.999 -37.5
c-50 0 -94.667 6.33301 -134 19s-72.666 31.167 -99.999 55.5s-48.333 53.666 -63 87.999s-22 72.833 -22 115.5c0 52.667 10.833 98.334 32.5 137.001s52.334 71 92.001 97s87.5 45.5 143.5 58.5s118.333 19.5 187 19.5h151v82c0 40 -4.16699 75.667 -12.5 107
s-21.833 57.5 -40.5 78.5s-43.167 36.667 -73.5 47s-67.166 15.5 -110.499 15.5c-42 0 -79.833 -5 -113.5 -15s-63 -21.333 -88 -34s-45.833 -24 -62.5 -34s-28.334 -15 -35.001 -15c-4 0 -7.83301 0.666992 -11.5 2s-6.66699 3.83301 -9 7.5s-4 8.5 -5 14.5
s-1.5 13.333 -1.5 22c0 14.667 1 26.334 3 35.001s7.33301 17.334 16 26.001s24.167 19 46.5 31s48.166 23.167 77.499 33.5s60.666 18.5 93.999 24.5s67 9 101 9c64.667 0 119.5 -7.83301 164.5 -23.5s81.333 -38.167 109 -67.5s47.334 -65.5 59.001 -108.5
s17.5 -91.833 17.5 -146.5v-643zM692.997 445.998h-173.001c-50 0 -94 -4.66699 -132 -14s-69.5 -22.666 -94.5 -39.999s-43.667 -38.333 -56 -63s-18.5 -52.667 -18.5 -84c0 -54.667 17.333 -98.167 52 -130.5s83.334 -48.5 146.001 -48.5c50 0 96.5 12.667 139.5 38
s88.5 64.666 136.5 117.999v224zM519.996 1372c4.66699 6.66699 9.33301 12.501 14 17.501s10.334 8.66699 17.001 11s14.834 4.16602 24.501 5.49902s21.167 2 34.5 2s24.166 -1.16699 32.499 -3.5s14.166 -5.33301 17.499 -9s4.5 -8.16699 3.5 -13.5
s-3.83301 -11 -8.5 -17l-183 -246c-4.66699 -7.33301 -9 -12.833 -13 -16.5s-8.33301 -6.66699 -13 -9s-10.5 -3.83301 -17.5 -4.5s-15.833 -1 -26.5 -1s-19.334 1 -26.001 3s-11.167 4.5 -13.5 7.5s-3.16602 7 -2.49902 12s3 10.5 7 16.5z" />
    <glyph glyph-name="acircumflex" unicode="&#xe2;" horiz-adv-x="973" 
d="M818 -3c0 -6.66699 -2.16992 -12.002 -6.50293 -16.002s-10.166 -6.83301 -17.499 -8.5s-17.333 -2.5 -30 -2.5c-12 0 -22.167 0.833008 -30.5 2.5s-14.833 4.5 -19.5 8.5s-7 9.33301 -7 16v106c-42.667 -46 -89.667 -81.5 -141 -106.5s-104.666 -37.5 -159.999 -37.5
c-50 0 -94.667 6.33301 -134 19s-72.666 31.167 -99.999 55.5s-48.333 53.666 -63 87.999s-22 72.833 -22 115.5c0 52.667 10.833 98.334 32.5 137.001s52.334 71 92.001 97s87.5 45.5 143.5 58.5s118.333 19.5 187 19.5h151v82c0 40 -4.16699 75.667 -12.5 107
s-21.833 57.5 -40.5 78.5s-43.167 36.667 -73.5 47s-67.166 15.5 -110.499 15.5c-42 0 -79.833 -5 -113.5 -15s-63 -21.333 -88 -34s-45.833 -24 -62.5 -34s-28.334 -15 -35.001 -15c-4 0 -7.83301 0.666992 -11.5 2s-6.66699 3.83301 -9 7.5s-4 8.5 -5 14.5
s-1.5 13.333 -1.5 22c0 14.667 1 26.334 3 35.001s7.33301 17.334 16 26.001s24.167 19 46.5 31s48.166 23.167 77.499 33.5s60.666 18.5 93.999 24.5s67 9 101 9c64.667 0 119.5 -7.83301 164.5 -23.5s81.333 -38.167 109 -67.5s47.334 -65.5 59.001 -108.5
s17.5 -91.833 17.5 -146.5v-643zM692.997 445.998h-173.001c-50 0 -94 -4.66699 -132 -14s-69.5 -22.666 -94.5 -39.999s-43.667 -38.333 -56 -63s-18.5 -52.667 -18.5 -84c0 -54.667 17.333 -98.167 52 -130.5s83.334 -48.5 146.001 -48.5c50 0 96.5 12.667 139.5 38
s88.5 64.666 136.5 117.999v224zM323.996 1116c-4.66699 -6 -8.66504 -10.666 -11.998 -13.999s-7.5 -6.16602 -12.5 -8.49902s-10.667 -3.83301 -17 -4.5s-13.833 -1 -22.5 -1c-14 0 -24.833 1.16699 -32.5 3.5s-12.834 5.5 -15.501 9.5s-2.66699 9.33301 0 16
s7.33398 14.667 14.001 24l178 243c3.33301 5.33301 6.83301 9.33301 10.5 12s8.33398 5 14.001 7s12.5 3.33301 20.5 4s18 1 30 1c10.667 0 19.5 -0.333008 26.5 -1s13.167 -2.16699 18.5 -4.5s9.66602 -4.83301 12.999 -7.5s6.66602 -6.33398 9.99902 -11.001l178 -243
c6 -9.33301 10.333 -17.333 13 -24s2.66699 -12 0 -16s-7.83398 -7.16699 -15.501 -9.5s-18.167 -3.5 -31.5 -3.5c-10 0 -18.167 0.333008 -24.5 1s-11.833 2.16699 -16.5 4.5s-8.5 5.16602 -11.5 8.49902s-6.83301 8 -11.5 14l-152 208z" />
    <glyph glyph-name="atilde" unicode="&#xe3;" horiz-adv-x="973" 
d="M818 -3c0 -6.66699 -2.16992 -12.002 -6.50293 -16.002s-10.166 -6.83301 -17.499 -8.5s-17.333 -2.5 -30 -2.5c-12 0 -22.167 0.833008 -30.5 2.5s-14.833 4.5 -19.5 8.5s-7 9.33301 -7 16v106c-42.667 -46 -89.667 -81.5 -141 -106.5s-104.666 -37.5 -159.999 -37.5
c-50 0 -94.667 6.33301 -134 19s-72.666 31.167 -99.999 55.5s-48.333 53.666 -63 87.999s-22 72.833 -22 115.5c0 52.667 10.833 98.334 32.5 137.001s52.334 71 92.001 97s87.5 45.5 143.5 58.5s118.333 19.5 187 19.5h151v82c0 40 -4.16699 75.667 -12.5 107
s-21.833 57.5 -40.5 78.5s-43.167 36.667 -73.5 47s-67.166 15.5 -110.499 15.5c-42 0 -79.833 -5 -113.5 -15s-63 -21.333 -88 -34s-45.833 -24 -62.5 -34s-28.334 -15 -35.001 -15c-4 0 -7.83301 0.666992 -11.5 2s-6.66699 3.83301 -9 7.5s-4 8.5 -5 14.5
s-1.5 13.333 -1.5 22c0 14.667 1 26.334 3 35.001s7.33301 17.334 16 26.001s24.167 19 46.5 31s48.166 23.167 77.499 33.5s60.666 18.5 93.999 24.5s67 9 101 9c64.667 0 119.5 -7.83301 164.5 -23.5s81.333 -38.167 109 -67.5s47.334 -65.5 59.001 -108.5
s17.5 -91.833 17.5 -146.5v-643zM692.997 445.998h-173.001c-50 0 -94 -4.66699 -132 -14s-69.5 -22.666 -94.5 -39.999s-43.667 -38.333 -56 -63s-18.5 -52.667 -18.5 -84c0 -54.667 17.333 -98.167 52 -130.5s83.334 -48.5 146.001 -48.5c50 0 96.5 12.667 139.5 38
s88.5 64.666 136.5 117.999v224zM803.996 1306c0 -68.667 -17.3301 -120.991 -51.9971 -156.991s-80.334 -54 -137.001 -54c-25.333 0 -48 3.66699 -68 11s-38.333 16.666 -55 27.999s-32.167 23.333 -46.5 36l-42.5 36c-14 11.333 -28 20.666 -42 27.999s-29 11 -45 11
c-30.667 0 -52 -11.333 -64 -34s-18 -52.334 -18 -89.001c0 -4.66699 -0.5 -8.83398 -1.5 -12.501s-3.5 -6.5 -7.5 -8.5s-9.66699 -3.5 -17 -4.5s-17 -1.5 -29 -1.5c-8.66699 0 -16.167 0.666992 -22.5 2s-11.333 3.66602 -15 6.99902s-6.33398 7.83301 -8.00098 13.5
s-2.5 13.167 -2.5 22.5c0 63.333 16.333 114.166 49 152.499s79 57.5 139 57.5c38 0 70.333 -7.83301 97 -23.5s51.167 -32.834 73.5 -51.501l64 -51.5c20.333 -15.667 42.166 -23.5 65.499 -23.5c27.333 0 47.833 10.167 61.5 30.5s20.5 51.166 20.5 92.499
c0 9.33301 3 16.166 9 20.499s19 6.5 39 6.5c22.667 0 37.5 -2.83301 44.5 -8.5s10.5 -17.5 10.5 -35.5z" />
    <glyph glyph-name="adieresis" unicode="&#xe4;" horiz-adv-x="973" 
d="M818 -3c0 -6.66699 -2.16992 -12.002 -6.50293 -16.002s-10.166 -6.83301 -17.499 -8.5s-17.333 -2.5 -30 -2.5c-12 0 -22.167 0.833008 -30.5 2.5s-14.833 4.5 -19.5 8.5s-7 9.33301 -7 16v106c-42.667 -46 -89.667 -81.5 -141 -106.5s-104.666 -37.5 -159.999 -37.5
c-50 0 -94.667 6.33301 -134 19s-72.666 31.167 -99.999 55.5s-48.333 53.666 -63 87.999s-22 72.833 -22 115.5c0 52.667 10.833 98.334 32.5 137.001s52.334 71 92.001 97s87.5 45.5 143.5 58.5s118.333 19.5 187 19.5h151v82c0 40 -4.16699 75.667 -12.5 107
s-21.833 57.5 -40.5 78.5s-43.167 36.667 -73.5 47s-67.166 15.5 -110.499 15.5c-42 0 -79.833 -5 -113.5 -15s-63 -21.333 -88 -34s-45.833 -24 -62.5 -34s-28.334 -15 -35.001 -15c-4 0 -7.83301 0.666992 -11.5 2s-6.66699 3.83301 -9 7.5s-4 8.5 -5 14.5
s-1.5 13.333 -1.5 22c0 14.667 1 26.334 3 35.001s7.33301 17.334 16 26.001s24.167 19 46.5 31s48.166 23.167 77.499 33.5s60.666 18.5 93.999 24.5s67 9 101 9c64.667 0 119.5 -7.83301 164.5 -23.5s81.333 -38.167 109 -67.5s47.334 -65.5 59.001 -108.5
s17.5 -91.833 17.5 -146.5v-643zM692.997 445.998h-173.001c-50 0 -94 -4.66699 -132 -14s-69.5 -22.666 -94.5 -39.999s-43.667 -38.333 -56 -63s-18.5 -52.667 -18.5 -84c0 -54.667 17.333 -98.167 52 -130.5s83.334 -48.5 146.001 -48.5c50 0 96.5 12.667 139.5 38
s88.5 64.666 136.5 117.999v224zM840.898 1356.55c0 -53.8994 -18.8994 -99.9238 -56.6992 -138.073s-83.999 -57.2246 -138.599 -57.2246c-25.8994 0 -51.2744 5.25 -76.124 15.75s-46.1992 24.6748 -64.0488 42.5244c-17.8506 17.8496 -31.6758 38.3242 -41.4756 61.4248
c-9.7998 23.0996 -14.7002 48.2988 -14.7002 75.5986s4.90039 52.8496 14.7002 76.6494s23.625 44.4492 41.4756 61.9492c17.8496 17.5 39.1992 31.3252 64.0488 41.4746s50.2246 15.2246 76.124 15.2246c54.5996 0 100.799 -18.8994 138.599 -56.6992
s56.6992 -83.999 56.6992 -138.599zM478.898 1359.55c0 -53.8994 -18.8994 -99.9238 -56.6992 -138.073s-83.999 -57.2246 -138.599 -57.2246c-25.8994 0 -51.2744 5.25 -76.124 15.75s-46.1992 24.6748 -64.0488 42.5244
c-17.8506 17.8496 -31.6758 38.3242 -41.4756 61.4248c-9.7998 23.0996 -14.7002 48.2988 -14.7002 75.5986s4.90039 52.8496 14.7002 76.6494s23.625 44.4492 41.4756 61.9492c17.8496 17.5 39.1992 31.3252 64.0488 41.4746s50.2246 15.2246 76.124 15.2246
c54.5996 0 100.799 -18.8994 138.599 -56.6992s56.6992 -83.999 56.6992 -138.599z" />
    <glyph glyph-name="aring" unicode="&#xe5;" horiz-adv-x="967" 
d="M818 -14c0 -7.33301 -2.16992 -12.8359 -6.50293 -16.5029s-10.166 -6.33398 -17.499 -8.00098s-17.333 -2.5 -30 -2.5c-12 0 -22.167 0.833008 -30.5 2.5s-14.833 4.33398 -19.5 8.00098s-7 9.16699 -7 16.5v106c-42.667 -46 -89.667 -81.667 -141 -107
s-104.666 -38 -159.999 -38c-50 0 -94.667 6.5 -134 19.5s-72.666 31.5 -99.999 55.5s-48.333 53.167 -63 87.5s-22 72.833 -22 115.5c0 52.667 10.833 98.5 32.5 137.5s52.334 71.333 92.001 97s87.5 45 143.5 58s118.333 19.5 187 19.5h151v82
c0 40.667 -4.16699 76.5 -12.5 107.5s-21.833 57 -40.5 78s-43.167 36.833 -73.5 47.5s-67.166 16 -110.499 16c-42 0 -79.833 -5.16699 -113.5 -15.5s-63 -21.666 -88 -33.999s-45.833 -23.666 -62.5 -33.999s-28.334 -15.5 -35.001 -15.5c-4 0 -7.83301 0.666992 -11.5 2
s-6.66699 4 -9 8s-4 9 -5 15s-1.5 13 -1.5 21c0 14.667 1 26.5 3 35.5s7.33301 17.833 16 26.5s24.167 19 46.5 31s48.166 23 77.499 33s60.666 18.167 93.999 24.5s67 9.5 101 9.5c64.667 0 119.5 -7.83301 164.5 -23.5s81.333 -38.167 109 -67.5
s47.334 -65.666 59.001 -108.999s17.5 -92.333 17.5 -147v-642zM692.997 433.997h-173.001c-50 0 -94 -4.5 -132 -13.5s-69.5 -22.333 -94.5 -40s-43.667 -38.667 -56 -63s-18.5 -52.166 -18.5 -83.499c0 -54.667 17.333 -98.334 52 -131.001s83.334 -49 146.001 -49
c50 0 96.5 12.833 139.5 38.5s88.5 65.167 136.5 118.5v223zM671.996 1281c0 -26 -4.49902 -50.3311 -13.499 -72.998s-21.667 -42.334 -38 -59.001s-36 -29.667 -59 -39s-49.167 -14 -78.5 -14c-31.333 0 -58.333 4.5 -81 13.5s-41.334 21.5 -56.001 37.5
s-25.667 34.667 -33 56s-11 44.666 -11 69.999c0 26 4.16699 50.167 12.5 72.5s20.5 42 36.5 59s35.833 30 59.5 39s50.5 13.5 80.5 13.5c56.667 0 101 -16.333 133 -49s48 -75 48 -127zM585.997 1273c0 31.333 -8.16895 57.334 -24.502 78.001s-41.166 31 -74.499 31
c-31.333 0 -55.666 -9.33301 -72.999 -28s-26 -43 -26 -73c0 -34.667 8 -61.834 24 -81.501s41.667 -29.5 77 -29.5c30.667 0 54.5 9.66699 71.5 29s25.5 44 25.5 74z" />
    <glyph glyph-name="ae" unicode="&#xe6;" horiz-adv-x="1635" 
d="M1508 521c0 -24.667 -6.6709 -41.835 -20.0039 -51.502s-26.333 -14.5 -39 -14.5h-647c0 -58.667 5.66699 -111.834 17 -159.501s30.333 -88.5 57 -122.5s61.5 -60 104.5 -78s95.833 -27 158.5 -27c44 0 83.5 3.83301 118.5 11.5s65.167 16.167 90.5 25.5
s46.333 17.833 63 25.5s28.334 11.5 35.001 11.5c4.66699 0 8.5 -1 11.5 -3s5.5 -5.33301 7.5 -10s3.66699 -10.5 5 -17.5s2 -15.5 2 -25.5c0 -5.33301 -0.5 -10.166 -1.5 -14.499l-3 -12.5c-1 -4 -2.5 -7.66699 -4.5 -11s-4.83301 -6.83301 -8.5 -10.5
s-14.5 -9.83398 -32.5 -18.501s-41.667 -17.334 -71 -26.001s-63.5 -16.5 -102.5 -23.5s-80.833 -10.5 -125.5 -10.5c-45.333 0 -87.166 4 -125.499 12s-72.833 19.833 -103.5 35.5s-58.167 34.834 -82.5 57.501s-45.166 48.667 -62.499 78
c-23.333 -27.333 -48.166 -52.166 -74.499 -74.499s-54.5 -41.666 -84.5 -57.999s-61.5 -28.833 -94.5 -37.5s-68.5 -13 -106.5 -13c-50 0 -94.667 6.33301 -134 19s-72.666 31.167 -99.999 55.5s-48.333 53.666 -63 87.999s-22 72.833 -22 115.5
c0 52.667 10.833 98.334 32.5 137.001s52.5 71 92.5 97s88 45.5 144 58.5s118 19.5 186 19.5h152v82c0 40 -4.33301 75.667 -13 107s-22.334 57.5 -41.001 78.5s-43.167 36.667 -73.5 47s-67.166 15.5 -110.499 15.5c-42 0 -79.667 -5 -113 -15s-62.833 -21.333 -88.5 -34
s-47 -24 -64 -34s-28.833 -15 -35.5 -15c-4 0 -7.66699 0.666992 -11 2s-6 3.83301 -8 7.5s-3.5 8.5 -4.5 14.5s-1.5 13.333 -1.5 22c0 14.667 1 26.334 3 35.001s7.33301 17.334 16 26.001s24.334 19 47.001 31s48.5 23.167 77.5 33.5s60.167 18.5 93.5 24.5s67 9 101 9
c46.667 0 87.5 -4.16699 122.5 -12.5s65.167 -20.333 90.5 -36s46.166 -34.334 62.499 -56.001s29.833 -45.5 40.5 -71.5c33.333 56.667 79.833 100.167 139.5 130.5s126.5 45.5 200.5 45.5c71.333 0 132.166 -11.833 182.499 -35.5s91.833 -55.667 124.5 -96
s56.5 -87 71.5 -140s22.5 -108.833 22.5 -167.5v-26zM1380 557.999c0.666992 50.667 -4.83398 95.666 -16.501 134.999s-29.5 72.833 -53.5 100.5s-53.667 48.834 -89 63.501s-75.666 22 -120.999 22c-48 0 -90.167 -8.83301 -126.5 -26.5s-66.833 -41.167 -91.5 -70.5
s-43.667 -63.5 -57 -102.5s-21 -79.5 -23 -121.5h578zM700.995 249.998c-9.33301 26 -16.001 56.999 -20.001 92.999s-6 70.333 -6 103h-172c-50 0 -94 -4.66699 -132 -14s-69.5 -22.666 -94.5 -39.999s-43.667 -38.333 -56 -63s-18.5 -52.667 -18.5 -84
c0 -54.667 17.333 -98.167 52 -130.5s83.334 -48.5 146.001 -48.5c50 0 99.333 14.5 148 43.5s99.667 75.833 153 140.5z" />
    <glyph glyph-name="ccedilla" unicode="&#xe7;" horiz-adv-x="919" 
d="M816 138c0 -8.66699 -0.339844 -16.168 -1.00684 -22.501s-1.66699 -12 -3 -17s-3.16602 -9.5 -5.49902 -13.5s-8 -10.5 -17 -19.5s-24.333 -20.5 -46 -34.5s-45.667 -26.333 -72 -37s-55 -19.167 -86 -25.5s-62.833 -9.5 -95.5 -9.5c-66 0 -124.333 11 -175 33
s-93.167 54.5 -127.5 97.5s-60.333 95.833 -78 158.5s-26.5 135 -26.5 217c0 92 11 171 33 237s52.167 120 90.5 162s83.333 72.833 135 92.5s106.834 29.5 165.501 29.5c31.333 0 61.333 -2.83301 90 -8.5s55.167 -13.5 79.5 -23.5s45.833 -21.333 64.5 -34
s32.334 -23.334 41.001 -32.001s14.667 -15.167 18 -19.5s5.83301 -9.33301 7.5 -15s2.83398 -11.834 3.50098 -18.501s1 -14.667 1 -24c0 -20 -3 -34 -9 -42s-12.333 -12 -19 -12c-10 0 -22.167 6.16699 -36.5 18.5s-32.666 26 -54.999 41s-49.5 28.833 -81.5 41.5
s-70 19 -114 19c-90.667 0 -160.667 -35 -210 -105s-74 -171 -74 -303c0 -66.667 6.66699 -125 20 -175s32.333 -91.667 57 -125s54.834 -58.166 90.501 -74.499s75.834 -24.5 120.501 -24.5c42 0 79.167 6.66699 111.5 20s60.333 28 84 44s43.5 30.667 59.5 44
s27.667 20 35 20c4.66699 0 8.5 -1.16699 11.5 -3.5s5.5 -6.16602 7.5 -11.499s3.5 -11.666 4.5 -18.999s1.5 -16 1.5 -26zM665.993 -73.001c16 -34 27.502 -61.3301 34.502 -81.9971s10.5 -39.667 10.5 -57c0 -24 -4.33301 -46 -13 -66s-21.334 -37 -38.001 -51
s-37.167 -25 -61.5 -33s-51.833 -12 -82.5 -12c-20.667 0 -40.834 1.16699 -60.501 3.5s-37 5.16602 -52 8.49902s-25 6 -30 8s-8.5 4.66699 -10.5 8s-3.5 7.5 -4.5 12.5s-1.5 11.5 -1.5 19.5c0 18 2 29.667 6 35s10.333 8 19 8h134c24.667 0 44 5 58 15s21 25.667 21 47
c0 9.33301 -2.5 21.666 -7.5 36.999s-11.167 31.666 -18.5 48.999l-60 132h121z" />
    <glyph glyph-name="egrave" unicode="&#xe8;" 
d="M925 521c0 -24.667 -6.66602 -41.8311 -19.999 -51.498s-26.333 -14.5 -39 -14.5h-648c0 -58.667 5.83301 -111.834 17.5 -159.501s30.834 -88.5 57.501 -122.5s61.334 -60 104.001 -78s95 -27 157 -27c44.667 0 84.5 3.83301 119.5 11.5s65.167 16.167 90.5 25.5
s46.333 17.833 63 25.5s28.334 11.5 35.001 11.5c4 0 7.83301 -1 11.5 -3s6.5 -5.33301 8.5 -10s3.5 -10.5 4.5 -17.5s1.5 -15.5 1.5 -25.5c0 -5.33301 -0.333008 -10.166 -1 -14.499s-1.5 -8.5 -2.5 -12.5s-2.5 -7.66699 -4.5 -11s-4.83301 -6.83301 -8.5 -10.5
s-14.5 -9.83398 -32.5 -18.501s-41.833 -17.334 -71.5 -26.001s-63.834 -16.5 -102.501 -23.5s-80.334 -10.5 -125.001 -10.5c-74 0 -139.333 11 -196 33s-104.167 54.5 -142.5 97.5s-67.5 96.333 -87.5 160s-30 137.5 -30 221.5c0 80.667 10.333 152.834 31 216.501
s50.167 117.667 88.5 162s84.666 78.166 138.999 101.499s114.833 35 181.5 35c71.333 0 132.166 -11.833 182.499 -35.5s91.833 -55.667 124.5 -96s56.5 -87 71.5 -140s22.5 -108.833 22.5 -167.5v-26zM796.001 558.003c2 100.667 -21.167 179.333 -69.5 236
s-118.5 85 -210.5 85c-48 0 -90 -8.83301 -126 -26.5s-66.5 -41.167 -91.5 -70.5s-44 -63.5 -57 -102.5s-20.833 -79.5 -23.5 -121.5h578zM556.001 1127c4 -6 6.50293 -11.501 7.50293 -16.501s0.333008 -9 -2 -12s-6.66602 -5.5 -12.999 -7.5s-14.666 -3 -24.999 -3
s-19 0.333008 -26 1s-13.167 2.16699 -18.5 4.5s-10.166 5.33301 -14.499 9s-8.83301 9.16699 -13.5 16.5l-183 246c-4.66699 6 -7.33398 11.667 -8.00098 17s0.666016 9.83301 3.99902 13.5s9.16602 6.66699 17.499 9s19.166 3.5 32.499 3.5s24.666 -0.666992 33.999 -2
s17.166 -3.16602 23.499 -5.49902s11.833 -6 16.5 -11s9.66699 -10.833 15 -17.5z" />
    </font>
</defs>
</svg>
